<?xml version="1.0" encoding="UTF-8"?>
<!DOCTYPE svg PUBLIC "-//W3C//DTD SVG 1.1//EN" "http://www.w3.org/Graphics/SVG/1.1/DTD/svg11.dtd">
<svg xmlns="http://www.w3.org/2000/svg" version="1.1" width="414px" height="417px" style="shape-rendering:geometricPrecision; text-rendering:geometricPrecision; image-rendering:optimizeQuality; fill-rule:evenodd; clip-rule:evenodd" xmlns:xlink="http://www.w3.org/1999/xlink">
<g><path style="opacity:0.004" fill="#1b09d8" d="M 279.5,4.5 C 283.618,5.70888 287.951,6.37554 292.5,6.5C 308.708,10.1058 322.375,18.1058 333.5,30.5C 334.759,34.0246 336.759,37.0246 339.5,39.5C 339.75,41.674 340.75,43.3406 342.5,44.5C 343.338,44.8417 343.672,45.5084 343.5,46.5C 343.75,48.674 344.75,50.3406 346.5,51.5C 346.427,53.0269 347.094,54.0269 348.5,54.5C 350.167,58.1667 352.833,60.8333 356.5,62.5C 357.802,64.8218 359.802,66.1551 362.5,66.5C 363.492,66.3284 364.158,66.6618 364.5,67.5C 366.336,69.588 368.669,70.9213 371.5,71.5C 377.308,75.5795 382.975,79.9128 388.5,84.5C 389.167,84.5 389.5,84.8333 389.5,85.5C 390.08,87.7488 391.413,89.4154 393.5,90.5C 394.669,93.5113 396.336,96.178 398.5,98.5C 404.28,113.407 407.613,128.74 408.5,144.5C 410.08,177.521 409.58,210.521 407,243.5C 406.461,250.084 405.294,256.417 403.5,262.5C 402.087,265.219 401.42,268.219 401.5,271.5C 401.768,273.099 401.434,274.432 400.5,275.5C 399.076,277.515 398.41,279.848 398.5,282.5C 397.739,286.784 396.405,290.784 394.5,294.5C 393.069,295.78 392.402,297.447 392.5,299.5C 390.707,301.426 389.707,303.759 389.5,306.5C 389.672,307.492 389.338,308.158 388.5,308.5C 386.326,311.515 384.659,314.849 383.5,318.5C 383.34,320.153 382.674,321.486 381.5,322.5C 379.75,323.659 378.75,325.326 378.5,327.5C 375.34,331.148 372.673,335.148 370.5,339.5C 369.094,339.973 368.427,340.973 368.5,342.5C 366.738,343.262 365.738,344.596 365.5,346.5C 365.5,347.167 365.167,347.5 364.5,347.5C 362.738,348.262 361.738,349.596 361.5,351.5C 361.5,352.167 361.167,352.5 360.5,352.5C 357.427,354.569 355.094,357.236 353.5,360.5C 351.167,363.5 348.5,366.167 345.5,368.5C 342.236,370.094 339.569,372.427 337.5,375.5C 337.5,376.167 337.167,376.5 336.5,376.5C 334.251,377.08 332.585,378.413 331.5,380.5C 329.596,380.738 328.262,381.738 327.5,383.5C 325.596,383.738 324.262,384.738 323.5,386.5C 321.596,386.738 320.262,387.738 319.5,389.5C 316.63,390.433 314.296,392.1 312.5,394.5C 310.973,394.427 309.973,395.094 309.5,396.5C 307.973,396.427 306.973,397.094 306.5,398.5C 304.973,398.427 303.973,399.094 303.5,400.5C 301.973,400.427 300.973,401.094 300.5,402.5C 298.973,402.427 297.973,403.094 297.5,404.5C 295.973,404.427 294.973,405.094 294.5,406.5C 290.148,408.673 286.148,411.34 282.5,414.5C 280.973,414.427 279.973,415.094 279.5,416.5C 278.167,416.5 276.833,416.5 275.5,416.5C 299.497,401.154 322.497,384.321 344.5,366C 380.389,330.403 400.555,287.237 405,236.5C 406.984,201.498 406.984,166.498 405,131.5C 403.649,108.624 393.815,90.457 375.5,77C 365.515,72.0085 356.348,65.8418 348,58.5C 342.583,49.3314 336.917,40.3314 331,31.5C 314.278,14.2497 293.778,5.74973 269.5,6C 240.5,5.33333 211.5,5.33333 182.5,6C 164.831,6.16561 148.498,10.8323 133.5,20C 122.146,29.5298 113.313,41.0298 107,54.5C 104.872,57.6301 102.372,60.4634 99.5,63C 90.5,68.6667 81.5,74.3333 72.5,80C 56.9631,93.5703 48.4631,110.737 47,131.5C 45.0166,166.164 45.0166,200.831 47,235.5C 52.485,295.985 78.985,344.818 126.5,382C 143.059,393.769 159.725,405.269 176.5,416.5C 175.5,416.5 174.5,416.5 173.5,416.5C 172.486,415.326 171.153,414.66 169.5,414.5C 169.027,413.094 168.027,412.427 166.5,412.5C 166.027,411.094 165.027,410.427 163.5,410.5C 163.027,409.094 162.027,408.427 160.5,408.5C 160.027,407.094 159.027,406.427 157.5,406.5C 157.027,405.094 156.027,404.427 154.5,404.5C 154.027,403.094 153.027,402.427 151.5,402.5C 151.027,401.094 150.027,400.427 148.5,400.5C 148.027,399.094 147.027,398.427 145.5,398.5C 145.027,397.094 144.027,396.427 142.5,396.5C 140.704,394.1 138.37,392.433 135.5,391.5C 135.027,390.094 134.027,389.427 132.5,389.5C 131.738,387.738 130.404,386.738 128.5,386.5C 127.738,384.738 126.404,383.738 124.5,383.5C 123.415,381.413 121.749,380.08 119.5,379.5C 118.089,377.086 116.089,375.419 113.5,374.5C 107.167,367.5 100.5,360.833 93.5,354.5C 92.8333,354.5 92.5,354.167 92.5,353.5C 91.9202,351.251 90.5869,349.585 88.5,348.5C 87.8333,348.5 87.5,348.167 87.5,347.5C 87.2624,345.596 86.2624,344.262 84.5,343.5C 84.2624,341.596 83.2624,340.262 81.5,339.5C 81.573,337.973 80.9063,336.973 79.5,336.5C 79.573,334.973 78.9063,333.973 77.5,333.5C 77.573,331.973 76.9063,330.973 75.5,330.5C 75.2503,328.326 74.2503,326.659 72.5,325.5C 71.5903,322.008 69.9236,319.008 67.5,316.5C 65.9925,314.819 64.9925,312.819 64.5,310.5C 63.9579,307.088 62.6246,304.088 60.5,301.5C 60.5979,299.447 59.9313,297.78 58.5,296.5C 57.072,290.216 55.072,284.216 52.5,278.5C 52.1016,274.239 51.1016,270.239 49.5,266.5C 49.4512,262.922 48.7846,259.589 47.5,256.5C 44.6283,242.12 43.1283,227.453 43,212.5C 42.2088,189.809 42.3755,167.143 43.5,144.5C 44.5979,138.021 45.2646,131.354 45.5,124.5C 48.23,109.706 54.23,96.3724 63.5,84.5C 63.8333,83.5 64.5,82.8333 65.5,82.5C 68.0892,81.5806 70.0892,79.914 71.5,77.5C 77.8417,74.3321 83.8417,70.6654 89.5,66.5C 91.674,66.2503 93.3406,65.2503 94.5,63.5C 96.7488,62.9202 98.4154,61.5869 99.5,59.5C 99.5,58.8333 99.8333,58.5 100.5,58.5C 102.262,57.7377 103.262,56.4044 103.5,54.5C 104.906,54.0269 105.573,53.0269 105.5,51.5C 106.906,51.0269 107.573,50.0269 107.5,48.5C 107.328,47.5084 107.662,46.8417 108.5,46.5C 110.588,44.6644 111.921,42.3311 112.5,39.5C 116.988,32.7519 122.322,26.5852 128.5,21C 134.772,16.3676 141.439,12.5342 148.5,9.5C 149.209,8.59603 150.209,8.26269 151.5,8.5C 154.428,8.43487 157.095,7.7682 159.5,6.5C 164.049,6.37554 168.382,5.70888 172.5,4.5C 190.308,2.9853 208.308,2.31863 226.5,2.5C 244.36,2.30952 262.026,2.97619 279.5,4.5 Z"/></g>
<g><path style="opacity:0.004" fill="#000000" d="M 172.5,4.5 C 168.382,5.70888 164.049,6.37554 159.5,6.5C 163.567,4.94622 167.9,4.27955 172.5,4.5 Z"/></g>
<g><path style="opacity:0.004" fill="#000000" d="M 279.5,4.5 C 284.1,4.27955 288.433,4.94622 292.5,6.5C 287.951,6.37554 283.618,5.70888 279.5,4.5 Z"/></g>
<g><path style="opacity:0.004" fill="#00fdfd" d="M 275.5,416.5 C 273.5,416.5 271.5,416.5 269.5,416.5C 291.639,402.922 312.973,388.088 333.5,372C 336.039,369.63 338.372,367.13 340.5,364.5C 342.833,361.5 345.5,358.833 348.5,356.5C 372.672,331.842 388.839,302.509 397,268.5C 400.12,254.661 402.12,240.661 403,226.5C 403.667,197.5 403.667,168.5 403,139.5C 402.439,121.817 397.106,105.817 387,91.5C 377.657,81.6455 366.823,73.9788 354.5,68.5C 351.236,66.9059 348.569,64.5725 346.5,61.5C 341.355,53.2226 336.189,44.8893 331,36.5C 315.505,18.3409 295.672,9.17424 271.5,9C 241.167,8.33333 210.833,8.33333 180.5,9C 160.14,9.55949 142.306,16.3928 127,29.5C 123.862,32.7916 121.362,36.4582 119.5,40.5C 116.084,44.3233 113.418,48.6566 111.5,53.5C 110.191,56.7777 108.358,59.7777 106,62.5C 104.871,64.1412 103.371,65.1412 101.5,65.5C 88.0726,72.306 75.9059,80.9727 65,91.5C 62.3063,94.8924 60.1396,98.5591 58.5,102.5C 57.6618,102.842 57.3284,103.508 57.5,104.5C 52.3322,115.817 49.4988,127.817 49,140.5C 48.1034,172.852 48.4367,205.186 50,237.5C 52.4804,265.764 60.647,292.098 74.5,316.5C 87.4434,342.116 105.777,363.116 129.5,379.5C 131.404,379.738 132.738,380.738 133.5,382.5C 149.282,394.613 165.615,405.946 182.5,416.5C 180.5,416.5 178.5,416.5 176.5,416.5C 159.725,405.269 143.059,393.769 126.5,382C 78.985,344.818 52.485,295.985 47,235.5C 45.0166,200.831 45.0166,166.164 47,131.5C 48.4631,110.737 56.9631,93.5703 72.5,80C 81.5,74.3333 90.5,68.6667 99.5,63C 102.372,60.4634 104.872,57.6301 107,54.5C 113.313,41.0298 122.146,29.5298 133.5,20C 148.498,10.8323 164.831,6.16561 182.5,6C 211.5,5.33333 240.5,5.33333 269.5,6C 293.778,5.74973 314.278,14.2497 331,31.5C 336.917,40.3314 342.583,49.3314 348,58.5C 356.348,65.8418 365.515,72.0085 375.5,77C 393.815,90.457 403.649,108.624 405,131.5C 406.984,166.498 406.984,201.498 405,236.5C 400.555,287.237 380.389,330.403 344.5,366C 322.497,384.321 299.497,401.154 275.5,416.5 Z"/></g>
<g><path style="opacity:0.004" fill="#000000" d="M 159.5,6.5 C 157.095,7.7682 154.428,8.43487 151.5,8.5C 153.838,6.96046 156.505,6.29379 159.5,6.5 Z"/></g>
<g><path style="opacity:0.004" fill="#000000" d="M 292.5,6.5 C 309.773,8.62639 323.439,16.6264 333.5,30.5C 322.375,18.1058 308.708,10.1058 292.5,6.5 Z"/></g>
<g><path style="opacity:0.004" fill="#00807f" d="M 346.5,61.5 C 345.206,60.7101 344.039,59.7101 343,58.5C 336.402,45.2417 327.569,33.7417 316.5,24C 302.123,15.1538 286.456,10.4872 269.5,10C 240.5,9.33333 211.5,9.33333 182.5,10C 164.99,10.3935 148.99,15.3935 134.5,25C 129.256,29.7387 124.59,34.9054 120.5,40.5C 120.167,40.5 119.833,40.5 119.5,40.5C 121.362,36.4582 123.862,32.7916 127,29.5C 142.306,16.3928 160.14,9.55949 180.5,9C 210.833,8.33333 241.167,8.33333 271.5,9C 295.672,9.17424 315.505,18.3409 331,36.5C 336.189,44.8893 341.355,53.2226 346.5,61.5 Z"/></g>
<g><path style="opacity:0.004" fill="#000000" d="M 148.5,9.5 C 141.439,12.5342 134.772,16.3676 128.5,21C 122.322,26.5852 116.988,32.7519 112.5,39.5C 119.948,24.0536 131.948,14.0536 148.5,9.5 Z"/></g>
<g><path style="opacity:0.004" fill="#777af3" d="M 346.5,61.5 C 348.569,64.5725 351.236,66.9059 354.5,68.5C 360.426,73.1401 366.759,77.3067 373.5,81C 384.812,89.3132 392.646,100.147 397,113.5C 399.639,122.999 401.305,132.666 402,142.5C 402.667,169.167 402.667,195.833 402,222.5C 400.277,273.882 382.443,318.549 348.5,356.5C 345.5,358.833 342.833,361.5 340.5,364.5C 317.213,383.786 292.546,401.119 266.5,416.5C 264.833,416.5 263.167,416.5 261.5,416.5C 286.36,402.15 310.027,385.984 332.5,368C 369.848,334.808 391.515,293.308 397.5,243.5C 398.925,235.71 399.758,227.71 400,219.5C 400.83,194.997 400.663,170.663 399.5,146.5C 399.703,133.752 397.536,121.418 393,109.5C 391.643,106.102 389.81,103.102 387.5,100.5C 384.154,94.6409 379.82,89.4743 374.5,85C 367.505,79.8339 360.172,75.1673 352.5,71C 349.573,68.6176 346.739,66.1176 344,63.5C 337.752,54.672 331.752,45.672 326,36.5C 309.593,19.4122 289.427,11.4122 265.5,12.5C 239.337,11.3365 213.003,11.1698 186.5,12C 180.266,12.1783 174.266,13.0117 168.5,14.5C 149.656,16.7481 134.656,25.4148 123.5,40.5C 122.5,40.5 121.5,40.5 120.5,40.5C 124.59,34.9054 129.256,29.7387 134.5,25C 148.99,15.3935 164.99,10.3935 182.5,10C 211.5,9.33333 240.5,9.33333 269.5,10C 286.456,10.4872 302.123,15.1538 316.5,24C 327.569,33.7417 336.402,45.2417 343,58.5C 344.039,59.7101 345.206,60.7101 346.5,61.5 Z"/></g>
<g><path style="opacity:0.008" fill="#55aaa9" d="M 265.5,12.5 C 233.128,11.9961 200.795,12.6628 168.5,14.5C 174.266,13.0117 180.266,12.1783 186.5,12C 213.003,11.1698 239.337,11.3365 265.5,12.5 Z"/></g>
<g><path style="opacity:0.008" fill="#4b97d0" d="M 265.5,12.5 C 289.427,11.4122 309.593,19.4122 326,36.5C 331.752,45.672 337.752,54.672 344,63.5C 346.739,66.1176 349.573,68.6176 352.5,71C 360.172,75.1673 367.505,79.8339 374.5,85C 379.82,89.4743 384.154,94.6409 387.5,100.5C 394.653,115.117 398.653,130.45 399.5,146.5C 399.935,178.864 399.268,211.198 397.5,243.5C 391.515,293.308 369.848,334.808 332.5,368C 310.027,385.984 286.36,402.15 261.5,416.5C 253.833,416.5 246.167,416.5 238.5,416.5C 239.463,415.637 239.463,414.97 238.5,414.5C 232.866,415.268 227.2,415.101 221.5,414C 225.377,413.271 229.211,413.438 233,414.5C 234.762,414.056 234.595,413.556 232.5,413C 226.145,412.644 219.812,412.644 213.5,413C 217.561,411.424 221.728,410.257 226,409.5C 230.644,410.325 235.144,411.659 239.5,413.5C 239.669,412.603 240.002,411.603 240.5,410.5C 242.156,412.022 243.323,411.689 244,409.5C 245,410.167 246,410.833 247,411.5C 246.923,410.262 247.089,409.262 247.5,408.5C 249.111,409.32 249.778,410.654 249.5,412.5C 247.146,412.838 244.813,413.338 242.5,414C 246.667,416.062 250.667,415.729 254.5,413C 253.833,412.667 253.167,412.333 252.5,412C 256.426,412.571 260.093,411.571 263.5,409C 261.725,407.561 259.725,406.561 257.5,406C 259.167,405.167 260.833,404.333 262.5,403.5C 263.311,405.391 264.644,406.724 266.5,407.5C 269.834,406.169 272.834,404.335 275.5,402C 273.319,399.922 271.319,400.089 269.5,402.5C 268.167,401.167 266.833,401.167 265.5,402.5C 264.833,401.833 264.167,401.167 263.5,400.5C 260.833,401.833 258.167,403.167 255.5,404.5C 255.167,404.167 254.833,403.833 254.5,403.5C 256.113,402.573 257.779,401.739 259.5,401C 258.552,400.517 257.552,400.351 256.5,400.5C 256.238,399.022 256.571,397.689 257.5,396.5C 259.134,396.032 260.3,395.032 261,393.5C 262.667,395.167 264.333,396.833 266,398.5C 266.442,396.321 267.442,395.655 269,396.5C 269.359,393.456 270.026,393.122 271,395.5C 271.667,394.167 272.333,392.833 273,391.5C 272.678,395.276 274.345,398.276 278,400.5C 279.487,399.747 279.654,398.914 278.5,398C 280.095,398.617 281.428,398.284 282.5,397C 281.66,395.334 282.16,395.167 284,396.5C 285.487,395.747 285.654,394.914 284.5,394C 285.449,393.383 286.282,393.549 287,394.5C 288.204,393.529 288.704,392.529 288.5,391.5C 289.086,391.709 289.586,392.043 290,392.5C 291.119,391.448 291.619,390.281 291.5,389C 292.5,389.333 293.5,389.667 294.5,390C 298.11,387.684 301.444,385.018 304.5,382C 304.167,381.667 303.833,381.333 303.5,381C 304.833,381 306.167,381 307.5,381C 307.5,380 307.5,379 307.5,378C 308.549,377.508 309.549,377.674 310.5,378.5C 313.789,377.109 315.456,374.942 315.5,372C 316.167,371.333 316.833,371.333 317.5,372C 316.304,372.654 316.304,373.154 317.5,373.5C 320.329,370.841 323.329,368.341 326.5,366C 324.884,365.385 323.551,364.385 322.5,363C 324.567,362.464 326.401,362.964 328,364.5C 330.869,361.296 334.035,358.463 337.5,356C 336.833,355.667 336.167,355.333 335.5,355C 337,353.5 338.5,352 340,350.5C 340.333,351.167 340.667,351.833 341,352.5C 344.314,349.647 345.981,346.314 346,342.5C 347.791,340.487 349.125,340.487 350,342.5C 350.785,340.714 351.951,339.214 353.5,338C 352.549,337.282 352.383,336.449 353,335.5C 354.61,335.87 356.11,335.203 357.5,333.5C 357.154,332.304 356.654,332.304 356,333.5C 355.54,331.286 356.207,330.619 358,331.5C 365.75,322.855 371.083,313.188 374,302.5C 374.654,303.696 375.154,303.696 375.5,302.5C 374.817,299.539 373.984,299.205 373,301.5C 372.667,300.833 372.333,300.167 372,299.5C 370.364,302.606 368.864,305.773 367.5,309C 367.645,309.772 367.978,310.439 368.5,311C 367.299,311.903 366.465,313.069 366,314.5C 364.172,312.597 364.339,310.764 366.5,309C 365.449,307.615 364.116,306.615 362.5,306C 365.544,305.641 365.878,304.974 363.5,304C 366.544,303.641 366.878,302.974 364.5,302C 367.544,301.641 367.878,300.974 365.5,300C 368.544,299.641 368.878,298.974 366.5,298C 369.544,297.641 369.878,296.974 367.5,296C 368.5,295.667 369.5,295.333 370.5,295C 369.804,293.512 370.138,292.012 371.5,290.5C 372.452,291.533 372.452,292.7 371.5,294C 372.424,295.811 373.257,295.645 374,293.5C 375.289,298.784 376.622,298.784 378,293.5C 378.654,294.696 379.154,294.696 379.5,293.5C 378.339,291.776 378.505,290.11 380,288.5C 380.654,289.696 381.154,289.696 381.5,288.5C 380.617,286.52 380.783,284.52 382,282.5C 382.333,283.167 382.667,283.833 383,284.5C 385.432,281.115 386.099,277.449 385,273.5C 385.556,275.595 386.056,275.762 386.5,274C 385.67,272.535 385.504,271.035 386,269.5C 386.317,271.301 386.984,271.634 388,270.5C 388.562,268.134 388.396,265.801 387.5,263.5C 387.667,262.833 387.833,262.167 388,261.5C 388.333,262.5 388.667,263.5 389,264.5C 390.8,261.104 390.967,257.604 389.5,254C 389.851,250.896 390.351,251.063 391,254.5C 391.167,253.833 391.333,253.167 391.5,252.5C 390.604,250.199 390.438,247.866 391,245.5C 391.333,246.5 391.667,247.5 392,248.5C 392.167,247.833 392.333,247.167 392.5,246.5C 391.504,243.203 391.337,239.869 392,236.5C 392.333,238.167 392.667,239.833 393,241.5C 393.168,236.828 392.834,232.161 392,227.5C 391.146,235.187 390.146,242.854 389,250.5C 388.692,251.308 388.192,251.975 387.5,252.5C 386.385,249.888 384.718,247.721 382.5,246C 383.211,244.745 384.044,243.579 385,242.5C 385.129,245.003 386.129,247.003 388,248.5C 388.103,243.709 385.936,240.376 381.5,238.5C 383.857,237.597 385.357,235.93 386,233.5C 386.497,235.81 386.663,238.143 386.5,240.5C 387.675,240.719 388.675,240.386 389.5,239.5C 388.668,236.839 387.834,234.172 387,231.5C 385.921,229.606 384.587,229.273 383,230.5C 382.226,228.597 382.56,226.93 384,225.5C 384.333,226.167 384.667,226.833 385,227.5C 385.667,224.833 386.333,222.167 387,219.5C 387.175,223.211 387.675,226.878 388.5,230.5C 389.086,230.709 389.586,231.043 390,231.5C 389.109,225.237 388.776,218.904 389,212.5C 390.016,211.366 390.683,211.699 391,213.5C 391.702,219.894 392.702,226.228 394,232.5C 394.167,230.833 394.333,229.167 394.5,227.5C 393.36,197.49 393.193,167.49 394,137.5C 393.667,139.5 393.333,141.5 393,143.5C 392.378,139.971 392.545,136.471 393.5,133C 393.333,132.167 393.167,131.333 393,130.5C 392.667,131.833 392.333,133.167 392,134.5C 393.273,127.803 392.273,121.47 389,115.5C 388.667,116.167 388.333,116.833 388,117.5C 386.441,113.381 384.607,109.381 382.5,105.5C 383.46,104.188 383.294,102.854 382,101.5C 381.683,103.301 381.016,103.634 380,102.5C 380.103,98.8585 378.603,95.6918 375.5,93C 373.05,94.1257 371.05,93.459 369.5,91C 370.167,90.6667 370.833,90.3333 371.5,90C 369.697,89.3632 368.364,88.1965 367.5,86.5C 366.304,86.8457 366.304,87.3457 367.5,88C 364.199,87.1765 361.199,85.5098 358.5,83C 360.301,82.6827 360.634,82.016 359.5,81C 355.996,79.0823 352.663,76.9157 349.5,74.5C 348.304,74.8457 348.304,75.3457 349.5,76C 347.919,76.7065 346.419,77.5399 345,78.5C 342.522,78.411 340.688,76.911 339.5,74C 341.417,74.0275 343.084,74.8608 344.5,76.5C 347.174,75.5009 347.841,73.8342 346.5,71.5C 344.784,71.0028 343.117,70.6694 341.5,70.5C 340.289,69.7261 340.289,68.8928 341.5,68C 339.333,66.2411 337.666,64.0745 336.5,61.5C 335.302,61.0604 334.135,60.727 333,60.5C 331.634,58.6297 330.467,56.6297 329.5,54.5C 330.46,53.1877 330.294,51.8544 329,50.5C 328.085,49.6721 327.419,48.6721 327,47.5C 326.683,49.3008 326.016,49.6341 325,48.5C 324.383,47.5509 324.549,46.7175 325.5,46C 323.667,43.5 321.833,41 320,38.5C 319.667,39.1667 319.333,39.8333 319,40.5C 317.5,39 316,37.5 314.5,36C 316.301,35.6827 316.634,35.016 315.5,34C 311.906,33.5383 308.573,31.8717 305.5,29C 302.618,27.3921 299.618,26.0587 296.5,25C 299.167,24.3333 299.167,23.6667 296.5,23C 292.224,22.3516 287.891,21.8516 283.5,21.5C 283.5,22.5 283.5,23.5 283.5,24.5C 277.218,25.6915 276.885,24.5249 282.5,21C 276.825,20.5359 276.492,19.8693 281.5,19C 277.187,19.245 272.853,19.245 268.5,19C 270.5,18.6667 272.5,18.3333 274.5,18C 242.167,18.6667 209.833,18.6667 177.5,18C 179.5,18.3333 181.5,18.6667 183.5,19C 180.131,19.6626 176.797,19.4959 173.5,18.5C 172.833,18.6667 172.167,18.8333 171.5,19C 179.073,20.5826 186.74,21.5826 194.5,22C 194.167,22.3333 193.833,22.6667 193.5,23C 220.866,24.3512 247.366,23.5179 273,20.5C 274.167,20.6667 275.333,20.8333 276.5,21C 268.345,22.0307 260.345,23.6974 252.5,26C 255.801,28.3737 259.467,29.0404 263.5,28C 261.5,27.6667 259.5,27.3333 257.5,27C 260.167,26.6667 262.833,26.3333 265.5,26C 264.5,25.6667 263.5,25.3333 262.5,25C 267.53,24.099 272.53,23.4323 277.5,23C 274.804,23.7648 272.304,24.9315 270,26.5C 269.289,28.3668 269.789,29.8668 271.5,31C 269.109,32.3086 269.109,33.3086 271.5,34C 267.126,34.8753 264.126,37.3753 262.5,41.5C 258.614,40.4119 258.614,39.5785 262.5,39C 261.833,38.6667 261.167,38.3333 260.5,38C 263.173,36.9986 265.507,35.4986 267.5,33.5C 266.667,33.1667 265.833,32.8333 265,32.5C 259.86,33.4956 254.693,34.3289 249.5,35C 233.833,35.6667 218.167,35.6667 202.5,35C 198.469,34.5193 194.469,33.8527 190.5,33C 192.167,32.6667 193.833,32.3333 195.5,32C 193.754,31.5291 192.087,30.8624 190.5,30C 193.785,29.2411 196.785,27.9078 199.5,26C 193.248,24.1828 186.915,22.6828 180.5,21.5C 179.494,21.9377 179.494,22.6043 180.5,23.5C 183.447,24.3214 186.447,24.8214 189.5,25C 188.5,25.3333 187.5,25.6667 186.5,26C 189.167,26.3333 191.833,26.6667 194.5,27C 190.728,27.406 187.061,28.2393 183.5,29.5C 181.308,25.7213 177.975,23.388 173.5,22.5C 172.494,22.9377 172.494,23.6043 173.5,24.5C 176.903,25.267 179.57,26.4336 181.5,28C 178.686,28.7792 177.02,30.1125 176.5,32C 178.833,31.6667 181.167,31.3333 183.5,31C 184.071,32.2051 184.738,33.3717 185.5,34.5C 189.172,32.9503 189.839,33.4503 187.5,36C 189.881,37.2465 189.547,37.5798 186.5,37C 184.415,35.9586 182.748,34.4586 181.5,32.5C 180.069,32.9766 178.736,33.6433 177.5,34.5C 178.262,34.9106 179.262,35.0773 180.5,35C 179.874,35.7504 179.374,36.5838 179,37.5C 177.732,37.3842 176.398,37.0509 175,36.5C 175.077,37.7376 174.911,38.7376 174.5,39.5C 173.685,37.7241 172.518,37.0574 171,37.5C 169.205,38.7195 169.372,39.7195 171.5,40.5C 155.5,40.5 139.5,40.5 123.5,40.5C 134.656,25.4148 149.656,16.7481 168.5,14.5C 200.795,12.6628 233.128,11.9961 265.5,12.5 Z"/></g>
<g><path style="opacity:0.004" fill="#000000" d="M 333.5,30.5 C 336.277,32.9505 338.277,35.9505 339.5,39.5C 336.759,37.0246 334.759,34.0246 333.5,30.5 Z"/></g>
<g><path style="opacity:0.004" fill="#000000" d="M 112.5,39.5 C 111.921,42.3311 110.588,44.6644 108.5,46.5C 109.079,43.6689 110.412,41.3356 112.5,39.5 Z"/></g>
<g><path style="opacity:0.004" fill="#000000" d="M 339.5,39.5 C 341.25,40.6594 342.25,42.326 342.5,44.5C 340.75,43.3406 339.75,41.674 339.5,39.5 Z"/></g>
<g><path style="opacity:0.004" fill="#00807f" d="M 119.5,40.5 C 119.5,41.1667 119.5,41.8333 119.5,42.5C 117.078,46.3438 114.411,50.0105 111.5,53.5C 113.418,48.6566 116.084,44.3233 119.5,40.5 Z"/></g>
<g><path style="opacity:1" fill="#0165dc" d="M 119.5,40.5 C 119.833,40.5 120.167,40.5 120.5,40.5C 121.5,40.5 122.5,40.5 123.5,40.5C 139.5,40.5 155.5,40.5 171.5,40.5C 199.167,40.5 226.833,40.5 254.5,40.5C 254.5,42.8333 254.5,45.1667 254.5,47.5C 253.539,45.7354 253.205,43.7354 253.5,41.5C 250.833,41.5 248.167,41.5 245.5,41.5C 240.821,41.3342 236.155,41.5008 231.5,42C 232.167,42.6667 232.833,43.3333 233.5,44C 233.374,45.9743 233.208,48.141 233,50.5C 232.667,50.1667 232.333,49.8333 232,49.5C 230.489,56.1791 226.322,60.0124 219.5,61C 198.5,61.3333 177.5,61.6667 156.5,62C 149.573,62.0471 144.073,64.8804 140,70.5C 132.276,94.8887 116.443,111.389 92.5,120C 84.0406,123.788 79.5406,130.288 79,139.5C 78.6667,158.5 78.3333,177.5 78,196.5C 77.1816,199.107 76.6816,201.774 76.5,204.5C 77.9886,214.44 78.9886,224.44 79.5,234.5C 78.8048,237.939 79.1381,241.439 80.5,245C 79.7945,247.142 80.1278,249.309 81.5,251.5C 81.2907,252.086 80.9574,252.586 80.5,253C 82.3332,260.505 83.9998,268.172 85.5,276C 85.3968,277.561 85.0634,279.061 84.5,280.5C 82.7086,281.17 81.0419,281.837 79.5,282.5C 68.8412,265.368 62.0078,246.702 59,226.5C 58.6667,227.833 58.3333,229.167 58,230.5C 57.9216,197.356 57.4216,164.19 56.5,131C 57.4601,127.27 57.7935,123.437 57.5,119.5C 57.7678,117.901 57.4345,116.568 56.5,115.5C 57.3686,113.283 57.702,110.95 57.5,108.5C 57.5,107.167 57.5,105.833 57.5,104.5C 57.3284,103.508 57.6618,102.842 58.5,102.5C 59.1667,102.5 59.8333,102.5 60.5,102.5C 61.1667,102.5 61.8333,102.5 62.5,102.5C 67.9377,102.012 73.271,101.012 78.5,99.5C 72.6444,102.027 67.4778,105.694 63,110.5C 59.3778,117.229 58.7111,124.229 61,131.5C 61.8088,155.353 61.6421,179.186 60.5,203C 62.0099,208.599 63.0099,214.099 63.5,219.5C 63.2907,220.086 62.9574,220.586 62.5,221C 63.9431,222.067 65.2764,223.234 66.5,224.5C 67.086,224.291 67.586,223.957 68,223.5C 67.9643,217.793 68.7976,212.127 70.5,206.5C 69.3635,183.184 69.1969,159.85 70,136.5C 71.2669,127.628 75.7669,120.961 83.5,116.5C 94.4856,113.124 104.486,107.958 113.5,101C 117.714,96.4545 121.547,91.6212 125,86.5C 127.855,78.4851 131.522,70.4851 136,62.5C 140.546,57.6446 146.046,54.4779 152.5,53C 172.833,52.6667 193.167,52.3333 213.5,52C 221.33,49.4251 221.163,46.9251 213,44.5C 212.667,44.8333 212.333,45.1667 212,45.5C 190.573,44.6725 169.073,44.1725 147.5,44C 132.516,40.4945 122.182,45.9945 116.5,60.5C 116.85,57.2785 117.517,54.1118 118.5,51C 118.472,49.9302 118.139,49.0968 117.5,48.5C 119.081,46.8583 119.747,44.8583 119.5,42.5C 119.5,41.8333 119.5,41.1667 119.5,40.5 Z"/></g>
<g><path style="opacity:0.004" fill="#7278ef" d="M 119.5,42.5 C 119.747,44.8583 119.081,46.8583 117.5,48.5C 114.24,55.9392 109.574,62.4392 103.5,68C 94.8333,73.6667 86.1667,79.3333 77.5,85C 71.541,90.117 66.541,95.9503 62.5,102.5C 61.8333,102.5 61.1667,102.5 60.5,102.5C 63.7179,95.9238 68.0513,90.0905 73.5,85C 81.5652,79.2721 89.8985,73.9388 98.5,69C 99.7101,67.9609 100.71,66.7942 101.5,65.5C 103.371,65.1412 104.871,64.1412 106,62.5C 108.358,59.7777 110.191,56.7777 111.5,53.5C 114.411,50.0105 117.078,46.3438 119.5,42.5 Z"/></g>
<g><path style="opacity:1" fill="#006de3" d="M 78.5,99.5 C 97.2581,92.4089 109.925,79.4089 116.5,60.5C 122.182,45.9945 132.516,40.4945 147.5,44C 169.073,44.1725 190.573,44.6725 212,45.5C 212.333,45.1667 212.667,44.8333 213,44.5C 221.163,46.9251 221.33,49.4251 213.5,52C 193.167,52.3333 172.833,52.6667 152.5,53C 146.046,54.4779 140.546,57.6446 136,62.5C 131.522,70.4851 127.855,78.4851 125,86.5C 121.547,91.6212 117.714,96.4545 113.5,101C 104.486,107.958 94.4856,113.124 83.5,116.5C 75.7669,120.961 71.2669,127.628 70,136.5C 69.1969,159.85 69.3635,183.184 70.5,206.5C 68.7976,212.127 67.9643,217.793 68,223.5C 67.586,223.957 67.086,224.291 66.5,224.5C 65.2764,223.234 63.9431,222.067 62.5,221C 62.9574,220.586 63.2907,220.086 63.5,219.5C 63.0099,214.099 62.0099,208.599 60.5,203C 61.6421,179.186 61.8088,155.353 61,131.5C 58.7111,124.229 59.3778,117.229 63,110.5C 67.4778,105.694 72.6444,102.027 78.5,99.5 Z"/></g>
<g><path style="opacity:0.004" fill="#000000" d="M 343.5,46.5 C 345.25,47.6594 346.25,49.326 346.5,51.5C 344.75,50.3406 343.75,48.674 343.5,46.5 Z"/></g>
<g><path style="opacity:0.004" fill="#000000" d="M 107.5,48.5 C 107.573,50.0269 106.906,51.0269 105.5,51.5C 105.427,49.9731 106.094,48.9731 107.5,48.5 Z"/></g>
<g><path style="opacity:0.004" fill="#000000" d="M 105.5,51.5 C 105.573,53.0269 104.906,54.0269 103.5,54.5C 103.427,52.9731 104.094,51.9731 105.5,51.5 Z"/></g>
<g><path style="opacity:0.004" fill="#000000" d="M 346.5,51.5 C 347.906,51.9731 348.573,52.9731 348.5,54.5C 347.094,54.0269 346.427,53.0269 346.5,51.5 Z"/></g>
<g><path style="opacity:0.004" fill="#000000" d="M 103.5,54.5 C 103.262,56.4044 102.262,57.7377 100.5,58.5C 100.738,56.5956 101.738,55.2623 103.5,54.5 Z"/></g>
<g><path style="opacity:0.008" fill="#4c96ce" d="M 117.5,48.5 C 118.139,49.0968 118.472,49.9302 118.5,51C 117.517,54.1118 116.85,57.2785 116.5,60.5C 109.925,79.4089 97.2581,92.4089 78.5,99.5C 73.271,101.012 67.9377,102.012 62.5,102.5C 66.541,95.9503 71.541,90.117 77.5,85C 86.1667,79.3333 94.8333,73.6667 103.5,68C 109.574,62.4392 114.24,55.9392 117.5,48.5 Z"/></g>
<g><path style="opacity:0.004" fill="#000000" d="M 348.5,54.5 C 351.5,56.8333 354.167,59.5 356.5,62.5C 352.833,60.8333 350.167,58.1667 348.5,54.5 Z"/></g>
<g><path style="opacity:1" fill="#014dc9" d="M 245.5,41.5 C 248.167,41.5 250.833,41.5 253.5,41.5C 253.205,43.7354 253.539,45.7354 254.5,47.5C 254.5,48.1667 254.5,48.8333 254.5,49.5C 253.85,49.1961 253.183,48.8627 252.5,48.5C 248.677,50.3337 245.177,52.667 242,55.5C 238.194,61.2749 235.361,67.4415 233.5,74C 235.309,80.2076 239.309,85.2076 245.5,89C 253.141,95.2269 261.474,96.5602 270.5,93C 271.126,92.2496 271.626,91.4162 272,90.5C 272.667,91.8333 273.333,91.8333 274,90.5C 274.483,89.552 274.649,88.552 274.5,87.5C 286.414,98.029 300.414,103.029 316.5,102.5C 316.832,137.671 316.498,172.671 315.5,207.5C 315.833,175.16 315.5,142.826 314.5,110.5C 312.587,109.627 310.753,108.627 309,107.5C 306.154,107.654 303.32,107.654 300.5,107.5C 293.142,110.36 287.975,115.36 285,122.5C 284.769,128.371 284.269,134.204 283.5,140C 281.957,141.713 280.291,143.213 278.5,144.5C 276.84,142.752 274.84,142.252 272.5,143C 268.606,145.446 264.606,147.612 260.5,149.5C 259.127,149.343 257.793,149.51 256.5,150C 256.165,151.748 255.165,153.581 253.5,155.5C 252.11,157.203 250.61,157.87 249,157.5C 244.397,152.896 239.23,149.062 233.5,146C 235.891,144.691 235.891,143.691 233.5,143C 236.338,142.5 239.338,141.5 242.5,140C 243.726,138.365 245.059,136.865 246.5,135.5C 247.451,136.326 248.451,136.492 249.5,136C 252.5,133 255.5,130 258.5,127C 257.833,126.333 257.167,126.333 256.5,127C 254.983,128.685 253.316,130.185 251.5,131.5C 250.914,131.291 250.414,130.957 250,130.5C 250.019,127.756 250.686,125.089 252,122.5C 254.705,112.467 251.205,107.467 241.5,107.5C 239.858,105.919 237.858,105.253 235.5,105.5C 230.743,105.417 227.91,108.417 227,114.5C 225.221,118.399 223.221,122.065 221,125.5C 221.88,130.123 222.38,134.79 222.5,139.5C 220.608,142.044 218.775,142.044 217,139.5C 214.645,140.131 212.478,140.131 210.5,139.5C 204.032,137.755 198.032,135.255 192.5,132C 194.657,130.088 196.991,128.421 199.5,127C 201.081,125.172 202.415,123.172 203.5,121C 202.64,117.248 202.64,113.415 203.5,109.5C 203.698,103.439 201.698,98.2723 197.5,94C 195.288,93.2109 193.288,93.3775 191.5,94.5C 188.778,92.2267 185.778,91.8933 182.5,93.5C 181.5,93.5 180.5,93.5 179.5,93.5C 177.891,96.5346 176.558,99.368 175.5,102C 175.55,107.061 175.55,112.061 175.5,117C 175.996,118.996 176.996,120.663 178.5,122C 178.167,122.333 177.833,122.667 177.5,123C 179.625,124.737 180.458,126.904 180,129.5C 177.973,128.788 176.973,127.788 177,126.5C 176.333,127.167 175.667,127.833 175,128.5C 169.769,128.186 164.936,126.686 160.5,124C 157.055,115.403 151.555,108.569 144,103.5C 141.061,104.128 138.228,104.795 135.5,105.5C 133.227,105.957 131.894,107.29 131.5,109.5C 129.827,110.343 128.66,111.676 128,113.5C 127.552,117.008 127.052,120.175 126.5,123C 129.273,128.815 132.607,134.815 136.5,141C 134.431,141.324 134.098,142.158 135.5,143.5C 133.748,146.672 131.748,149.672 129.5,152.5C 128.167,153.833 126.833,153.833 125.5,152.5C 124.352,150.851 123.019,149.351 121.5,148C 117.024,144.719 112.524,142.219 108,140.5C 104.935,140.607 101.935,140.607 99,140.5C 98.2828,141.044 97.7828,141.711 97.5,142.5C 96.3065,143.272 95.3065,144.272 94.5,145.5C 93.5041,145.414 92.6708,145.748 92,146.5C 90.3705,154.155 91.7038,161.155 96,167.5C 96.3333,167.167 96.6667,166.833 97,166.5C 101.077,169.763 105.244,172.263 109.5,174C 112.167,174.333 114.833,174.667 117.5,175C 116.672,175.915 115.672,176.581 114.5,177C 115.308,177.308 115.975,177.808 116.5,178.5C 115.423,181.972 114.423,185.472 113.5,189C 113.095,189.945 112.428,190.612 111.5,191C 112.517,192.049 112.684,193.216 112,194.5C 110.316,192.299 108.316,191.633 106,192.5C 105.692,191.692 105.192,191.025 104.5,190.5C 100.942,190.616 97.275,190.782 93.5,191C 91.2774,191.566 89.2774,192.4 87.5,193.5C 86.5,193.5 85.5,193.5 84.5,193.5C 85.8361,191.99 87.0027,190.323 88,188.5C 88.6478,176.99 88.4812,165.49 87.5,154C 87.5366,147.279 88.7033,140.779 91,134.5C 92.5,133 94,131.5 95.5,130C 104.772,126.365 113.439,121.699 121.5,116C 125.325,109.843 130.158,104.677 136,100.5C 140.194,93.4455 143.861,86.1122 147,78.5C 149.488,74.6749 152.988,72.5082 157.5,72C 177.833,71.6667 198.167,71.3333 218.5,71C 220.101,70.7266 221.601,70.2266 223,69.5C 223.333,69.8333 223.667,70.1667 224,70.5C 227.308,67.5285 230.641,64.5285 234,61.5C 238.046,55.8651 241.88,50.6985 245.5,46C 244.587,44.5861 244.587,43.0861 245.5,41.5 Z"/></g>
<g><path style="opacity:0.004" fill="#000000" d="M 99.5,59.5 C 98.4154,61.5869 96.7488,62.9202 94.5,63.5C 95.5846,61.4131 97.2512,60.0798 99.5,59.5 Z"/></g>
<g><path style="opacity:1" fill="#0057d2" d="M 245.5,41.5 C 244.587,43.0861 244.587,44.5861 245.5,46C 241.88,50.6985 238.046,55.8651 234,61.5C 230.641,64.5285 227.308,67.5285 224,70.5C 223.667,70.1667 223.333,69.8333 223,69.5C 221.601,70.2266 220.101,70.7266 218.5,71C 198.167,71.3333 177.833,71.6667 157.5,72C 152.988,72.5082 149.488,74.6749 147,78.5C 143.861,86.1122 140.194,93.4455 136,100.5C 130.158,104.677 125.325,109.843 121.5,116C 113.439,121.699 104.772,126.365 95.5,130C 94,131.5 92.5,133 91,134.5C 88.7033,140.779 87.5366,147.279 87.5,154C 88.4812,165.49 88.6478,176.99 88,188.5C 87.0027,190.323 85.8361,191.99 84.5,193.5C 80.6315,195.484 79.6315,198.484 81.5,202.5C 81.0355,206.716 82.3689,210.216 85.5,213C 84.8333,213.333 84.1667,213.667 83.5,214C 83.7284,214.399 84.0618,214.565 84.5,214.5C 85.412,216.595 86.5787,218.595 88,220.5C 89.0131,227.31 89.8464,234.143 90.5,241C 90.4993,246.07 90.1659,250.737 89.5,255C 91.6821,262.189 95.1821,268.689 100,274.5C 101.654,279.679 103.987,285.012 107,290.5C 110.884,297.365 112.55,304.699 112,312.5C 111.153,314.193 110.32,315.86 109.5,317.5C 103.905,313.41 98.7387,308.744 94,303.5C 88.6534,296.79 83.8201,289.79 79.5,282.5C 81.0419,281.837 82.7086,281.17 84.5,280.5C 85.0634,279.061 85.3968,277.561 85.5,276C 83.9998,268.172 82.3332,260.505 80.5,253C 80.9574,252.586 81.2907,252.086 81.5,251.5C 80.1278,249.309 79.7945,247.142 80.5,245C 79.1381,241.439 78.8048,237.939 79.5,234.5C 78.9886,224.44 77.9886,214.44 76.5,204.5C 76.6816,201.774 77.1816,199.107 78,196.5C 78.3333,177.5 78.6667,158.5 79,139.5C 79.5406,130.288 84.0406,123.788 92.5,120C 116.443,111.389 132.276,94.8887 140,70.5C 144.073,64.8804 149.573,62.0471 156.5,62C 177.5,61.6667 198.5,61.3333 219.5,61C 226.322,60.0124 230.489,56.1791 232,49.5C 232.333,49.8333 232.667,50.1667 233,50.5C 233.208,48.141 233.374,45.9743 233.5,44C 232.833,43.3333 232.167,42.6667 231.5,42C 236.155,41.5008 240.821,41.3342 245.5,41.5 Z"/></g>
<g><path style="opacity:0.004" fill="#000000" d="M 356.5,62.5 C 358.853,63.3403 360.853,64.6736 362.5,66.5C 359.802,66.1551 357.802,64.8218 356.5,62.5 Z"/></g>
<g><path style="opacity:0.004" fill="#000000" d="M 94.5,63.5 C 93.3406,65.2503 91.674,66.2503 89.5,66.5C 90.6594,64.7497 92.326,63.7497 94.5,63.5 Z"/></g>
<g><path style="opacity:1" fill="#0044c4" d="M 254.5,49.5 C 256.47,64.7608 263.136,77.4274 274.5,87.5C 274.649,88.552 274.483,89.552 274,90.5C 273.333,91.8333 272.667,91.8333 272,90.5C 271.626,91.4162 271.126,92.2496 270.5,93C 261.474,96.5602 253.141,95.2269 245.5,89C 239.309,85.2076 235.309,80.2076 233.5,74C 235.361,67.4415 238.194,61.2749 242,55.5C 245.177,52.667 248.677,50.3337 252.5,48.5C 253.183,48.8627 253.85,49.1961 254.5,49.5 Z"/></g>
<g><path style="opacity:0.004" fill="#00807f" d="M 101.5,65.5 C 100.71,66.7942 99.7101,67.9609 98.5,69C 89.8985,73.9388 81.5652,79.2721 73.5,85C 68.0513,90.0905 63.7179,95.9238 60.5,102.5C 59.8333,102.5 59.1667,102.5 58.5,102.5C 60.1396,98.5591 62.3063,94.8924 65,91.5C 75.9059,80.9727 88.0726,72.306 101.5,65.5 Z"/></g>
<g><path style="opacity:0.004" fill="#000000" d="M 89.5,66.5 C 83.8417,70.6654 77.8417,74.3321 71.5,77.5C 72.7158,75.5491 74.3825,74.0491 76.5,73C 80.5765,70.2951 84.9099,68.1284 89.5,66.5 Z"/></g>
<g><path style="opacity:0.004" fill="#000000" d="M 364.5,67.5 C 367.331,68.0787 369.664,69.412 371.5,71.5C 368.669,70.9213 366.336,69.588 364.5,67.5 Z"/></g>
<g><path style="opacity:0.004" fill="#11807f" d="M 354.5,68.5 C 366.823,73.9788 377.657,81.6455 387,91.5C 397.106,105.817 402.439,121.817 403,139.5C 403.667,168.5 403.667,197.5 403,226.5C 402.12,240.661 400.12,254.661 397,268.5C 388.839,302.509 372.672,331.842 348.5,356.5C 382.443,318.549 400.277,273.882 402,222.5C 402.667,195.833 402.667,169.167 402,142.5C 401.305,132.666 399.639,122.999 397,113.5C 392.646,100.147 384.812,89.3132 373.5,81C 366.759,77.3067 360.426,73.1401 354.5,68.5 Z"/></g>
<g><path style="opacity:0.004" fill="#000000" d="M 371.5,71.5 C 378.544,74.1716 384.211,78.5049 388.5,84.5C 382.975,79.9128 377.308,75.5795 371.5,71.5 Z"/></g>
<g><path style="opacity:0.004" fill="#000000" d="M 71.5,77.5 C 70.0892,79.914 68.0892,81.5806 65.5,82.5C 66.9108,80.086 68.9108,78.4194 71.5,77.5 Z"/></g>
<g><path style="opacity:0.004" fill="#000000" d="M 63.5,84.5 C 54.23,96.3724 48.23,109.706 45.5,124.5C 46.6566,108.863 52.6566,95.5296 63.5,84.5 Z"/></g>
<g><path style="opacity:0.004" fill="#000000" d="M 389.5,85.5 C 391.587,86.5846 392.92,88.2512 393.5,90.5C 391.413,89.4154 390.08,87.7488 389.5,85.5 Z"/></g>
<g><path style="opacity:0.004" fill="#000000" d="M 393.5,90.5 C 396.164,92.4844 397.831,95.1511 398.5,98.5C 396.336,96.178 394.669,93.5113 393.5,90.5 Z"/></g>
<g><path style="opacity:0.341" fill="#4c94d0" d="M 238.5,416.5 C 222.5,416.5 206.5,416.5 190.5,416.5C 165.349,401.751 141.349,385.251 118.5,367C 81.4429,333.722 60.1095,292.222 54.5,242.5C 52.7351,210.531 52.0685,178.531 52.5,146.5C 53.3304,137.358 54.997,128.358 57.5,119.5C 57.7935,123.437 57.4601,127.27 56.5,131C 57.4216,164.19 57.9216,197.356 58,230.5C 58.3333,229.167 58.6667,227.833 59,226.5C 62.0078,246.702 68.8412,265.368 79.5,282.5C 83.8201,289.79 88.6534,296.79 94,303.5C 98.7387,308.744 103.905,313.41 109.5,317.5C 113.241,321.218 117.241,324.718 121.5,328C 136.053,337.77 150.72,347.27 165.5,356.5C 172.257,361.724 179.257,366.724 186.5,371.5C 213.181,353.827 239.515,335.66 265.5,317C 297.462,287.57 314.129,251.07 315.5,207.5C 316.498,172.671 316.832,137.671 316.5,102.5C 300.414,103.029 286.414,98.029 274.5,87.5C 263.136,77.4274 256.47,64.7608 254.5,49.5C 254.5,48.8333 254.5,48.1667 254.5,47.5C 254.5,45.1667 254.5,42.8333 254.5,40.5C 226.833,40.5 199.167,40.5 171.5,40.5C 169.372,39.7195 169.205,38.7195 171,37.5C 172.518,37.0574 173.685,37.7241 174.5,39.5C 174.911,38.7376 175.077,37.7376 175,36.5C 176.398,37.0509 177.732,37.3842 179,37.5C 179.374,36.5838 179.874,35.7504 180.5,35C 179.262,35.0773 178.262,34.9106 177.5,34.5C 178.736,33.6433 180.069,32.9766 181.5,32.5C 182.748,34.4586 184.415,35.9586 186.5,37C 189.547,37.5798 189.881,37.2465 187.5,36C 189.839,33.4503 189.172,32.9503 185.5,34.5C 184.738,33.3717 184.071,32.2051 183.5,31C 181.167,31.3333 178.833,31.6667 176.5,32C 177.02,30.1125 178.686,28.7792 181.5,28C 179.57,26.4336 176.903,25.267 173.5,24.5C 172.494,23.6043 172.494,22.9377 173.5,22.5C 177.975,23.388 181.308,25.7213 183.5,29.5C 187.061,28.2393 190.728,27.406 194.5,27C 191.833,26.6667 189.167,26.3333 186.5,26C 187.5,25.6667 188.5,25.3333 189.5,25C 186.447,24.8214 183.447,24.3214 180.5,23.5C 179.494,22.6043 179.494,21.9377 180.5,21.5C 186.915,22.6828 193.248,24.1828 199.5,26C 196.785,27.9078 193.785,29.2411 190.5,30C 192.087,30.8624 193.754,31.5291 195.5,32C 193.833,32.3333 192.167,32.6667 190.5,33C 194.469,33.8527 198.469,34.5193 202.5,35C 218.167,35.6667 233.833,35.6667 249.5,35C 254.693,34.3289 259.86,33.4956 265,32.5C 265.833,32.8333 266.667,33.1667 267.5,33.5C 265.507,35.4986 263.173,36.9986 260.5,38C 261.167,38.3333 261.833,38.6667 262.5,39C 258.614,39.5785 258.614,40.4119 262.5,41.5C 264.126,37.3753 267.126,34.8753 271.5,34C 269.109,33.3086 269.109,32.3086 271.5,31C 269.789,29.8668 269.289,28.3668 270,26.5C 272.304,24.9315 274.804,23.7648 277.5,23C 272.53,23.4323 267.53,24.099 262.5,25C 263.5,25.3333 264.5,25.6667 265.5,26C 262.833,26.3333 260.167,26.6667 257.5,27C 259.5,27.3333 261.5,27.6667 263.5,28C 259.467,29.0404 255.801,28.3737 252.5,26C 260.345,23.6974 268.345,22.0307 276.5,21C 275.333,20.8333 274.167,20.6667 273,20.5C 247.366,23.5179 220.866,24.3512 193.5,23C 193.833,22.6667 194.167,22.3333 194.5,22C 186.74,21.5826 179.073,20.5826 171.5,19C 172.167,18.8333 172.833,18.6667 173.5,18.5C 176.797,19.4959 180.131,19.6626 183.5,19C 181.5,18.6667 179.5,18.3333 177.5,18C 209.833,18.6667 242.167,18.6667 274.5,18C 272.5,18.3333 270.5,18.6667 268.5,19C 272.853,19.245 277.187,19.245 281.5,19C 276.492,19.8693 276.825,20.5359 282.5,21C 276.885,24.5249 277.218,25.6915 283.5,24.5C 283.5,23.5 283.5,22.5 283.5,21.5C 287.891,21.8516 292.224,22.3516 296.5,23C 299.167,23.6667 299.167,24.3333 296.5,25C 299.618,26.0587 302.618,27.3921 305.5,29C 308.573,31.8717 311.906,33.5383 315.5,34C 316.634,35.016 316.301,35.6827 314.5,36C 316,37.5 317.5,39 319,40.5C 319.333,39.8333 319.667,39.1667 320,38.5C 321.833,41 323.667,43.5 325.5,46C 324.549,46.7175 324.383,47.5509 325,48.5C 326.016,49.6341 326.683,49.3008 327,47.5C 327.419,48.6721 328.085,49.6721 329,50.5C 330.294,51.8544 330.46,53.1877 329.5,54.5C 330.467,56.6297 331.634,58.6297 333,60.5C 334.135,60.727 335.302,61.0604 336.5,61.5C 337.666,64.0745 339.333,66.2411 341.5,68C 340.289,68.8928 340.289,69.7261 341.5,70.5C 343.117,70.6694 344.784,71.0028 346.5,71.5C 347.841,73.8342 347.174,75.5009 344.5,76.5C 343.084,74.8608 341.417,74.0275 339.5,74C 340.688,76.911 342.522,78.411 345,78.5C 346.419,77.5399 347.919,76.7065 349.5,76C 348.304,75.3457 348.304,74.8457 349.5,74.5C 352.663,76.9157 355.996,79.0823 359.5,81C 360.634,82.016 360.301,82.6827 358.5,83C 361.199,85.5098 364.199,87.1765 367.5,88C 366.304,87.3457 366.304,86.8457 367.5,86.5C 368.364,88.1965 369.697,89.3632 371.5,90C 370.833,90.3333 370.167,90.6667 369.5,91C 371.05,93.459 373.05,94.1257 375.5,93C 378.603,95.6918 380.103,98.8585 380,102.5C 381.016,103.634 381.683,103.301 382,101.5C 383.294,102.854 383.46,104.188 382.5,105.5C 384.607,109.381 386.441,113.381 388,117.5C 388.333,116.833 388.667,116.167 389,115.5C 392.273,121.47 393.273,127.803 392,134.5C 392.333,133.167 392.667,131.833 393,130.5C 393.167,131.333 393.333,132.167 393.5,133C 392.545,136.471 392.378,139.971 393,143.5C 393.333,141.5 393.667,139.5 394,137.5C 393.193,167.49 393.36,197.49 394.5,227.5C 394.333,229.167 394.167,230.833 394,232.5C 392.702,226.228 391.702,219.894 391,213.5C 390.683,211.699 390.016,211.366 389,212.5C 388.776,218.904 389.109,225.237 390,231.5C 389.586,231.043 389.086,230.709 388.5,230.5C 387.675,226.878 387.175,223.211 387,219.5C 386.333,222.167 385.667,224.833 385,227.5C 384.667,226.833 384.333,226.167 384,225.5C 382.56,226.93 382.226,228.597 383,230.5C 384.587,229.273 385.921,229.606 387,231.5C 387.834,234.172 388.668,236.839 389.5,239.5C 388.675,240.386 387.675,240.719 386.5,240.5C 386.663,238.143 386.497,235.81 386,233.5C 385.357,235.93 383.857,237.597 381.5,238.5C 385.936,240.376 388.103,243.709 388,248.5C 386.129,247.003 385.129,245.003 385,242.5C 384.044,243.579 383.211,244.745 382.5,246C 384.718,247.721 386.385,249.888 387.5,252.5C 388.192,251.975 388.692,251.308 389,250.5C 390.146,242.854 391.146,235.187 392,227.5C 392.834,232.161 393.168,236.828 393,241.5C 392.667,239.833 392.333,238.167 392,236.5C 391.337,239.869 391.504,243.203 392.5,246.5C 392.333,247.167 392.167,247.833 392,248.5C 391.667,247.5 391.333,246.5 391,245.5C 390.438,247.866 390.604,250.199 391.5,252.5C 391.333,253.167 391.167,253.833 391,254.5C 390.351,251.063 389.851,250.896 389.5,254C 390.967,257.604 390.8,261.104 389,264.5C 388.667,263.5 388.333,262.5 388,261.5C 387.833,262.167 387.667,262.833 387.5,263.5C 388.396,265.801 388.562,268.134 388,270.5C 386.984,271.634 386.317,271.301 386,269.5C 385.504,271.035 385.67,272.535 386.5,274C 386.056,275.762 385.556,275.595 385,273.5C 386.099,277.449 385.432,281.115 383,284.5C 382.667,283.833 382.333,283.167 382,282.5C 380.783,284.52 380.617,286.52 381.5,288.5C 381.154,289.696 380.654,289.696 380,288.5C 378.505,290.11 378.339,291.776 379.5,293.5C 379.154,294.696 378.654,294.696 378,293.5C 376.622,298.784 375.289,298.784 374,293.5C 373.257,295.645 372.424,295.811 371.5,294C 372.452,292.7 372.452,291.533 371.5,290.5C 370.138,292.012 369.804,293.512 370.5,295C 369.5,295.333 368.5,295.667 367.5,296C 369.878,296.974 369.544,297.641 366.5,298C 368.878,298.974 368.544,299.641 365.5,300C 367.878,300.974 367.544,301.641 364.5,302C 366.878,302.974 366.544,303.641 363.5,304C 365.878,304.974 365.544,305.641 362.5,306C 364.116,306.615 365.449,307.615 366.5,309C 364.339,310.764 364.172,312.597 366,314.5C 366.465,313.069 367.299,311.903 368.5,311C 367.978,310.439 367.645,309.772 367.5,309C 368.864,305.773 370.364,302.606 372,299.5C 372.333,300.167 372.667,300.833 373,301.5C 373.984,299.205 374.817,299.539 375.5,302.5C 375.154,303.696 374.654,303.696 374,302.5C 371.083,313.188 365.75,322.855 358,331.5C 356.207,330.619 355.54,331.286 356,333.5C 356.654,332.304 357.154,332.304 357.5,333.5C 356.11,335.203 354.61,335.87 353,335.5C 352.383,336.449 352.549,337.282 353.5,338C 351.951,339.214 350.785,340.714 350,342.5C 349.125,340.487 347.791,340.487 346,342.5C 345.981,346.314 344.314,349.647 341,352.5C 340.667,351.833 340.333,351.167 340,350.5C 338.5,352 337,353.5 335.5,355C 336.167,355.333 336.833,355.667 337.5,356C 334.035,358.463 330.869,361.296 328,364.5C 326.401,362.964 324.567,362.464 322.5,363C 323.551,364.385 324.884,365.385 326.5,366C 323.329,368.341 320.329,370.841 317.5,373.5C 316.304,373.154 316.304,372.654 317.5,372C 316.833,371.333 316.167,371.333 315.5,372C 315.456,374.942 313.789,377.109 310.5,378.5C 309.549,377.674 308.549,377.508 307.5,378C 307.5,379 307.5,380 307.5,381C 306.167,381 304.833,381 303.5,381C 303.833,381.333 304.167,381.667 304.5,382C 301.444,385.018 298.11,387.684 294.5,390C 293.5,389.667 292.5,389.333 291.5,389C 291.619,390.281 291.119,391.448 290,392.5C 289.586,392.043 289.086,391.709 288.5,391.5C 288.704,392.529 288.204,393.529 287,394.5C 286.282,393.549 285.449,393.383 284.5,394C 285.654,394.914 285.487,395.747 284,396.5C 282.16,395.167 281.66,395.334 282.5,397C 281.428,398.284 280.095,398.617 278.5,398C 279.654,398.914 279.487,399.747 278,400.5C 274.345,398.276 272.678,395.276 273,391.5C 272.333,392.833 271.667,394.167 271,395.5C 270.026,393.122 269.359,393.456 269,396.5C 267.442,395.655 266.442,396.321 266,398.5C 264.333,396.833 262.667,395.167 261,393.5C 260.3,395.032 259.134,396.032 257.5,396.5C 256.571,397.689 256.238,399.022 256.5,400.5C 257.552,400.351 258.552,400.517 259.5,401C 257.779,401.739 256.113,402.573 254.5,403.5C 254.833,403.833 255.167,404.167 255.5,404.5C 258.167,403.167 260.833,401.833 263.5,400.5C 264.167,401.167 264.833,401.833 265.5,402.5C 266.833,401.167 268.167,401.167 269.5,402.5C 271.319,400.089 273.319,399.922 275.5,402C 272.834,404.335 269.834,406.169 266.5,407.5C 264.644,406.724 263.311,405.391 262.5,403.5C 260.833,404.333 259.167,405.167 257.5,406C 259.725,406.561 261.725,407.561 263.5,409C 260.093,411.571 256.426,412.571 252.5,412C 253.167,412.333 253.833,412.667 254.5,413C 250.667,415.729 246.667,416.062 242.5,414C 244.813,413.338 247.146,412.838 249.5,412.5C 249.778,410.654 249.111,409.32 247.5,408.5C 247.089,409.262 246.923,410.262 247,411.5C 246,410.833 245,410.167 244,409.5C 243.323,411.689 242.156,412.022 240.5,410.5C 240.002,411.603 239.669,412.603 239.5,413.5C 235.144,411.659 230.644,410.325 226,409.5C 221.728,410.257 217.561,411.424 213.5,413C 219.812,412.644 226.145,412.644 232.5,413C 234.595,413.556 234.762,414.056 233,414.5C 229.211,413.438 225.377,413.271 221.5,414C 227.2,415.101 232.866,415.268 238.5,414.5C 239.463,414.97 239.463,415.637 238.5,416.5 Z"/></g>
<g><path style="opacity:1" fill="#cce3f8" d="M 191.5,94.5 C 191.666,100.509 191.499,106.509 191,112.5C 188,116.5 185,116.5 182,112.5C 181.249,106.116 181.416,99.783 182.5,93.5C 185.778,91.8933 188.778,92.2267 191.5,94.5 Z"/></g>
<g><path style="opacity:0.004" fill="#000000" d="M 398.5,98.5 C 402.255,104.585 404.755,111.252 406,118.5C 407.822,127.072 408.655,135.739 408.5,144.5C 407.613,128.74 404.28,113.407 398.5,98.5 Z"/></g>
<g><path style="opacity:0.008" fill="#55aaa9" d="M 387.5,100.5 C 389.81,103.102 391.643,106.102 393,109.5C 397.536,121.418 399.703,133.752 399.5,146.5C 398.653,130.45 394.653,115.117 387.5,100.5 Z"/></g>
<g><path style="opacity:0.004" fill="#15807f" d="M 57.5,104.5 C 57.5,105.833 57.5,107.167 57.5,108.5C 53.0446,119.263 50.5446,130.597 50,142.5C 49.11,173.186 49.4433,203.852 51,234.5C 53.5531,263.384 61.3864,290.717 74.5,316.5C 60.647,292.098 52.4804,265.764 50,237.5C 48.4367,205.186 48.1034,172.852 49,140.5C 49.4988,127.817 52.3322,115.817 57.5,104.5 Z"/></g>
<g><path style="opacity:0.004" fill="#787af3" d="M 57.5,108.5 C 57.702,110.95 57.3686,113.283 56.5,115.5C 53.8588,125.656 52.5255,135.989 52.5,146.5C 51.3368,170.33 51.1702,194.33 52,218.5C 52.2418,226.71 53.0751,234.71 54.5,242.5C 60.1095,292.222 81.4429,333.722 118.5,367C 141.349,385.251 165.349,401.751 190.5,416.5C 188.833,416.5 187.167,416.5 185.5,416.5C 167.902,405.568 150.568,394.234 133.5,382.5C 132.738,380.738 131.404,379.738 129.5,379.5C 118.259,369.763 107.426,359.43 97,348.5C 88.8588,338.207 81.3588,327.541 74.5,316.5C 61.3864,290.717 53.5531,263.384 51,234.5C 49.4433,203.852 49.11,173.186 50,142.5C 50.5446,130.597 53.0446,119.263 57.5,108.5 Z"/></g>
<g><path style="opacity:1" fill="#c9e0f6" d="M 235.5,105.5 C 237.858,105.253 239.858,105.919 241.5,107.5C 242.511,109.402 242.678,111.402 242,113.5C 239.29,117.753 236.457,121.92 233.5,126C 228.057,127.873 225.557,126.04 226,120.5C 228.678,115.134 231.844,110.134 235.5,105.5 Z"/></g>
<g><path style="opacity:0.008" fill="#55aaa9" d="M 56.5,115.5 C 57.4345,116.568 57.7678,117.901 57.5,119.5C 54.997,128.358 53.3304,137.358 52.5,146.5C 52.5255,135.989 53.8588,125.656 56.5,115.5 Z"/></g>
<g><path style="opacity:1" fill="#cce2f7" d="M 135.5,105.5 C 138.675,105.84 140.841,107.507 142,110.5C 143.413,113.661 145.08,116.661 147,119.5C 147.993,125.502 145.493,127.668 139.5,126C 135.324,121.151 132.658,115.651 131.5,109.5C 131.894,107.29 133.227,105.957 135.5,105.5 Z"/></g>
<g><path style="opacity:1" fill="#0135b7" d="M 315.5,207.5 C 314.129,251.07 297.462,287.57 265.5,317C 239.515,335.66 213.181,353.827 186.5,371.5C 179.257,366.724 172.257,361.724 165.5,356.5C 165.798,349.911 168.798,344.411 174.5,340C 193.105,327.781 211.272,314.948 229,301.5C 229.333,299.5 229.667,297.5 230,295.5C 231,297.5 232,299.5 233,301.5C 233.464,300.906 233.631,300.239 233.5,299.5C 234.735,299.279 235.735,298.612 236.5,297.5C 241.04,299.377 244.206,298.043 246,293.5C 246.182,290.774 246.682,288.107 247.5,285.5C 249.029,286.763 250.695,287.763 252.5,288.5C 253.627,289.122 254.627,289.955 255.5,291C 253.545,291.953 251.878,293.287 250.5,295C 251.167,295.667 251.833,296.333 252.5,297C 249.86,301.634 246.527,305.634 242.5,309C 226.183,321.159 209.516,332.826 192.5,344C 189,346.167 186.167,349 184,352.5C 182.72,357.947 184.887,360.614 190.5,360.5C 195.624,359.888 200.29,358.055 204.5,355C 223.443,342.39 242.109,329.39 260.5,316C 295.18,284.815 312.513,245.982 312.5,199.5C 312.476,177.886 312.476,156.386 312.5,135C 310.681,132.944 310.015,130.777 310.5,128.5C 304.421,122.934 300.254,124.267 298,132.5C 297.827,152.406 297.327,172.24 296.5,192C 296.833,192.333 297.167,192.667 297.5,193C 295.482,193.505 293.482,194.005 291.5,194.5C 290.292,193.766 288.959,193.433 287.5,193.5C 288.768,192.213 288.435,191.213 286.5,190.5C 287.637,181.882 287.804,173.215 287,164.5C 286.228,163.151 285.061,162.318 283.5,162C 289.903,156.821 289.903,151.821 283.5,147C 284.833,146.333 284.833,145.667 283.5,145C 281.866,144.506 280.199,144.34 278.5,144.5C 280.291,143.213 281.957,141.713 283.5,140C 284.269,134.204 284.769,128.371 285,122.5C 287.975,115.36 293.142,110.36 300.5,107.5C 303.32,107.654 306.154,107.654 309,107.5C 310.753,108.627 312.587,109.627 314.5,110.5C 315.5,142.826 315.833,175.16 315.5,207.5 Z"/></g>
<g><path style="opacity:0.004" fill="#000000" d="M 45.5,124.5 C 45.2646,131.354 44.5979,138.021 43.5,144.5C 43.2073,137.595 43.874,130.928 45.5,124.5 Z"/></g>
<g><path style="opacity:1" fill="#0027ac" d="M 252.5,288.5 C 258.529,282.961 263.696,276.628 268,269.5C 268.966,265.882 268.466,262.549 266.5,259.5C 267.729,258.719 269.062,258.219 270.5,258C 268.689,255.529 267.022,253.029 265.5,250.5C 268.09,251.128 270.423,252.295 272.5,254C 276.459,254.718 278.792,253.051 279.5,249C 279.478,246.817 278.478,245.317 276.5,244.5C 279.329,242.955 281.496,240.622 283,237.5C 284.962,231.161 286.462,224.995 287.5,219C 286.743,217.488 285.743,216.154 284.5,215C 287.544,214.641 287.878,213.974 285.5,213C 288.544,212.641 288.878,211.974 286.5,211C 293.832,210.463 296.166,206.963 293.5,200.5C 293.747,198.142 293.081,196.142 291.5,194.5C 293.482,194.005 295.482,193.505 297.5,193C 297.167,192.667 296.833,192.333 296.5,192C 297.327,172.24 297.827,152.406 298,132.5C 300.254,124.267 304.421,122.934 310.5,128.5C 310.015,130.777 310.681,132.944 312.5,135C 312.476,156.386 312.476,177.886 312.5,199.5C 312.513,245.982 295.18,284.815 260.5,316C 242.109,329.39 223.443,342.39 204.5,355C 200.29,358.055 195.624,359.888 190.5,360.5C 184.887,360.614 182.72,357.947 184,352.5C 186.167,349 189,346.167 192.5,344C 209.516,332.826 226.183,321.159 242.5,309C 246.527,305.634 249.86,301.634 252.5,297C 251.833,296.333 251.167,295.667 250.5,295C 251.878,293.287 253.545,291.953 255.5,291C 254.627,289.955 253.627,289.122 252.5,288.5 Z"/></g>
<g><path style="opacity:0.008" fill="#55aaa9" d="M 52.5,146.5 C 52.0685,178.531 52.7351,210.531 54.5,242.5C 53.0751,234.71 52.2418,226.71 52,218.5C 51.1702,194.33 51.3368,170.33 52.5,146.5 Z"/></g>
<g><path style="opacity:0.008" fill="#55aaa9" d="M 399.5,146.5 C 400.663,170.663 400.83,194.997 400,219.5C 399.758,227.71 398.925,235.71 397.5,243.5C 399.268,211.198 399.935,178.864 399.5,146.5 Z"/></g>
<g><path style="opacity:1" fill="#dcebfa" d="M 97.5,142.5 C 103.048,144.607 108.381,147.274 113.5,150.5C 116.335,153.671 116.002,156.504 112.5,159C 110.833,159.667 109.167,159.667 107.5,159C 103.582,156.123 99.4153,153.623 95,151.5C 93.3883,149.544 93.2216,147.544 94.5,145.5C 95.3065,144.272 96.3065,143.272 97.5,142.5 Z"/></g>
<g><path style="opacity:1" fill="#cbe0f6" d="M 278.5,144.5 C 279.11,145.391 279.443,146.391 279.5,147.5C 279.703,149.39 279.037,150.89 277.5,152C 272.495,155.337 267.162,157.837 261.5,159.5C 257.905,156.576 257.572,153.243 260.5,149.5C 264.606,147.612 268.606,145.446 272.5,143C 274.84,142.252 276.84,142.752 278.5,144.5 Z"/></g>
<g><path style="opacity:1" fill="#0244ba" d="M 182.5,93.5 C 181.416,99.783 181.249,106.116 182,112.5C 185,116.5 188,116.5 191,112.5C 191.499,106.509 191.666,100.509 191.5,94.5C 193.288,93.3775 195.288,93.2109 197.5,94C 201.698,98.2723 203.698,103.439 203.5,109.5C 202.64,113.415 202.64,117.248 203.5,121C 202.415,123.172 201.081,125.172 199.5,127C 196.991,128.421 194.657,130.088 192.5,132C 198.032,135.255 204.032,137.755 210.5,139.5C 212.478,140.131 214.645,140.131 217,139.5C 218.775,142.044 220.608,142.044 222.5,139.5C 222.38,134.79 221.88,130.123 221,125.5C 223.221,122.065 225.221,118.399 227,114.5C 227.91,108.417 230.743,105.417 235.5,105.5C 231.844,110.134 228.678,115.134 226,120.5C 225.557,126.04 228.057,127.873 233.5,126C 236.457,121.92 239.29,117.753 242,113.5C 242.678,111.402 242.511,109.402 241.5,107.5C 251.205,107.467 254.705,112.467 252,122.5C 250.686,125.089 250.019,127.756 250,130.5C 250.414,130.957 250.914,131.291 251.5,131.5C 253.316,130.185 254.983,128.685 256.5,127C 257.167,126.333 257.833,126.333 258.5,127C 255.5,130 252.5,133 249.5,136C 248.451,136.492 247.451,136.326 246.5,135.5C 245.059,136.865 243.726,138.365 242.5,140C 239.338,141.5 236.338,142.5 233.5,143C 235.891,143.691 235.891,144.691 233.5,146C 239.23,149.062 244.397,152.896 249,157.5C 250.61,157.87 252.11,157.203 253.5,155.5C 255.165,153.581 256.165,151.748 256.5,150C 257.793,149.51 259.127,149.343 260.5,149.5C 257.572,153.243 257.905,156.576 261.5,159.5C 261.18,165.997 264.18,168.164 270.5,166C 274.949,164.688 279.116,162.854 283,160.5C 287.14,154.639 285.973,150.305 279.5,147.5C 279.443,146.391 279.11,145.391 278.5,144.5C 280.199,144.34 281.866,144.506 283.5,145C 284.833,145.667 284.833,146.333 283.5,147C 289.903,151.821 289.903,156.821 283.5,162C 285.061,162.318 286.228,163.151 287,164.5C 287.804,173.215 287.637,181.882 286.5,190.5C 288.435,191.213 288.768,192.213 287.5,193.5C 282.489,193.334 277.489,193.501 272.5,194C 269.833,197 269.833,200 272.5,203C 278.5,203.667 284.5,203.667 290.5,203C 291.373,201.955 292.373,201.122 293.5,200.5C 296.166,206.963 293.832,210.463 286.5,211C 288.878,211.974 288.544,212.641 285.5,213C 287.878,213.974 287.544,214.641 284.5,215C 285.743,216.154 286.743,217.488 287.5,219C 286.462,224.995 284.962,231.161 283,237.5C 281.496,240.622 279.329,242.955 276.5,244.5C 272.861,242.345 269.194,240.178 265.5,238C 259.839,237.333 257.672,239.833 259,245.5C 261.326,247.066 263.492,248.732 265.5,250.5C 267.022,253.029 268.689,255.529 270.5,258C 269.062,258.219 267.729,258.719 266.5,259.5C 268.466,262.549 268.966,265.882 268,269.5C 263.696,276.628 258.529,282.961 252.5,288.5C 250.695,287.763 249.029,286.763 247.5,285.5C 246.682,288.107 246.182,290.774 246,293.5C 244.206,298.043 241.04,299.377 236.5,297.5C 235.735,298.612 234.735,299.279 233.5,299.5C 231.421,295.672 229.588,291.672 228,287.5C 227.211,285.288 227.378,283.288 228.5,281.5C 230.153,285.789 232.987,289.122 237,291.5C 241.586,290.592 243.252,287.926 242,283.5C 239.123,279.582 236.623,275.415 234.5,271C 226.552,269.423 224.219,272.256 227.5,279.5C 225.932,281.811 225.098,284.478 225,287.5C 224.138,285.913 223.471,284.246 223,282.5C 222.5,283 222,283.5 221.5,284C 222.5,285.667 223.5,287.333 224.5,289C 223.552,289.483 222.552,289.649 221.5,289.5C 221.205,280.887 217.538,278.72 210.5,283C 211.752,287.167 213.085,291.334 214.5,295.5C 214.167,295.833 213.833,296.167 213.5,296.5C 211.568,292.704 210.235,288.704 209.5,284.5C 206.486,282.92 204.486,283.753 203.5,287C 205.292,294.501 205.459,301.668 204,308.5C 203.946,303.321 203.279,298.321 202,293.5C 202.303,297.115 202.47,300.615 202.5,304C 201.446,306.382 200.779,308.882 200.5,311.5C 187.363,318.254 180.363,314.088 179.5,299C 179.667,296.833 179.833,294.667 180,292.5C 180.278,291.584 180.778,290.918 181.5,290.5C 181.335,294.182 181.501,297.848 182,301.5C 184.528,305.085 187.528,305.418 191,302.5C 191.667,296.5 191.667,290.5 191,284.5C 187.936,280.778 184.77,280.778 181.5,284.5C 180.683,282.692 181.35,281.192 183.5,280C 174.495,277.333 165.662,274.166 157,270.5C 156.5,271.667 155.667,272.5 154.5,273C 158.435,283.261 156.102,292.261 147.5,300C 135.837,305.339 129.503,301.672 128.5,289C 129.053,287.122 130.053,285.622 131.5,284.5C 130.483,288.789 132.15,291.122 136.5,291.5C 139.104,290.731 140.938,289.064 142,286.5C 143.992,282.684 145.826,278.851 147.5,275C 146.859,271.078 144.525,269.578 140.5,270.5C 142.631,269.686 144.964,269.186 147.5,269C 148.357,268.311 149.023,267.478 149.5,266.5C 142.19,260.023 135.357,253.023 129,245.5C 127.739,245.759 126.739,246.426 126,247.5C 123.523,253.446 120.689,259.113 117.5,264.5C 114.231,264.884 111.397,266.218 109,268.5C 105.35,268.099 101.517,267.266 97.5,266C 91.4216,261.144 90.0883,255.311 93.5,248.5C 93.7653,251.711 95.432,253.711 98.5,254.5C 104.322,252.339 109.655,249.339 114.5,245.5C 116.32,241.308 114.987,238.641 110.5,237.5C 105.351,239.907 100.351,242.574 95.5,245.5C 96.4101,242.318 98.4101,239.985 101.5,238.5C 105.699,236.581 110.366,234.914 115.5,233.5C 115.987,232.554 116.32,231.554 116.5,230.5C 115.509,226.869 114.676,223.202 114,219.5C 113.333,218.167 112.667,218.167 112,219.5C 111.517,218.552 111.351,217.552 111.5,216.5C 102.404,219.811 93.4037,219.144 84.5,214.5C 84.0618,214.565 83.7284,214.399 83.5,214C 84.1667,213.667 84.8333,213.333 85.5,213C 82.3689,210.216 81.0355,206.716 81.5,202.5C 87.752,203.624 94.0853,203.79 100.5,203C 104.482,199.952 104.482,196.952 100.5,194C 96.1794,193.501 91.8461,193.334 87.5,193.5C 89.2774,192.4 91.2774,191.566 93.5,191C 97.275,190.782 100.942,190.616 104.5,190.5C 105.192,191.025 105.692,191.692 106,192.5C 108.316,191.633 110.316,192.299 112,194.5C 112.684,193.216 112.517,192.049 111.5,191C 112.428,190.612 113.095,189.945 113.5,189C 114.423,185.472 115.423,181.972 116.5,178.5C 115.975,177.808 115.308,177.308 114.5,177C 115.672,176.581 116.672,175.915 117.5,175C 114.833,174.667 112.167,174.333 109.5,174C 105.244,172.263 101.077,169.763 97,166.5C 96.6667,166.833 96.3333,167.167 96,167.5C 91.7038,161.155 90.3705,154.155 92,146.5C 92.6708,145.748 93.5041,145.414 94.5,145.5C 93.2216,147.544 93.3883,149.544 95,151.5C 99.4153,153.623 103.582,156.123 107.5,159C 109.167,159.667 110.833,159.667 112.5,159C 116.002,156.504 116.335,153.671 113.5,150.5C 108.381,147.274 103.048,144.607 97.5,142.5C 97.7828,141.711 98.2828,141.044 99,140.5C 101.935,140.607 104.935,140.607 108,140.5C 112.524,142.219 117.024,144.719 121.5,148C 123.019,149.351 124.352,150.851 125.5,152.5C 126.833,153.833 128.167,153.833 129.5,152.5C 131.748,149.672 133.748,146.672 135.5,143.5C 134.098,142.158 134.431,141.324 136.5,141C 132.607,134.815 129.273,128.815 126.5,123C 127.052,120.175 127.552,117.008 128,113.5C 128.66,111.676 129.827,110.343 131.5,109.5C 132.658,115.651 135.324,121.151 139.5,126C 145.493,127.668 147.993,125.502 147,119.5C 145.08,116.661 143.413,113.661 142,110.5C 140.841,107.507 138.675,105.84 135.5,105.5C 138.228,104.795 141.061,104.128 144,103.5C 151.555,108.569 157.055,115.403 160.5,124C 164.936,126.686 169.769,128.186 175,128.5C 175.667,127.833 176.333,127.167 177,126.5C 176.973,127.788 177.973,128.788 180,129.5C 180.458,126.904 179.625,124.737 177.5,123C 177.833,122.667 178.167,122.333 178.5,122C 176.996,120.663 175.996,118.996 175.5,117C 175.55,112.061 175.55,107.061 175.5,102C 176.558,99.368 177.891,96.5346 179.5,93.5C 180.5,93.5 181.5,93.5 182.5,93.5 Z"/></g>
<g><path style="opacity:1" fill="#024bc1" d="M 192.5,142.5 C 212.307,146.044 226.807,157.377 236,176.5C 244.496,203.051 237.663,224.551 215.5,241C 202.202,248.537 188.202,250.37 173.5,246.5C 163.96,238.94 156.96,229.44 152.5,218C 152.422,212.036 152.589,205.869 153,199.5C 154.427,194.878 156.427,190.545 159,186.5C 169.007,179.16 177.674,170.493 185,160.5C 187.707,155.064 186.873,150.397 182.5,146.5C 183.343,144.827 184.676,143.66 186.5,143C 177.787,141.548 169.12,139.881 160.5,138C 159.584,137.722 158.918,137.222 158.5,136.5C 161.325,136.242 164.158,135.908 167,135.5C 175.682,137.567 184.182,139.9 192.5,142.5 Z"/></g>
<g><path style="opacity:1" fill="#01309a" d="M 279.5,147.5 C 285.973,150.305 287.14,154.639 283,160.5C 279.116,162.854 274.949,164.688 270.5,166C 264.18,168.164 261.18,165.997 261.5,159.5C 267.162,157.837 272.495,155.337 277.5,152C 279.037,150.89 279.703,149.39 279.5,147.5 Z"/></g>
<g><path style="opacity:1" fill="#e5f0fc" d="M 158.5,136.5 C 158.918,137.222 159.584,137.722 160.5,138C 169.12,139.881 177.787,141.548 186.5,143C 184.676,143.66 183.343,144.827 182.5,146.5C 180.668,147.248 179.001,148.248 177.5,149.5C 171.789,148.005 166.122,148.171 160.5,150C 153.652,157.015 146.652,163.848 139.5,170.5C 131.54,186.648 130.54,202.982 136.5,219.5C 138.149,220.648 139.649,221.981 141,223.5C 142.145,223.381 143.312,223.048 144.5,222.5C 151.121,234.116 160.788,242.116 173.5,246.5C 188.202,250.37 202.202,248.537 215.5,241C 237.663,224.551 244.496,203.051 236,176.5C 226.807,157.377 212.307,146.044 192.5,142.5C 213.758,144.435 229.424,154.768 239.5,173.5C 245.26,185.495 247.093,198.161 245,211.5C 243.06,221.043 239.227,229.709 233.5,237.5C 214.206,259.109 190.539,265.609 162.5,257C 152.904,252.893 144.57,247.06 137.5,239.5C 129.147,229.133 123.813,217.466 121.5,204.5C 119.997,178.845 129.331,158.179 149.5,142.5C 147.748,139.328 145.748,136.328 143.5,133.5C 143.833,133.167 144.167,132.833 144.5,132.5C 148.891,134.853 153.558,136.187 158.5,136.5 Z"/></g>
<g><path style="opacity:1" fill="#004dca" d="M 201.5,167.5 C 208.356,167.165 214.189,169.832 219,175.5C 233.121,192.424 233.454,209.757 220,227.5C 206.631,239.032 192.464,240.198 177.5,231C 165.799,220.926 163.299,209.093 170,195.5C 180.084,185.576 190.584,176.243 201.5,167.5 Z"/></g>
<g><path style="opacity:1" fill="#0447b7" d="M 239.5,173.5 C 247.364,177.433 252.531,183.767 255,192.5C 263.142,222.784 254.309,247.284 228.5,266C 187.626,284.657 154.792,275.824 130,239.5C 124.052,228.592 121.218,216.926 121.5,204.5C 123.813,217.466 129.147,229.133 137.5,239.5C 145.584,252.916 157.25,262.082 172.5,267C 197.962,273.53 219.128,267.364 236,248.5C 239.527,244.543 240.861,240.21 240,235.5C 238.103,237.016 235.936,237.683 233.5,237.5C 239.227,229.709 243.06,221.043 245,211.5C 247.093,198.161 245.26,185.495 239.5,173.5 Z"/></g>
<g><path style="opacity:1" fill="#05409f" d="M 182.5,146.5 C 186.873,150.397 187.707,155.064 185,160.5C 177.674,170.493 169.007,179.16 159,186.5C 156.427,190.545 154.427,194.878 153,199.5C 152.589,205.869 152.422,212.036 152.5,218C 156.96,229.44 163.96,238.94 173.5,246.5C 160.788,242.116 151.121,234.116 144.5,222.5C 135.225,201.626 138.392,182.959 154,166.5C 154.333,169.167 154.667,171.833 155,174.5C 161.284,165.051 168.784,156.717 177.5,149.5C 179.001,148.248 180.668,147.248 182.5,146.5 Z"/></g>
<g><path style="opacity:1" fill="#cfe4f8" d="M 177.5,149.5 C 168.784,156.717 161.284,165.051 155,174.5C 154.667,171.833 154.333,169.167 154,166.5C 138.392,182.959 135.225,201.626 144.5,222.5C 143.312,223.048 142.145,223.381 141,223.5C 139.649,221.981 138.149,220.648 136.5,219.5C 130.54,202.982 131.54,186.648 139.5,170.5C 146.652,163.848 153.652,157.015 160.5,150C 166.122,148.171 171.789,148.005 177.5,149.5 Z"/></g>
<g><path style="opacity:1" fill="#d3e6f9" d="M 84.5,193.5 C 85.5,193.5 86.5,193.5 87.5,193.5C 91.8461,193.334 96.1794,193.501 100.5,194C 104.482,196.952 104.482,199.952 100.5,203C 94.0853,203.79 87.752,203.624 81.5,202.5C 79.6315,198.484 80.6315,195.484 84.5,193.5 Z"/></g>
<g><path style="opacity:1" fill="#d5e7f9" d="M 287.5,193.5 C 288.959,193.433 290.292,193.766 291.5,194.5C 293.081,196.142 293.747,198.142 293.5,200.5C 292.373,201.122 291.373,201.955 290.5,203C 284.5,203.667 278.5,203.667 272.5,203C 269.833,200 269.833,197 272.5,194C 277.489,193.501 282.489,193.334 287.5,193.5 Z"/></g>
<g><path style="opacity:0.999" fill="#004cc8" d="M 84.5,214.5 C 93.4037,219.144 102.404,219.811 111.5,216.5C 111.351,217.552 111.517,218.552 112,219.5C 112.667,218.167 113.333,218.167 114,219.5C 114.676,223.202 115.509,226.869 116.5,230.5C 116.32,231.554 115.987,232.554 115.5,233.5C 110.366,234.914 105.699,236.581 101.5,238.5C 98.4101,239.985 96.4101,242.318 95.5,245.5C 94.8333,246.5 94.1667,247.5 93.5,248.5C 90.0883,255.311 91.4216,261.144 97.5,266C 101.517,267.266 105.35,268.099 109,268.5C 111.397,266.218 114.231,264.884 117.5,264.5C 120.689,259.113 123.523,253.446 126,247.5C 126.739,246.426 127.739,245.759 129,245.5C 135.357,253.023 142.19,260.023 149.5,266.5C 149.023,267.478 148.357,268.311 147.5,269C 144.964,269.186 142.631,269.686 140.5,270.5C 136.746,274.606 133.746,279.273 131.5,284.5C 130.053,285.622 129.053,287.122 128.5,289C 129.503,301.672 135.837,305.339 147.5,300C 156.102,292.261 158.435,283.261 154.5,273C 155.667,272.5 156.5,271.667 157,270.5C 165.662,274.166 174.495,277.333 183.5,280C 181.35,281.192 180.683,282.692 181.5,284.5C 181.5,286.5 181.5,288.5 181.5,290.5C 180.778,290.918 180.278,291.584 180,292.5C 179.833,294.667 179.667,296.833 179.5,299C 180.363,314.088 187.363,318.254 200.5,311.5C 200.779,308.882 201.446,306.382 202.5,304C 202.47,300.615 202.303,297.115 202,293.5C 203.279,298.321 203.946,303.321 204,308.5C 205.459,301.668 205.292,294.501 203.5,287C 204.486,283.753 206.486,282.92 209.5,284.5C 210.235,288.704 211.568,292.704 213.5,296.5C 213.833,296.167 214.167,295.833 214.5,295.5C 213.085,291.334 211.752,287.167 210.5,283C 217.538,278.72 221.205,280.887 221.5,289.5C 222.552,289.649 223.552,289.483 224.5,289C 223.5,287.333 222.5,285.667 221.5,284C 222,283.5 222.5,283 223,282.5C 223.471,284.246 224.138,285.913 225,287.5C 225.098,284.478 225.932,281.811 227.5,279.5C 227.833,280.167 228.167,280.833 228.5,281.5C 227.378,283.288 227.211,285.288 228,287.5C 229.588,291.672 231.421,295.672 233.5,299.5C 233.631,300.239 233.464,300.906 233,301.5C 232,299.5 231,297.5 230,295.5C 229.667,297.5 229.333,299.5 229,301.5C 211.272,314.948 193.105,327.781 174.5,340C 168.798,344.411 165.798,349.911 165.5,356.5C 150.72,347.27 136.053,337.77 121.5,328C 117.241,324.718 113.241,321.218 109.5,317.5C 110.32,315.86 111.153,314.193 112,312.5C 112.55,304.699 110.884,297.365 107,290.5C 103.987,285.012 101.654,279.679 100,274.5C 95.1821,268.689 91.6821,262.189 89.5,255C 90.1659,250.737 90.4993,246.07 90.5,241C 89.8464,234.143 89.0131,227.31 88,220.5C 86.5787,218.595 85.412,216.595 84.5,214.5 Z"/></g>
<g><path style="opacity:1" fill="#0544ab" d="M 137.5,239.5 C 144.57,247.06 152.904,252.893 162.5,257C 190.539,265.609 214.206,259.109 233.5,237.5C 235.936,237.683 238.103,237.016 240,235.5C 240.861,240.21 239.527,244.543 236,248.5C 219.128,267.364 197.962,273.53 172.5,267C 157.25,262.082 145.584,252.916 137.5,239.5 Z"/></g>
<g><path style="opacity:1" fill="#dfedfb" d="M 276.5,244.5 C 278.478,245.317 279.478,246.817 279.5,249C 278.792,253.051 276.459,254.718 272.5,254C 270.423,252.295 268.09,251.128 265.5,250.5C 263.492,248.732 261.326,247.066 259,245.5C 257.672,239.833 259.839,237.333 265.5,238C 269.194,240.178 272.861,242.345 276.5,244.5 Z"/></g>
<g><path style="opacity:1" fill="#c9dff5" d="M 93.5,248.5 C 94.1667,247.5 94.8333,246.5 95.5,245.5C 100.351,242.574 105.351,239.907 110.5,237.5C 114.987,238.641 116.32,241.308 114.5,245.5C 109.655,249.339 104.322,252.339 98.5,254.5C 95.432,253.711 93.7653,251.711 93.5,248.5 Z"/></g>
<g><path style="opacity:0.004" fill="#000000" d="M 47.5,256.5 C 48.7846,259.589 49.4512,262.922 49.5,266.5C 47.9886,263.456 47.322,260.122 47.5,256.5 Z"/></g>
<g><path style="opacity:0.004" fill="#000000" d="M 403.5,262.5 C 403.58,265.781 402.913,268.781 401.5,271.5C 401.42,268.219 402.087,265.219 403.5,262.5 Z"/></g>
<g><path style="opacity:0.004" fill="#000000" d="M 49.5,266.5 C 51.1016,270.239 52.1016,274.239 52.5,278.5C 50.5841,274.837 49.5841,270.837 49.5,266.5 Z"/></g>
<g><path style="opacity:1" fill="#d9e9fa" d="M 228.5,281.5 C 228.167,280.833 227.833,280.167 227.5,279.5C 224.219,272.256 226.552,269.423 234.5,271C 236.623,275.415 239.123,279.582 242,283.5C 243.252,287.926 241.586,290.592 237,291.5C 232.987,289.122 230.153,285.789 228.5,281.5 Z"/></g>
<g><path style="opacity:0.004" fill="#000000" d="M 400.5,275.5 C 400.59,278.152 399.924,280.485 398.5,282.5C 398.41,279.848 399.076,277.515 400.5,275.5 Z"/></g>
<g><path style="opacity:1" fill="#c9e0f6" d="M 140.5,270.5 C 144.525,269.578 146.859,271.078 147.5,275C 145.826,278.851 143.992,282.684 142,286.5C 140.938,289.064 139.104,290.731 136.5,291.5C 132.15,291.122 130.483,288.789 131.5,284.5C 133.746,279.273 136.746,274.606 140.5,270.5 Z"/></g>
<g><path style="opacity:0.004" fill="#000000" d="M 52.5,278.5 C 55.072,284.216 57.072,290.216 58.5,296.5C 55.5271,290.915 53.5271,284.915 52.5,278.5 Z"/></g>
<g><path style="opacity:0.004" fill="#000000" d="M 394.5,294.5 C 394.598,296.553 393.931,298.22 392.5,299.5C 392.402,297.447 393.069,295.78 394.5,294.5 Z"/></g>
<g><path style="opacity:1" fill="#cde3f8" d="M 181.5,290.5 C 181.5,288.5 181.5,286.5 181.5,284.5C 184.77,280.778 187.936,280.778 191,284.5C 191.667,290.5 191.667,296.5 191,302.5C 187.528,305.418 184.528,305.085 182,301.5C 181.501,297.848 181.335,294.182 181.5,290.5 Z"/></g>
<g><path style="opacity:0.004" fill="#000000" d="M 58.5,296.5 C 59.9313,297.78 60.5979,299.447 60.5,301.5C 59.0687,300.22 58.4021,298.553 58.5,296.5 Z"/></g>
<g><path style="opacity:0.004" fill="#000000" d="M 392.5,299.5 C 392.293,302.241 391.293,304.574 389.5,306.5C 389.707,303.759 390.707,301.426 392.5,299.5 Z"/></g>
<g><path style="opacity:0.004" fill="#000000" d="M 60.5,301.5 C 62.6246,304.088 63.9579,307.088 64.5,310.5C 62.3754,307.912 61.0421,304.912 60.5,301.5 Z"/></g>
<g><path style="opacity:0.004" fill="#000000" d="M 388.5,308.5 C 387.873,312.42 386.207,315.753 383.5,318.5C 384.659,314.849 386.326,311.515 388.5,308.5 Z"/></g>
<g><path style="opacity:0.004" fill="#000000" d="M 67.5,316.5 C 69.9236,319.008 71.5903,322.008 72.5,325.5C 70.0764,322.992 68.4097,319.992 67.5,316.5 Z"/></g>
<g><path style="opacity:0.004" fill="#00807f" d="M 74.5,316.5 C 81.3588,327.541 88.8588,338.207 97,348.5C 107.426,359.43 118.259,369.763 129.5,379.5C 105.777,363.116 87.4434,342.116 74.5,316.5 Z"/></g>
<g><path style="opacity:0.004" fill="#000000" d="M 381.5,322.5 C 381.25,324.674 380.25,326.341 378.5,327.5C 378.75,325.326 379.75,323.659 381.5,322.5 Z"/></g>
<g><path style="opacity:0.004" fill="#000000" d="M 72.5,325.5 C 74.2503,326.659 75.2503,328.326 75.5,330.5C 73.7497,329.341 72.7497,327.674 72.5,325.5 Z"/></g>
<g><path style="opacity:0.004" fill="#000000" d="M 378.5,327.5 C 376.822,332.197 374.156,336.197 370.5,339.5C 372.673,335.148 375.34,331.148 378.5,327.5 Z"/></g>
<g><path style="opacity:0.004" fill="#000000" d="M 75.5,330.5 C 76.9063,330.973 77.573,331.973 77.5,333.5C 76.0937,333.027 75.427,332.027 75.5,330.5 Z"/></g>
<g><path style="opacity:0.004" fill="#000000" d="M 77.5,333.5 C 78.9063,333.973 79.573,334.973 79.5,336.5C 78.0937,336.027 77.427,335.027 77.5,333.5 Z"/></g>
<g><path style="opacity:0.004" fill="#000000" d="M 79.5,336.5 C 80.9063,336.973 81.573,337.973 81.5,339.5C 80.0937,339.027 79.427,338.027 79.5,336.5 Z"/></g>
<g><path style="opacity:0.004" fill="#000000" d="M 81.5,339.5 C 83.2624,340.262 84.2624,341.596 84.5,343.5C 82.7376,342.738 81.7376,341.404 81.5,339.5 Z"/></g>
<g><path style="opacity:0.004" fill="#000000" d="M 370.5,339.5 C 370.573,341.027 369.906,342.027 368.5,342.5C 368.427,340.973 369.094,339.973 370.5,339.5 Z"/></g>
<g><path style="opacity:0.004" fill="#000000" d="M 368.5,342.5 C 368.262,344.404 367.262,345.738 365.5,346.5C 365.738,344.596 366.738,343.262 368.5,342.5 Z"/></g>
<g><path style="opacity:0.004" fill="#000000" d="M 84.5,343.5 C 86.2624,344.262 87.2624,345.596 87.5,347.5C 85.7376,346.738 84.7376,345.404 84.5,343.5 Z"/></g>
<g><path style="opacity:0.004" fill="#000000" d="M 364.5,347.5 C 364.262,349.404 363.262,350.738 361.5,351.5C 361.738,349.596 362.738,348.262 364.5,347.5 Z"/></g>
<g><path style="opacity:0.004" fill="#000000" d="M 88.5,348.5 C 90.5869,349.585 91.9202,351.251 92.5,353.5C 90.4131,352.415 89.0798,350.749 88.5,348.5 Z"/></g>
<g><path style="opacity:0.004" fill="#000000" d="M 360.5,352.5 C 358.906,355.764 356.573,358.431 353.5,360.5C 355.094,357.236 357.427,354.569 360.5,352.5 Z"/></g>
<g><path style="opacity:0.004" fill="#000000" d="M 93.5,354.5 C 100.5,360.833 107.167,367.5 113.5,374.5C 112.761,374.631 112.094,374.464 111.5,374C 104.904,367.91 98.9043,361.41 93.5,354.5 Z"/></g>
<g><path style="opacity:0.004" fill="#00807f" d="M 340.5,364.5 C 338.372,367.13 336.039,369.63 333.5,372C 312.973,388.088 291.639,402.922 269.5,416.5C 268.5,416.5 267.5,416.5 266.5,416.5C 292.546,401.119 317.213,383.786 340.5,364.5 Z"/></g>
<g><path style="opacity:0.004" fill="#000000" d="M 345.5,368.5 C 343.431,371.573 340.764,373.906 337.5,375.5C 339.569,372.427 342.236,370.094 345.5,368.5 Z"/></g>
<g><path style="opacity:0.004" fill="#000000" d="M 113.5,374.5 C 116.089,375.419 118.089,377.086 119.5,379.5C 116.911,378.581 114.911,376.914 113.5,374.5 Z"/></g>
<g><path style="opacity:0.004" fill="#000000" d="M 336.5,376.5 C 335.415,378.587 333.749,379.92 331.5,380.5C 332.585,378.413 334.251,377.08 336.5,376.5 Z"/></g>
<g><path style="opacity:0.004" fill="#000000" d="M 119.5,379.5 C 121.749,380.08 123.415,381.413 124.5,383.5C 122.251,382.92 120.585,381.587 119.5,379.5 Z"/></g>
<g><path style="opacity:0.004" fill="#000000" d="M 331.5,380.5 C 330.738,382.262 329.404,383.262 327.5,383.5C 328.262,381.738 329.596,380.738 331.5,380.5 Z"/></g>
<g><path style="opacity:0.004" fill="#00807f" d="M 133.5,382.5 C 150.568,394.234 167.902,405.568 185.5,416.5C 184.5,416.5 183.5,416.5 182.5,416.5C 165.615,405.946 149.282,394.613 133.5,382.5 Z"/></g>
<g><path style="opacity:0.004" fill="#000000" d="M 124.5,383.5 C 126.404,383.738 127.738,384.738 128.5,386.5C 126.596,386.262 125.262,385.262 124.5,383.5 Z"/></g>
<g><path style="opacity:0.004" fill="#000000" d="M 327.5,383.5 C 326.738,385.262 325.404,386.262 323.5,386.5C 324.262,384.738 325.596,383.738 327.5,383.5 Z"/></g>
<g><path style="opacity:0.004" fill="#000000" d="M 128.5,386.5 C 130.404,386.738 131.738,387.738 132.5,389.5C 130.596,389.262 129.262,388.262 128.5,386.5 Z"/></g>
<g><path style="opacity:0.004" fill="#000000" d="M 323.5,386.5 C 322.738,388.262 321.404,389.262 319.5,389.5C 320.262,387.738 321.596,386.738 323.5,386.5 Z"/></g>
<g><path style="opacity:0.004" fill="#000000" d="M 132.5,389.5 C 134.027,389.427 135.027,390.094 135.5,391.5C 133.973,391.573 132.973,390.906 132.5,389.5 Z"/></g>
<g><path style="opacity:0.004" fill="#000000" d="M 319.5,389.5 C 317.704,391.9 315.37,393.567 312.5,394.5C 314.296,392.1 316.63,390.433 319.5,389.5 Z"/></g>
<g><path style="opacity:0.004" fill="#000000" d="M 135.5,391.5 C 138.37,392.433 140.704,394.1 142.5,396.5C 139.63,395.567 137.296,393.9 135.5,391.5 Z"/></g>
<g><path style="opacity:0.004" fill="#000000" d="M 312.5,394.5 C 312.027,395.906 311.027,396.573 309.5,396.5C 309.973,395.094 310.973,394.427 312.5,394.5 Z"/></g>
<g><path style="opacity:0.004" fill="#000000" d="M 142.5,396.5 C 144.027,396.427 145.027,397.094 145.5,398.5C 143.973,398.573 142.973,397.906 142.5,396.5 Z"/></g>
<g><path style="opacity:0.004" fill="#000000" d="M 309.5,396.5 C 309.027,397.906 308.027,398.573 306.5,398.5C 306.973,397.094 307.973,396.427 309.5,396.5 Z"/></g>
<g><path style="opacity:0.004" fill="#000000" d="M 145.5,398.5 C 147.027,398.427 148.027,399.094 148.5,400.5C 146.973,400.573 145.973,399.906 145.5,398.5 Z"/></g>
<g><path style="opacity:0.004" fill="#000000" d="M 306.5,398.5 C 306.027,399.906 305.027,400.573 303.5,400.5C 303.973,399.094 304.973,398.427 306.5,398.5 Z"/></g>
<g><path style="opacity:0.004" fill="#000000" d="M 148.5,400.5 C 150.027,400.427 151.027,401.094 151.5,402.5C 149.973,402.573 148.973,401.906 148.5,400.5 Z"/></g>
<g><path style="opacity:0.004" fill="#000000" d="M 303.5,400.5 C 303.027,401.906 302.027,402.573 300.5,402.5C 300.973,401.094 301.973,400.427 303.5,400.5 Z"/></g>
<g><path style="opacity:0.004" fill="#000000" d="M 151.5,402.5 C 153.027,402.427 154.027,403.094 154.5,404.5C 152.973,404.573 151.973,403.906 151.5,402.5 Z"/></g>
<g><path style="opacity:0.004" fill="#000000" d="M 300.5,402.5 C 300.027,403.906 299.027,404.573 297.5,404.5C 297.973,403.094 298.973,402.427 300.5,402.5 Z"/></g>
<g><path style="opacity:0.004" fill="#000000" d="M 154.5,404.5 C 156.027,404.427 157.027,405.094 157.5,406.5C 155.973,406.573 154.973,405.906 154.5,404.5 Z"/></g>
<g><path style="opacity:0.004" fill="#000000" d="M 297.5,404.5 C 297.027,405.906 296.027,406.573 294.5,406.5C 294.973,405.094 295.973,404.427 297.5,404.5 Z"/></g>
<g><path style="opacity:0.004" fill="#000000" d="M 157.5,406.5 C 159.027,406.427 160.027,407.094 160.5,408.5C 158.973,408.573 157.973,407.906 157.5,406.5 Z"/></g>
<g><path style="opacity:0.004" fill="#000000" d="M 294.5,406.5 C 291.197,410.156 287.197,412.822 282.5,414.5C 286.148,411.34 290.148,408.673 294.5,406.5 Z"/></g>
<g><path style="opacity:0.004" fill="#000000" d="M 160.5,408.5 C 162.027,408.427 163.027,409.094 163.5,410.5C 161.973,410.573 160.973,409.906 160.5,408.5 Z"/></g>
<g><path style="opacity:0.004" fill="#000000" d="M 163.5,410.5 C 165.027,410.427 166.027,411.094 166.5,412.5C 164.973,412.573 163.973,411.906 163.5,410.5 Z"/></g>
<g><path style="opacity:0.004" fill="#000000" d="M 166.5,412.5 C 168.027,412.427 169.027,413.094 169.5,414.5C 167.973,414.573 166.973,413.906 166.5,412.5 Z"/></g>
<g><path style="opacity:0.004" fill="#000000" d="M 169.5,414.5 C 171.153,414.66 172.486,415.326 173.5,416.5C 172.5,416.5 171.5,416.5 170.5,416.5C 170.167,415.833 169.833,415.167 169.5,414.5 Z"/></g>
<g><path style="opacity:0.004" fill="#000000" d="M 282.5,414.5 C 282.167,415.167 281.833,415.833 281.5,416.5C 280.833,416.5 280.167,416.5 279.5,416.5C 279.973,415.094 280.973,414.427 282.5,414.5 Z"/></g>
</svg>
