<?xml version="1.0" encoding="UTF-8"?>
<!DOCTYPE svg PUBLIC "-//W3C//DTD SVG 1.1//EN" "http://www.w3.org/Graphics/SVG/1.1/DTD/svg11.dtd">
<svg xmlns="http://www.w3.org/2000/svg" version="1.1" width="473px" height="429px" style="shape-rendering:geometricPrecision; text-rendering:geometricPrecision; image-rendering:optimizeQuality; fill-rule:evenodd; clip-rule:evenodd" xmlns:xlink="http://www.w3.org/1999/xlink">
<g><path style="opacity:0.004" fill="#000000" d="M 271.5,11.5 C 253.167,10.1875 234.834,10.1875 216.5,11.5C 225.455,10.0231 234.621,9.35645 244,9.5C 253.379,9.35645 262.545,10.0231 271.5,11.5 Z"/></g>
<g><path style="opacity:0.004" fill="#1908de" d="M 271.5,11.5 C 278.111,11.5473 284.444,12.5473 290.5,14.5C 293.219,15.913 296.219,16.5797 299.5,16.5C 303.895,18.4354 308.562,19.7687 313.5,20.5C 315.786,20.595 317.786,21.2616 319.5,22.5C 321.792,24.2671 324.458,25.2671 327.5,25.5C 328.78,26.9313 330.447,27.5979 332.5,27.5C 333.78,28.9313 335.447,29.5979 337.5,29.5C 338.78,30.9313 340.447,31.5979 342.5,31.5C 346.048,32.1301 349.381,33.1301 352.5,34.5C 359.522,36.7881 366.855,37.7881 374.5,37.5C 378.371,37.185 382.038,37.5184 385.5,38.5C 389.618,39.7089 393.951,40.3755 398.5,40.5C 404.749,42.4705 411.083,44.4705 417.5,46.5C 419.153,46.6596 420.486,47.3263 421.5,48.5C 422.659,50.2503 424.326,51.2503 426.5,51.5C 432.167,56.5 437.5,61.8333 442.5,67.5C 442.75,69.674 443.75,71.3406 445.5,72.5C 446.674,73.5137 447.34,74.847 447.5,76.5C 449.529,82.9173 451.529,89.2506 453.5,95.5C 453.624,100.049 454.291,104.382 455.5,108.5C 456.489,113.975 456.822,119.642 456.5,125.5C 456.75,164.509 456.417,203.509 455.5,242.5C 455.81,245.713 455.477,248.713 454.5,251.5C 452.754,258.633 451.42,265.966 450.5,273.5C 450.435,276.428 449.768,279.095 448.5,281.5C 445.928,287.216 443.928,293.216 442.5,299.5C 440.597,302.53 439.263,305.863 438.5,309.5C 438.672,310.492 438.338,311.158 437.5,311.5C 434.326,316.516 431.659,321.849 429.5,327.5C 427.412,329.336 426.079,331.669 425.5,334.5C 424.094,334.973 423.427,335.973 423.5,337.5C 421.674,339.147 420.34,341.147 419.5,343.5C 418.094,343.973 417.427,344.973 417.5,346.5C 415.738,347.262 414.738,348.596 414.5,350.5C 412.738,351.262 411.738,352.596 411.5,354.5C 409.413,355.585 408.08,357.251 407.5,359.5C 407.5,360.167 407.167,360.5 406.5,360.5C 403.427,362.569 401.094,365.236 399.5,368.5C 396.833,371.833 393.833,374.833 390.5,377.5C 387.573,378.757 385.239,380.757 383.5,383.5C 383.5,384.167 383.167,384.5 382.5,384.5C 380.251,385.08 378.585,386.413 377.5,388.5C 374.467,390.016 371.8,392.016 369.5,394.5C 365.148,396.673 361.148,399.34 357.5,402.5C 355.326,402.75 353.659,403.75 352.5,405.5C 345.516,408.325 338.849,411.659 332.5,415.5C 329.759,415.707 327.426,416.707 325.5,418.5C 322.458,418.733 319.792,419.733 317.5,421.5C 315.786,422.738 313.786,423.405 311.5,423.5C 308.848,423.41 306.515,424.076 304.5,425.5C 301.833,426.5 299.167,427.5 296.5,428.5C 292.167,428.5 287.833,428.5 283.5,428.5C 355.944,413.218 407.444,371.885 438,304.5C 450.976,269.875 456.809,234.041 455.5,197C 455.096,167.147 454.262,137.314 453,107.5C 449.875,70.3795 430.042,48.5462 393.5,42C 379.8,40.5728 366.133,38.9062 352.5,37C 338.435,32.2004 324.435,27.2004 310.5,22C 266.498,9.35126 222.498,9.35126 178.5,22C 164.565,27.2004 150.565,32.2004 136.5,37C 121.493,38.9341 106.493,40.9341 91.5,43C 56.4302,51.7486 37.5969,74.2486 35,110.5C 33.9013,132.145 33.4013,153.811 33.5,175.5C 33.6667,193.5 33.8333,211.5 34,229.5C 38.694,305.099 72.8607,362.933 136.5,403C 158.261,415.194 181.261,423.694 205.5,428.5C 202.5,428.5 199.5,428.5 196.5,428.5C 191.427,426.565 186.094,425.232 180.5,424.5C 179.209,424.737 178.209,424.404 177.5,423.5C 175.786,422.262 173.786,421.595 171.5,421.5C 170.209,421.737 169.209,421.404 168.5,420.5C 166.208,418.733 163.542,417.733 160.5,417.5C 159.508,417.672 158.842,417.338 158.5,416.5C 157.22,415.069 155.553,414.402 153.5,414.5C 148.516,412.674 143.849,410.341 139.5,407.5C 138.341,405.75 136.674,404.75 134.5,404.5C 133.508,404.672 132.842,404.338 132.5,403.5C 132.027,402.094 131.027,401.427 129.5,401.5C 127.025,398.759 124.025,396.759 120.5,395.5C 120.027,394.094 119.027,393.427 117.5,393.5C 116.738,391.738 115.404,390.738 113.5,390.5C 112.415,388.413 110.749,387.08 108.5,386.5C 107.089,384.086 105.089,382.419 102.5,381.5C 101.833,381.5 101.5,381.167 101.5,380.5C 96.5,374.833 91.1667,369.5 85.5,364.5C 84.8333,364.5 84.5,364.167 84.5,363.5C 83.5806,360.911 81.914,358.911 79.5,357.5C 78.9202,355.251 77.5869,353.585 75.5,352.5C 75.2624,350.596 74.2624,349.262 72.5,348.5C 72.573,346.973 71.9063,345.973 70.5,345.5C 68.3265,341.148 65.6599,337.148 62.5,333.5C 61.9213,330.669 60.588,328.336 58.5,326.5C 56.3412,320.849 53.6745,315.516 50.5,310.5C 49.6618,310.158 49.3284,309.492 49.5,308.5C 49.2927,305.759 48.2927,303.426 46.5,301.5C 46.2671,298.458 45.2671,295.792 43.5,293.5C 42.2616,291.786 41.595,289.786 41.5,287.5C 41.5905,284.848 40.9238,282.515 39.5,280.5C 37.8984,276.761 36.8984,272.761 36.5,268.5C 36.0191,261.954 35.0191,255.621 33.5,249.5C 33.2409,240.653 32.5742,231.986 31.5,223.5C 30.1667,190.833 30.1667,158.167 31.5,125.5C 32.5625,116.651 33.5625,107.651 34.5,98.5C 38.2463,80.6762 46.913,65.6762 60.5,53.5C 63.5113,52.3307 66.178,50.664 68.5,48.5C 69.5137,47.3263 70.847,46.6596 72.5,46.5C 74.5529,46.5979 76.2196,45.9313 77.5,44.5C 79.7857,44.405 81.7857,43.7384 83.5,42.5C 84.5676,41.5655 85.901,41.2322 87.5,41.5C 91.0781,41.4512 94.4115,40.7846 97.5,39.5C 103.699,39.3484 109.699,38.6818 115.5,37.5C 122.351,36.4169 129.351,35.4169 136.5,34.5C 139.152,34.5905 141.485,33.9238 143.5,32.5C 146.542,32.2671 149.208,31.2671 151.5,29.5C 153.553,29.5979 155.22,28.9313 156.5,27.5C 158.553,27.5979 160.22,26.9313 161.5,25.5C 164.542,25.2671 167.208,24.2671 169.5,22.5C 172.215,20.9281 175.215,19.9281 178.5,19.5C 181.152,19.5905 183.485,18.9238 185.5,17.5C 195.471,14.2398 205.805,12.2398 216.5,11.5C 234.834,10.1875 253.167,10.1875 271.5,11.5 Z"/></g>
<g><path style="opacity:0.004" fill="#00fefe" d="M 283.5,428.5 C 275.833,428.5 268.167,428.5 260.5,428.5C 296.184,425.439 329.184,414.272 359.5,395C 361.618,393.951 363.284,392.451 364.5,390.5C 367.778,389.191 370.778,387.358 373.5,385C 375.041,383.629 376.375,382.129 377.5,380.5C 381.1,378.57 384.1,375.903 386.5,372.5C 389.167,369.167 392.167,366.167 395.5,363.5C 413.555,345.096 427.388,323.763 437,299.5C 446.523,273.695 451.523,247.029 452,219.5C 452.892,181.8 452.225,144.133 450,106.5C 446.087,72.1078 427.254,51.6078 393.5,45C 380.159,43.3933 366.826,41.7266 353.5,40C 338.888,35.796 324.555,30.796 310.5,25C 267.595,11.4825 224.595,11.1492 181.5,24C 168.833,28.6667 156.167,33.3333 143.5,38C 127.969,41.1868 112.303,43.5202 96.5,45C 65.6415,50.1931 46.8082,68.0264 40,98.5C 38.4574,105.422 37.4574,112.422 37,119.5C 36.3333,156.833 36.3333,194.167 37,231.5C 39.046,274.823 53.2127,313.49 79.5,347.5C 87.1543,358.667 96.1543,368.833 106.5,378C 110.12,381.467 114.12,384.3 118.5,386.5C 142.324,405.406 169.324,417.906 199.5,424C 209.262,425.845 218.928,427.345 228.5,428.5C 220.833,428.5 213.167,428.5 205.5,428.5C 181.261,423.694 158.261,415.194 136.5,403C 72.8607,362.933 38.694,305.099 34,229.5C 33.8333,211.5 33.6667,193.5 33.5,175.5C 33.4013,153.811 33.9013,132.145 35,110.5C 37.5969,74.2486 56.4302,51.7486 91.5,43C 106.493,40.9341 121.493,38.9341 136.5,37C 150.565,32.2004 164.565,27.2004 178.5,22C 222.498,9.35126 266.498,9.35126 310.5,22C 324.435,27.2004 338.435,32.2004 352.5,37C 366.133,38.9062 379.8,40.5728 393.5,42C 430.042,48.5462 449.875,70.3795 453,107.5C 454.262,137.314 455.096,167.147 455.5,197C 456.809,234.041 450.976,269.875 438,304.5C 407.444,371.885 355.944,413.218 283.5,428.5 Z"/></g>
<g><path style="opacity:0.004" fill="#000000" d="M 290.5,14.5 C 293.781,14.4203 296.781,15.087 299.5,16.5C 296.219,16.5797 293.219,15.913 290.5,14.5 Z"/></g>
<g><path style="opacity:0.004" fill="#7879f2" d="M 395.5,363.5 C 392.167,366.167 389.167,369.167 386.5,372.5C 382.9,374.43 379.9,377.097 377.5,380.5C 372.617,383.109 368.284,386.443 364.5,390.5C 298.819,432.334 229.819,438.5 157.5,409C 143.791,402.487 130.791,394.987 118.5,386.5C 104.5,374.5 91.5,361.5 79.5,347.5C 53.8229,312.109 39.9896,272.442 38,228.5C 37.3333,193.167 37.3333,157.833 38,122.5C 38.2253,102.159 44.2253,83.8257 56,67.5C 69.3017,54.0553 85.4684,46.5553 104.5,45C 115.22,44.0614 125.887,42.7281 136.5,41C 150.962,36.4015 165.295,31.4015 179.5,26C 220.312,14.1278 261.312,13.4611 302.5,24C 319.103,29.8677 335.77,35.5344 352.5,41C 363.44,42.7941 374.44,44.1274 385.5,45C 427.821,50.9991 449.321,75.4991 450,118.5C 450.347,144.337 450.847,170.17 451.5,196C 454.331,246.174 442.831,292.674 417,335.5C 410.36,345.298 403.193,354.631 395.5,363.5 Z"/></g>
<g><path style="opacity:0.004" fill="#000000" d="M 299.5,16.5 C 304.529,16.9205 309.195,18.2538 313.5,20.5C 308.562,19.7687 303.895,18.4354 299.5,16.5 Z"/></g>
<g><path style="opacity:0.004" fill="#000000" d="M 185.5,17.5 C 183.485,18.9238 181.152,19.5905 178.5,19.5C 180.515,18.0762 182.848,17.4095 185.5,17.5 Z"/></g>
<g><path style="opacity:0.004" fill="#000000" d="M 169.5,22.5 C 167.208,24.2671 164.542,25.2671 161.5,25.5C 163.792,23.7329 166.458,22.7329 169.5,22.5 Z"/></g>
<g><path style="opacity:0.004" fill="#000000" d="M 319.5,22.5 C 322.542,22.7329 325.208,23.7329 327.5,25.5C 324.458,25.2671 321.792,24.2671 319.5,22.5 Z"/></g>
<g><path style="opacity:0.004" fill="#000000" d="M 161.5,25.5 C 160.22,26.9313 158.553,27.5979 156.5,27.5C 157.78,26.0687 159.447,25.4021 161.5,25.5 Z"/></g>
<g><path style="opacity:0.004" fill="#000000" d="M 327.5,25.5 C 329.553,25.4021 331.22,26.0687 332.5,27.5C 330.447,27.5979 328.78,26.9313 327.5,25.5 Z"/></g>
<g><path style="opacity:0.004" fill="#000000" d="M 156.5,27.5 C 155.22,28.9313 153.553,29.5979 151.5,29.5C 152.78,28.0687 154.447,27.4021 156.5,27.5 Z"/></g>
<g><path style="opacity:0.004" fill="#000000" d="M 332.5,27.5 C 334.553,27.4021 336.22,28.0687 337.5,29.5C 335.447,29.5979 333.78,28.9313 332.5,27.5 Z"/></g>
<g><path style="opacity:0.004" fill="#000000" d="M 151.5,29.5 C 149.208,31.2671 146.542,32.2671 143.5,32.5C 145.792,30.7329 148.458,29.7329 151.5,29.5 Z"/></g>
<g><path style="opacity:0.004" fill="#000000" d="M 337.5,29.5 C 339.553,29.4021 341.22,30.0687 342.5,31.5C 340.447,31.5979 338.78,30.9313 337.5,29.5 Z"/></g>
<g><path style="opacity:0.004" fill="#000000" d="M 143.5,32.5 C 141.485,33.9238 139.152,34.5905 136.5,34.5C 138.515,33.0762 140.848,32.4095 143.5,32.5 Z"/></g>
<g><path style="opacity:0.004" fill="#000000" d="M 352.5,34.5 C 359.994,35.3334 367.328,36.3334 374.5,37.5C 366.855,37.7881 359.522,36.7881 352.5,34.5 Z"/></g>
<g><path style="opacity:0.004" fill="#000000" d="M 115.5,37.5 C 109.699,38.6818 103.699,39.3484 97.5,39.5C 103.261,37.9431 109.261,37.2764 115.5,37.5 Z"/></g>
<g><path style="opacity:0.004" fill="#14807f" d="M 395.5,363.5 C 403.193,354.631 410.36,345.298 417,335.5C 442.831,292.674 454.331,246.174 451.5,196C 450.847,170.17 450.347,144.337 450,118.5C 449.321,75.4991 427.821,50.9991 385.5,45C 374.44,44.1274 363.44,42.7941 352.5,41C 335.77,35.5344 319.103,29.8677 302.5,24C 261.312,13.4611 220.312,14.1278 179.5,26C 165.295,31.4015 150.962,36.4015 136.5,41C 125.887,42.7281 115.22,44.0614 104.5,45C 85.4684,46.5553 69.3017,54.0553 56,67.5C 44.2253,83.8257 38.2253,102.159 38,122.5C 37.3333,157.833 37.3333,193.167 38,228.5C 39.9896,272.442 53.8229,312.109 79.5,347.5C 53.2127,313.49 39.046,274.823 37,231.5C 36.3333,194.167 36.3333,156.833 37,119.5C 37.4574,112.422 38.4574,105.422 40,98.5C 46.8082,68.0264 65.6415,50.1931 96.5,45C 112.303,43.5202 127.969,41.1868 143.5,38C 156.167,33.3333 168.833,28.6667 181.5,24C 224.595,11.1492 267.595,11.4825 310.5,25C 324.555,30.796 338.888,35.796 353.5,40C 366.826,41.7266 380.159,43.3933 393.5,45C 427.254,51.6078 446.087,72.1078 450,106.5C 452.225,144.133 452.892,181.8 452,219.5C 451.523,247.029 446.523,273.695 437,299.5C 427.388,323.763 413.555,345.096 395.5,363.5 Z"/></g>
<g><path style="opacity:0.008" fill="#55aaa9" d="M 293.5,24.5 C 268.366,19.6309 243.033,18.2976 217.5,20.5C 220.641,19.6787 223.975,19.1787 227.5,19C 249.96,17.1329 271.96,18.9663 293.5,24.5 Z"/></g>
<g><path style="opacity:0.004" fill="#000000" d="M 385.5,38.5 C 390.1,38.2796 394.433,38.9462 398.5,40.5C 393.951,40.3755 389.618,39.7089 385.5,38.5 Z"/></g>
<g><path style="opacity:0.004" fill="#000000" d="M 97.5,39.5 C 94.4115,40.7846 91.0781,41.4512 87.5,41.5C 90.5443,39.9886 93.8776,39.322 97.5,39.5 Z"/></g>
<g><path style="opacity:0.004" fill="#000000" d="M 398.5,40.5 C 405.427,40.9214 411.76,42.9214 417.5,46.5C 411.083,44.4705 404.749,42.4705 398.5,40.5 Z"/></g>
<g><path style="opacity:0.008" fill="#55aaa9" d="M 145.5,41.5 C 141.795,43.2644 137.795,44.431 133.5,45C 118.041,46.4023 102.708,48.569 87.5,51.5C 91.2054,49.7356 95.2054,48.569 99.5,48C 114.954,46.5554 130.287,44.3887 145.5,41.5 Z"/></g>
<g><path style="opacity:0.004" fill="#000000" d="M 83.5,42.5 C 81.7857,43.7384 79.7857,44.405 77.5,44.5C 79.1016,42.9261 81.1016,42.2594 83.5,42.5 Z"/></g>
<g><path style="opacity:0.004" fill="#000000" d="M 77.5,44.5 C 76.2196,45.9313 74.5529,46.5979 72.5,46.5C 73.7804,45.0687 75.4471,44.4021 77.5,44.5 Z"/></g>
<g><path style="opacity:0.008" fill="#55aaa9" d="M 363.5,45.5 C 376.951,45.4703 389.951,47.4703 402.5,51.5C 389.457,48.9238 376.457,46.9238 363.5,45.5 Z"/></g>
<g><path style="opacity:0.004" fill="#000000" d="M 68.5,48.5 C 66.178,50.664 63.5113,52.3307 60.5,53.5C 62.4844,50.8361 65.1511,49.1695 68.5,48.5 Z"/></g>
<g><path style="opacity:0.004" fill="#000000" d="M 421.5,48.5 C 423.674,48.7497 425.341,49.7497 426.5,51.5C 424.326,51.2503 422.659,50.2503 421.5,48.5 Z"/></g>
<g><path style="opacity:0.004" fill="#000000" d="M 426.5,51.5 C 433.5,55.1667 438.833,60.5 442.5,67.5C 437.5,61.8333 432.167,56.5 426.5,51.5 Z"/></g>
<g><path style="opacity:0.004" fill="#000000" d="M 60.5,53.5 C 46.913,65.6762 38.2463,80.6762 34.5,98.5C 36.7652,79.6161 45.4319,64.6161 60.5,53.5 Z"/></g>
<g><path style="opacity:0.004" fill="#000000" d="M 442.5,67.5 C 444.25,68.6594 445.25,70.326 445.5,72.5C 443.75,71.3406 442.75,69.674 442.5,67.5 Z"/></g>
<g><path style="opacity:0.004" fill="#000000" d="M 447.5,76.5 C 451.079,82.2401 453.079,88.5734 453.5,95.5C 451.529,89.2506 449.529,82.9173 447.5,76.5 Z"/></g>
<g><path style="opacity:0.327" fill="#4c94cf" d="M 293.5,24.5 C 298.598,25.1909 303.598,26.3575 308.5,28C 326.408,35.6453 344.741,41.4786 363.5,45.5C 376.457,46.9238 389.457,48.9238 402.5,51.5C 423.5,57.1667 436.833,70.5 442.5,91.5C 444.648,101.889 446.315,112.223 447.5,122.5C 447.248,147.177 447.581,171.843 448.5,196.5C 447.731,211.832 447.064,227.165 446.5,242.5C 436.372,322.624 394.372,378.791 320.5,411C 310.74,414.754 300.74,417.588 290.5,419.5C 271.67,422.986 252.67,424.653 233.5,424.5C 185.45,422.499 143.784,405.499 108.5,373.5C 103.5,367.833 98.1667,362.5 92.5,357.5C 74.127,337.453 60.2937,314.453 51,288.5C 47.7295,279.752 45.5628,270.752 44.5,261.5C 42.8578,249.219 41.6912,236.886 41,224.5C 40.2552,187.492 40.4219,150.492 41.5,113.5C 42.5226,90.9525 51.8559,72.7859 69.5,59C 75.1882,55.653 81.1882,53.153 87.5,51.5C 102.708,48.569 118.041,46.4023 133.5,45C 137.795,44.431 141.795,43.2644 145.5,41.5C 168.233,30.4816 192.233,23.4816 217.5,20.5C 243.033,18.2976 268.366,19.6309 293.5,24.5 Z"/></g>
<g><path style="opacity:1" fill="#0070e4" d="M 124.5,67.5 C 136.5,67.5 148.5,67.5 160.5,67.5C 209.167,67.5 257.833,67.5 306.5,67.5C 320.5,67.5 334.5,67.5 348.5,67.5C 352.103,68.6527 355.103,70.8194 357.5,74C 356.692,76.0876 355.692,78.0876 354.5,80C 351.009,80.738 347.675,81.5713 344.5,82.5C 336.938,80.3739 329.938,81.3739 323.5,85.5C 322.737,84.7321 321.737,84.2321 320.5,84C 311.316,83.7354 302.149,83.2354 293,82.5C 291.319,82.6083 290.152,83.2749 289.5,84.5C 280.963,80.2856 272.63,80.6189 264.5,85.5C 250.01,85.1064 235.343,85.1064 220.5,85.5C 219.833,85.1667 219.167,84.8333 218.5,84.5C 216.488,83.7717 214.488,82.9383 212.5,82C 170.833,81.3333 129.167,81.3333 87.5,82C 76.2053,84.9636 70.5387,92.297 70.5,104C 70.4827,108.296 71.1494,112.463 72.5,116.5C 72.6663,123.175 72.4996,129.842 72,136.5C 71.7265,138.329 70.8932,139.829 69.5,141C 70.056,141.383 70.3893,141.883 70.5,142.5C 65.5,142.5 60.5,142.5 55.5,142.5C 55.3334,121.497 55.5,100.497 56,79.5C 58.7858,71.1795 64.6192,66.8462 73.5,66.5C 90.4844,67.4272 107.484,67.7605 124.5,67.5 Z"/></g>
<g><path style="opacity:1" fill="#007bed" d="M 69.5,70.5 C 140.166,71.1414 210.833,71.8081 281.5,72.5C 291.328,72.0044 301.161,71.6711 311,71.5C 320.249,71.3046 329.415,71.9713 338.5,73.5C 329.673,76.0654 320.673,77.7321 311.5,78.5C 301.614,77.3545 291.781,76.0212 282,74.5C 273.789,75.2596 265.622,76.4263 257.5,78C 199.476,78.0322 141.476,78.6988 83.5,80C 72.4836,83.843 67.3169,91.6764 68,103.5C 67.1824,113.078 67.3491,122.578 68.5,132C 65.1667,139.333 61.8333,139.333 58.5,132C 59.8267,117.863 59.8267,103.696 58.5,89.5C 57.9252,80.429 61.5919,74.0957 69.5,70.5 Z"/></g>
<g><path style="opacity:1" fill="#0155d4" d="M 348.5,67.5 C 354.509,67.3338 360.509,67.5005 366.5,68C 371.457,69.7445 374.124,73.2445 374.5,78.5C 372.694,77.7938 370.861,78.1271 369,79.5C 366.557,78.7147 364.057,78.8814 361.5,80C 358.24,82.4541 354.907,84.6208 351.5,86.5C 350.5,85.8333 349.5,85.1667 348.5,84.5C 347.167,83.8333 345.833,83.1667 344.5,82.5C 347.675,81.5713 351.009,80.738 354.5,80C 355.692,78.0876 356.692,76.0876 357.5,74C 355.103,70.8194 352.103,68.6527 348.5,67.5 Z"/></g>
<g><path style="opacity:1" fill="#24a2e0" d="M 268.5,47.5 C 282.086,52.6243 294.753,59.291 306.5,67.5C 257.833,67.5 209.167,67.5 160.5,67.5C 163.625,65.7755 166.958,64.2755 170.5,63C 197.701,56.6314 225.201,54.4648 253,56.5C 256.411,55.7069 259.911,55.2069 263.5,55C 267.736,54.2572 269.403,51.7572 268.5,47.5 Z"/></g>
<g><path style="opacity:1" fill="#49d7f6" d="M 195.5,40.5 C 208.151,40.7273 220.817,40.894 233.5,41C 237.29,41.2297 240.624,42.563 243.5,45C 227.847,47.5829 212.18,50.2495 196.5,53C 189.884,54.8722 183.217,56.5388 176.5,58C 170.624,60.5169 164.624,62.8502 158.5,65C 152.138,65.6534 145.805,65.4867 139.5,64.5C 139.5,62.8333 139.5,61.1667 139.5,59.5C 142.344,59.6574 144.011,58.324 144.5,55.5C 160.354,47.1093 177.354,42.1093 195.5,40.5 Z"/></g>
<g><path style="opacity:1" fill="#39c1ed" d="M 268.5,47.5 C 269.403,51.7572 267.736,54.2572 263.5,55C 259.911,55.2069 256.411,55.7069 253,56.5C 225.201,54.4648 197.701,56.6314 170.5,63C 166.958,64.2755 163.625,65.7755 160.5,67.5C 148.5,67.5 136.5,67.5 124.5,67.5C 130.528,62.4838 137.195,58.4838 144.5,55.5C 144.011,58.324 142.344,59.6574 139.5,59.5C 139.5,61.1667 139.5,62.8333 139.5,64.5C 145.805,65.4867 152.138,65.6534 158.5,65C 164.624,62.8502 170.624,60.5169 176.5,58C 183.217,56.5388 189.884,54.8722 196.5,53C 212.18,50.2495 227.847,47.5829 243.5,45C 240.624,42.563 237.29,41.2297 233.5,41C 220.817,40.894 208.151,40.7273 195.5,40.5C 220.211,37.2754 244.544,39.6087 268.5,47.5 Z"/></g>
<g><path style="opacity:0.012" fill="#489cd0" d="M 233.5,21.5 C 259.433,20.7414 284.766,24.2414 309.5,32C 322.402,36.9517 335.402,41.6184 348.5,46C 364.541,48.0706 380.541,50.404 396.5,53C 417.239,58.0735 431.406,70.5735 439,90.5C 441.634,98.6363 443.301,106.97 444,115.5C 445.49,152.155 445.824,188.821 445,225.5C 444.439,235.212 443.439,244.879 442,254.5C 441.121,247.841 440.788,241.174 441,234.5C 441.333,236.5 441.667,238.5 442,240.5C 442.167,239.333 442.333,238.167 442.5,237C 441.48,230.52 441.314,224.02 442,217.5C 442.333,221.167 442.667,224.833 443,228.5C 443.167,226.167 443.333,223.833 443.5,221.5C 442.983,189.841 442.817,158.174 443,126.5C 442.667,140.5 442.333,154.5 442,168.5C 441.224,151.485 441.39,134.485 442.5,117.5C 442.333,116.167 442.167,114.833 442,113.5C 441.667,115.5 441.333,117.5 441,119.5C 440.567,113.772 439.734,108.106 438.5,102.5C 439.816,97.4593 438.982,92.7927 436,88.5C 435.667,89.1667 435.333,89.8333 435,90.5C 433.381,88.0441 432.881,85.5441 433.5,83C 432.638,80.2656 431.805,80.0989 431,82.5C 430.472,76.6468 427.639,71.8135 422.5,68C 421.167,68 419.833,68 418.5,68C 414.669,64.5811 410.335,61.9144 405.5,60C 406.167,59.6667 406.833,59.3333 407.5,59C 403.272,55.7752 398.605,54.7752 393.5,56C 394.5,55.6667 395.5,55.3333 396.5,55C 393.278,53.2705 389.944,53.1038 386.5,54.5C 382.845,53.9181 379.178,53.4181 375.5,53C 377.167,52.6667 378.833,52.3333 380.5,52C 376.999,51.664 373.499,51.8307 370,52.5C 368.5,52.3333 367,52.1667 365.5,52C 367.5,51.6667 369.5,51.3333 371.5,51C 367.984,50.5007 364.484,50.6674 361,51.5C 356.553,51.1988 356.719,50.6988 361.5,50C 360.667,49.8333 359.833,49.6667 359,49.5C 356.522,50.3319 354.022,50.4986 351.5,50C 352.5,49.6667 353.5,49.3333 354.5,49C 352.623,48.4242 350.789,48.5909 349,49.5C 347.238,49.0556 347.405,48.5556 349.5,48C 347.965,47.5038 346.465,47.6705 345,48.5C 343.238,48.0556 343.405,47.5556 345.5,47C 340.21,46.5413 335.543,45.5413 331.5,44C 331.198,42.3451 329.864,41.0118 327.5,40C 323.405,40.6579 319.405,39.9913 315.5,38C 318.167,37.3333 318.167,36.6667 315.5,36C 311.778,36.447 308.111,35.7803 304.5,34C 306.595,33.4444 306.762,32.9444 305,32.5C 302.459,33.664 299.959,33.4973 297.5,32C 298.167,31.6667 298.833,31.3333 299.5,31C 298.271,30.2189 296.938,29.7189 295.5,29.5C 293.527,30.3311 291.527,30.4978 289.5,30C 290.167,29.6667 290.833,29.3333 291.5,29C 288.442,27.2066 285.275,27.0399 282,28.5C 278.896,28.1493 279.063,27.6493 282.5,27C 281.833,26.8333 281.167,26.6667 280.5,26.5C 277.868,27.4399 275.202,27.6066 272.5,27C 273.833,26.6667 275.167,26.3333 276.5,26C 275.667,25.8333 274.833,25.6667 274,25.5C 270.861,26.4257 267.694,26.5923 264.5,26C 266.167,25.6667 267.833,25.3333 269.5,25C 268.333,24.8333 267.167,24.6667 266,24.5C 251.498,25.8244 236.998,25.8244 222.5,24.5C 221.5,24.6667 220.5,24.8333 219.5,25C 221.167,25.3333 222.833,25.6667 224.5,26C 221.131,26.6626 217.797,26.4959 214.5,25.5C 213.833,25.6667 213.167,25.8333 212.5,26C 213.5,26.3333 214.5,26.6667 215.5,27C 213.134,27.5625 210.801,27.3958 208.5,26.5C 207.833,26.6667 207.167,26.8333 206.5,27C 207.5,27.3333 208.5,27.6667 209.5,28C 207.833,28.3333 206.167,28.6667 204.5,29C 207.856,29.2148 211.189,29.2148 214.5,29C 212.431,29.3242 212.098,30.1575 213.5,31.5C 216.886,31.9749 219.22,33.1416 220.5,35C 218.649,35.8372 216.816,36.6705 215,37.5C 214.026,33.8598 211.693,31.5264 208,30.5C 207.751,31.624 207.251,32.624 206.5,33.5C 204.45,32.9234 203.45,31.5901 203.5,29.5C 201.453,29.5111 199.453,29.8444 197.5,30.5C 197.001,29.2437 195.668,28.4104 193.5,28C 206.82,24.8381 220.153,22.6714 233.5,21.5 Z"/></g>
<g><path style="opacity:1" fill="#3dc4ee" d="M 289.5,84.5 C 291.909,85.7007 293.909,87.3674 295.5,89.5C 294.98,92.1926 293.48,94.1926 291,95.5C 290.51,96.7932 290.343,98.1266 290.5,99.5C 281.983,99.1739 273.65,99.5073 265.5,100.5C 261.5,103.5 261.5,106.5 265.5,109.5C 265.293,114.284 262.96,117.284 258.5,118.5C 253.964,110.533 253.297,102.2 256.5,93.5C 258.806,90.5271 261.473,87.8605 264.5,85.5C 272.63,80.6189 280.963,80.2856 289.5,84.5 Z"/></g>
<g><path style="opacity:1" fill="#41caf0" d="M 344.5,82.5 C 345.833,83.1667 347.167,83.8333 348.5,84.5C 348.16,86.679 347.16,88.5123 345.5,90C 340.847,91.8538 336.18,92.6871 331.5,92.5C 326,91.8314 323.833,94.1647 325,99.5C 326.892,101.054 328.392,102.888 329.5,105C 327.365,106.754 325.698,108.921 324.5,111.5C 323.108,113.273 321.941,115.273 321,117.5C 319.989,118.337 318.822,118.67 317.5,118.5C 312.39,109.615 312.224,100.615 317,91.5C 319.037,89.2941 321.203,87.2941 323.5,85.5C 329.938,81.3739 336.938,80.3739 344.5,82.5 Z"/></g>
<g><path style="opacity:1" fill="#004ec9" d="M 264.5,85.5 C 261.473,87.8605 258.806,90.5271 256.5,93.5C 256.565,93.0618 256.399,92.7284 256,92.5C 252.365,97.4546 249.865,102.621 248.5,108C 248.5,111 248.5,114 248.5,117C 250.308,126.904 255.641,134.904 264.5,141C 261.635,141.183 258.969,141.683 256.5,142.5C 253.5,142.5 250.5,142.5 247.5,142.5C 189.167,142.5 130.833,142.5 72.5,142.5C 71.8333,142.5 71.1667,142.5 70.5,142.5C 70.3893,141.883 70.056,141.383 69.5,141C 70.8932,139.829 71.7265,138.329 72,136.5C 72.4996,129.842 72.6663,123.175 72.5,116.5C 73.5,116.833 74.1667,117.5 74.5,118.5C 77.0716,122.747 80.7382,125.414 85.5,126.5C 86.2625,127.268 87.2625,127.768 88.5,128C 129.167,128.667 169.833,128.667 210.5,128C 226.176,123.475 232.176,113.308 228.5,97.5C 227.304,92.4204 224.638,88.4204 220.5,85.5C 235.343,85.1064 250.01,85.1064 264.5,85.5 Z"/></g>
<g><path style="opacity:0.008" fill="#55aaa9" d="M 442.5,91.5 C 446.106,101.389 447.772,111.723 447.5,122.5C 446.315,112.223 444.648,101.889 442.5,91.5 Z"/></g>
<g><path style="opacity:0.004" fill="#000000" d="M 453.5,95.5 C 455.054,99.5667 455.72,103.9 455.5,108.5C 454.291,104.382 453.624,100.049 453.5,95.5 Z"/></g>
<g><path style="opacity:1" fill="#00154c" d="M 218.5,84.5 C 219.384,88.4896 218.051,91.3229 214.5,93C 196.664,93.451 178.831,93.2843 161,92.5C 140.122,92.7465 119.289,93.5798 98.5,95C 90.1137,97.3858 85.2804,102.886 84,111.5C 82.615,116.399 79.4484,118.733 74.5,118.5C 74.1667,117.5 73.5,116.833 72.5,116.5C 71.1494,112.463 70.4827,108.296 70.5,104C 70.5387,92.297 76.2053,84.9636 87.5,82C 129.167,81.3333 170.833,81.3333 212.5,82C 214.488,82.9383 216.488,83.7717 218.5,84.5 Z"/></g>
<g><path style="opacity:0.004" fill="#000000" d="M 34.5,98.5 C 33.5625,107.651 32.5625,116.651 31.5,125.5C 31.1344,116.208 32.1344,107.208 34.5,98.5 Z"/></g>
<g><path style="opacity:1" fill="#00329c" d="M 323.5,85.5 C 321.203,87.2941 319.037,89.2941 317,91.5C 312.224,100.615 312.39,109.615 317.5,118.5C 326.337,129.101 337.004,131.268 349.5,125C 352.036,122.295 354.703,119.795 357.5,117.5C 358.939,119.588 359.606,121.921 359.5,124.5C 358.325,124.281 357.325,124.614 356.5,125.5C 357.18,126.86 357.847,128.193 358.5,129.5C 357.21,130.058 356.377,131.058 356,132.5C 354.334,131.66 354.167,132.16 355.5,134C 342.147,141.012 329.147,137.678 316.5,124C 313.674,121.397 310.674,121.064 307.5,123C 302.403,128.1 296.736,132.433 290.5,136C 278.556,139.463 268.723,136.297 261,126.5C 259.589,124.35 258.755,122.016 258.5,119.5C 261.687,122.593 265.354,124.927 269.5,126.5C 288.292,130.733 298.959,123.066 301.5,103.5C 301.105,98.0539 299.105,93.3873 295.5,89.5C 293.909,87.3674 291.909,85.7007 289.5,84.5C 290.152,83.2749 291.319,82.6083 293,82.5C 302.149,83.2354 311.316,83.7354 320.5,84C 321.737,84.2321 322.737,84.7321 323.5,85.5 Z"/></g>
<g><path style="opacity:1" fill="#0029a6" d="M 374.5,78.5 C 374.5,79.5 374.5,80.5 374.5,81.5C 373.503,101.326 373.17,121.326 373.5,141.5C 368.767,141.777 364.1,141.443 359.5,140.5C 358.756,139.009 358.09,137.509 357.5,136C 358.833,135 358.833,134 357.5,133C 359.727,132.296 360.06,131.129 358.5,129.5C 360.112,130.452 361.612,130.786 363,130.5C 370.326,120.2 371.326,109.2 366,97.5C 364.667,96.8333 363.667,95.8333 363,94.5C 361.448,94.0111 360.281,94.6777 359.5,96.5C 357.795,92.437 355.128,89.1037 351.5,86.5C 354.907,84.6208 358.24,82.4541 361.5,80C 364.057,78.8814 366.557,78.7147 369,79.5C 370.861,78.1271 372.694,77.7938 374.5,78.5 Z"/></g>
<g><path style="opacity:1" fill="#1e98db" d="M 295.5,89.5 C 299.105,93.3873 301.105,98.0539 301.5,103.5C 298.959,123.066 288.292,130.733 269.5,126.5C 269.483,124.885 270.483,123.385 272.5,122C 280.134,120.03 286.134,115.863 290.5,109.5C 294.001,107.138 294.335,104.305 291.5,101C 282.84,100.5 274.173,100.334 265.5,100.5C 273.65,99.5073 281.983,99.1739 290.5,99.5C 290.343,98.1266 290.51,96.7932 291,95.5C 293.48,94.1926 294.98,92.1926 295.5,89.5 Z"/></g>
<g><path style="opacity:1" fill="#239ddd" d="M 348.5,84.5 C 349.5,85.1667 350.5,85.8333 351.5,86.5C 355.128,89.1037 357.795,92.437 359.5,96.5C 361.143,103.733 360.477,110.733 357.5,117.5C 354.703,119.795 352.036,122.295 349.5,125C 337.004,131.268 326.337,129.101 317.5,118.5C 318.822,118.67 319.989,118.337 321,117.5C 321.941,115.273 323.108,113.273 324.5,111.5C 324.305,114.779 325.805,116.779 329,117.5C 331.933,116.229 334.599,114.562 337,112.5C 339.378,114.383 341.878,116.05 344.5,117.5C 348.283,116.563 349.783,114.229 349,110.5C 347.456,108.631 345.956,106.797 344.5,105C 345.985,102.844 347.485,100.677 349,98.5C 349.656,94.9792 348.156,92.9792 344.5,92.5C 341.326,93.3386 338.659,95.0053 336.5,97.5C 334.812,95.8123 333.146,94.1457 331.5,92.5C 336.18,92.6871 340.847,91.8538 345.5,90C 347.16,88.5123 348.16,86.679 348.5,84.5 Z"/></g>
<g><path style="opacity:1" fill="#00327b" d="M 218.5,84.5 C 219.167,84.8333 219.833,85.1667 220.5,85.5C 224.638,88.4204 227.304,92.4204 228.5,97.5C 224.862,97.7377 222.029,99.4044 220,102.5C 217.287,111.214 211.454,116.381 202.5,118C 198.247,118.2 194.08,118.7 190,119.5C 158.718,119.477 127.718,119.143 97,118.5C 91.4542,118.845 87.6209,121.512 85.5,126.5C 80.7382,125.414 77.0716,122.747 74.5,118.5C 79.4484,118.733 82.615,116.399 84,111.5C 85.2804,102.886 90.1137,97.3858 98.5,95C 119.289,93.5798 140.122,92.7465 161,92.5C 178.831,93.2843 196.664,93.451 214.5,93C 218.051,91.3229 219.384,88.4896 218.5,84.5 Z"/></g>
<g><path style="opacity:0.008" fill="#55aaa9" d="M 41.5,113.5 C 40.4219,150.492 40.2552,187.492 41,224.5C 41.6912,236.886 42.8578,249.219 44.5,261.5C 41.8083,249.793 40.3083,237.793 40,225.5C 39.3333,192.167 39.3333,158.833 40,125.5C 40.1762,121.312 40.6762,117.312 41.5,113.5 Z"/></g>
<g><path style="opacity:1" fill="#00459a" d="M 228.5,97.5 C 232.176,113.308 226.176,123.475 210.5,128C 169.833,128.667 129.167,128.667 88.5,128C 87.2625,127.768 86.2625,127.268 85.5,126.5C 87.6209,121.512 91.4542,118.845 97,118.5C 127.718,119.143 158.718,119.477 190,119.5C 194.08,118.7 198.247,118.2 202.5,118C 211.454,116.381 217.287,111.214 220,102.5C 222.029,99.4044 224.862,97.7377 228.5,97.5 Z"/></g>
<g><path style="opacity:0.012" fill="#479bd1" d="M 52.5,84.5 C 54.7024,86.9784 54.8691,89.645 53,92.5C 52.6827,90.6992 52.016,90.3659 51,91.5C 47.9273,98.2618 46.9273,105.262 48,112.5C 47.6667,111.5 47.3333,110.5 47,109.5C 46.8333,110.167 46.6667,110.833 46.5,111.5C 47.5148,115.131 47.6814,118.798 47,122.5C 46.6667,120.5 46.3333,118.5 46,116.5C 46.6539,157.163 46.6539,197.829 46,238.5C 46.3333,235.833 46.6667,233.167 47,230.5C 47.6496,235.191 47.4829,239.857 46.5,244.5C 46.6667,245.5 46.8333,246.5 47,247.5C 47.3333,245.833 47.6667,244.167 48,242.5C 48.5923,245.694 48.4257,248.861 47.5,252C 47.6667,252.833 47.8333,253.667 48,254.5C 48.3333,253.167 48.6667,251.833 49,250.5C 50.2793,255.179 50.6126,259.846 50,264.5C 50.763,261.937 51.263,261.937 51.5,264.5C 50.0222,267.604 50.1889,270.604 52,273.5C 52.3333,272.5 52.6667,271.5 53,270.5C 53,273.167 53,275.833 53,278.5C 53.6667,281.167 54.3333,281.167 55,278.5C 56.7803,282.111 57.447,285.778 57,289.5C 57.6667,292.167 58.3333,292.167 59,289.5C 59.1699,291.845 58.8365,294.179 58,296.5C 46.3856,265.932 41.3856,234.265 43,201.5C 42.316,173.489 42.6493,145.489 44,117.5C 44.8736,105.955 47.7069,94.9547 52.5,84.5 Z"/></g>
<g><path style="opacity:0.008" fill="#55aaa9" d="M 447.5,122.5 C 448.308,147.001 448.974,171.667 449.5,196.5C 449.221,212.036 448.221,227.37 446.5,242.5C 447.064,227.165 447.731,211.832 448.5,196.5C 447.581,171.843 447.248,147.177 447.5,122.5 Z"/></g>
<g><path style="opacity:0.004" fill="#000000" d="M 456.5,125.5 C 457.664,160.331 457.831,195.331 457,230.5C 456.824,234.688 456.324,238.688 455.5,242.5C 456.417,203.509 456.75,164.509 456.5,125.5 Z"/></g>
<g><path style="opacity:1" fill="#003fb1" d="M 374.5,81.5 C 374.5,101.833 374.5,122.167 374.5,142.5C 370.5,142.5 366.5,142.5 362.5,142.5C 327.167,142.5 291.833,142.5 256.5,142.5C 258.969,141.683 261.635,141.183 264.5,141C 255.641,134.904 250.308,126.904 248.5,117C 248.5,114 248.5,111 248.5,108C 249.865,102.621 252.365,97.4546 256,92.5C 256.399,92.7284 256.565,93.0618 256.5,93.5C 253.297,102.2 253.964,110.533 258.5,118.5C 258.5,118.833 258.5,119.167 258.5,119.5C 258.755,122.016 259.589,124.35 261,126.5C 268.723,136.297 278.556,139.463 290.5,136C 296.736,132.433 302.403,128.1 307.5,123C 310.674,121.064 313.674,121.397 316.5,124C 329.147,137.678 342.147,141.012 355.5,134C 354.167,132.16 354.334,131.66 356,132.5C 356.377,131.058 357.21,130.058 358.5,129.5C 360.06,131.129 359.727,132.296 357.5,133C 358.833,134 358.833,135 357.5,136C 358.09,137.509 358.756,139.009 359.5,140.5C 364.1,141.443 368.767,141.777 373.5,141.5C 373.17,121.326 373.503,101.326 374.5,81.5 Z"/></g>
<g><path style="opacity:1" fill="#2aaae3" d="M 265.5,109.5 C 273.833,109.5 282.167,109.5 290.5,109.5C 286.134,115.863 280.134,120.03 272.5,122C 270.483,123.385 269.483,124.885 269.5,126.5C 265.354,124.927 261.687,122.593 258.5,119.5C 258.5,119.167 258.5,118.833 258.5,118.5C 262.96,117.284 265.293,114.284 265.5,109.5 Z"/></g>
<g><path style="opacity:1" fill="#001683" d="M 358.5,129.5 C 357.847,128.193 357.18,126.86 356.5,125.5C 357.325,124.614 358.325,124.281 359.5,124.5C 359.606,121.921 358.939,119.588 357.5,117.5C 360.477,110.733 361.143,103.733 359.5,96.5C 360.281,94.6777 361.448,94.0111 363,94.5C 363.667,95.8333 364.667,96.8333 366,97.5C 371.326,109.2 370.326,120.2 363,130.5C 361.612,130.786 360.112,130.452 358.5,129.5 Z"/></g>
<g><path style="opacity:1" fill="#0037b8" d="M 265.5,100.5 C 274.173,100.334 282.84,100.5 291.5,101C 294.335,104.305 294.001,107.138 290.5,109.5C 282.167,109.5 273.833,109.5 265.5,109.5C 261.5,106.5 261.5,103.5 265.5,100.5 Z"/></g>
<g><path style="opacity:1" fill="#023ab9" d="M 331.5,92.5 C 333.146,94.1457 334.812,95.8123 336.5,97.5C 338.659,95.0053 341.326,93.3386 344.5,92.5C 348.156,92.9792 349.656,94.9792 349,98.5C 347.485,100.677 345.985,102.844 344.5,105C 345.956,106.797 347.456,108.631 349,110.5C 349.783,114.229 348.283,116.563 344.5,117.5C 341.878,116.05 339.378,114.383 337,112.5C 334.599,114.562 331.933,116.229 329,117.5C 325.805,116.779 324.305,114.779 324.5,111.5C 325.698,108.921 327.365,106.754 329.5,105C 328.392,102.888 326.892,101.054 325,99.5C 323.833,94.1647 326,91.8314 331.5,92.5 Z"/></g>
<g><path style="opacity:1" fill="#002d73" d="M 247.5,142.5 C 250.5,142.5 253.5,142.5 256.5,142.5C 291.833,142.5 327.167,142.5 362.5,142.5C 362.291,143.922 361.791,145.255 361,146.5C 360.667,164.5 360.333,182.5 360,200.5C 357.355,228.448 348.022,253.781 332,276.5C 330.667,279.833 329.333,283.167 328,286.5C 322.64,292.77 317.14,298.937 311.5,305C 303.026,309.448 295.026,314.781 287.5,321C 249.026,342.686 208.026,348.686 164.5,339C 154.29,335.979 144.124,332.812 134,329.5C 131.266,329.989 130.433,331.323 131.5,333.5C 125.976,330.908 120.976,327.575 116.5,323.5C 117.028,322.279 117.695,321.113 118.5,320C 117.663,318.989 117.33,317.822 117.5,316.5C 119.124,316.64 120.29,315.973 121,314.5C 121.333,314.833 121.667,315.167 122,315.5C 123.507,314.495 124.673,313.162 125.5,311.5C 158.916,332.083 194.916,338.583 233.5,331C 227.784,330.718 222.117,330.052 216.5,329C 206.248,323.03 195.581,319.363 184.5,318C 169.532,311.563 164.032,300.396 168,284.5C 170.003,276.498 174.836,270.998 182.5,268C 193.813,266.173 204.479,262.506 214.5,257C 233.291,252.673 250.291,257.339 265.5,271C 265.167,271.333 264.833,271.667 264.5,272C 266.184,273.74 268.018,274.906 270,275.5C 272.347,279.191 273.847,283.191 274.5,287.5C 275.973,297.582 273.306,306.415 266.5,314C 258.591,320.309 249.258,325.309 238.5,329C 271.079,321.454 297.912,304.62 319,278.5C 334.37,259.111 344.203,237.444 348.5,213.5C 348.833,210.833 349.167,208.167 349.5,205.5C 350.324,201.688 350.824,197.688 351,193.5C 351.5,181.171 351.667,168.838 351.5,156.5C 345.537,157.53 339.537,157.697 333.5,157C 334.696,156.346 334.696,155.846 333.5,155.5C 332.554,155.987 331.554,156.32 330.5,156.5C 324.236,154.197 317.902,152.197 311.5,150.5C 304.28,152.937 296.947,155.104 289.5,157C 284.5,157.667 279.5,157.667 274.5,157C 275.696,156.346 275.696,155.846 274.5,155.5C 263.646,155.241 254.646,150.908 247.5,142.5 Z"/></g>
<g><path style="opacity:1" fill="#00499f" d="M 55.5,142.5 C 60.5,142.5 65.5,142.5 70.5,142.5C 71.1667,142.5 71.8333,142.5 72.5,142.5C 72.7086,143.922 73.2086,145.255 74,146.5C 74.3333,170.5 74.6667,194.5 75,218.5C 75.4847,235.104 78.818,251.104 85,266.5C 91.7055,280.078 98.5389,293.578 105.5,307C 103.846,307.608 102.179,308.108 100.5,308.5C 74.9797,282.787 60.1464,251.787 56,215.5C 55.5,191.169 55.3334,166.836 55.5,142.5 Z"/></g>
<g><path style="opacity:1" fill="#001a54" d="M 362.5,142.5 C 366.5,142.5 370.5,142.5 374.5,142.5C 374.882,169.19 374.382,195.856 373,222.5C 359.245,289.92 319.412,333.42 253.5,353C 213.768,362.363 175.768,357.697 139.5,339C 136.593,337.391 133.927,335.558 131.5,333.5C 130.433,331.323 131.266,329.989 134,329.5C 144.124,332.812 154.29,335.979 164.5,339C 208.026,348.686 249.026,342.686 287.5,321C 295.026,314.781 303.026,309.448 311.5,305C 317.14,298.937 322.64,292.77 328,286.5C 329.333,283.167 330.667,279.833 332,276.5C 348.022,253.781 357.355,228.448 360,200.5C 360.333,182.5 360.667,164.5 361,146.5C 361.791,145.255 362.291,143.922 362.5,142.5 Z"/></g>
<g><path style="opacity:1" fill="#0053b0" d="M 61.5,145.5 C 65.1816,144.725 67.6816,146.059 69,149.5C 69.3333,174.167 69.6667,198.833 70,223.5C 70.6719,231.542 71.6719,239.542 73,247.5C 75.0409,255.597 77.0409,263.597 79,271.5C 68.9825,257.804 62.6492,242.471 60,225.5C 58.4233,200.193 58.09,174.86 59,149.5C 59.6622,148.016 60.4955,146.683 61.5,145.5 Z"/></g>
<g><path style="opacity:1" fill="#cae3f9" d="M 341.5,186.5 C 339.205,189.027 336.205,190.527 332.5,191C 327.833,191.333 323.167,191.667 318.5,192C 308.985,193.01 306.985,197.51 312.5,205.5C 312.413,207.703 312.413,209.87 312.5,212C 302.793,223.421 291.96,224.255 280,214.5C 277.884,212.004 277.384,209.337 278.5,206.5C 279.653,209.47 281.32,212.137 283.5,214.5C 289.816,218.71 295.983,218.377 302,213.5C 304.132,209.792 304.965,205.792 304.5,201.5C 301.803,193.982 296.469,190.815 288.5,192C 285.403,193.273 282.736,195.107 280.5,197.5C 273.191,191.806 265.524,190.972 257.5,195C 258.093,198.645 259.426,201.979 261.5,205C 261.559,208.318 261.226,211.818 260.5,215.5C 257.06,216.698 253.893,218.365 251,220.5C 246.491,222.044 242.157,221.711 238,219.5C 237.667,219.833 237.333,220.167 237,220.5C 235.736,218.393 233.903,217.393 231.5,217.5C 231.5,216.5 231.5,215.5 231.5,214.5C 240.246,219.657 247.413,217.991 253,209.5C 253.497,207.19 253.663,204.857 253.5,202.5C 251.976,195.65 247.642,191.983 240.5,191.5C 237.483,191.726 234.816,192.726 232.5,194.5C 232.586,193.504 232.252,192.671 231.5,192C 222.113,190.029 212.78,190.362 203.5,193C 201.371,196.974 202.371,200.307 206.5,203C 207.797,215.365 202.13,220.698 189.5,219C 188.944,218.617 188.611,218.117 188.5,217.5C 199.708,216.408 204.041,210.408 201.5,199.5C 196.483,191.273 189.817,189.606 181.5,194.5C 181.119,193.069 180.119,192.236 178.5,192C 169.646,189.704 160.979,190.204 152.5,193.5C 151.369,195.074 151.202,196.741 152,198.5C 154.217,202.094 155.717,205.927 156.5,210C 152.65,217.926 146.65,220.926 138.5,219C 137.944,218.617 137.611,218.117 137.5,217.5C 146.019,217.314 150.686,212.981 151.5,204.5C 151.639,202.117 150.972,200.117 149.5,198.5C 145.954,192.894 140.954,190.894 134.5,192.5C 120.447,185.4 107.447,187.4 95.5,198.5C 94.4195,204.574 92.2529,210.24 89,215.5C 87.8869,216.711 86.7202,216.711 85.5,215.5C 84.7025,215.957 84.3691,216.624 84.5,217.5C 76.9725,199.053 82.6392,186.553 101.5,180C 176.5,179.333 251.5,179.333 326.5,180C 332.297,180.571 337.297,182.738 341.5,186.5 Z"/></g>
<g><path style="opacity:1" fill="#e7f1fa" d="M 344.5,190.5 C 348.334,194.668 350,199.668 349.5,205.5C 349.167,208.167 348.833,210.833 348.5,213.5C 344.351,222.467 337.351,227.967 327.5,230C 255.5,230.667 183.5,230.667 111.5,230C 105.956,230.003 100.622,229.169 95.5,227.5C 96.5624,225.444 96.2291,223.444 94.5,221.5C 96.9465,215.84 99.6132,210.34 102.5,205C 102.167,204.667 101.833,204.333 101.5,204C 104.918,201.692 108.751,199.525 113,197.5C 114.046,199.09 115.213,200.59 116.5,202C 115.399,205.392 115.399,209.059 116.5,213C 124.057,220.862 133.224,225.362 144,226.5C 152.191,224.102 160.191,221.102 168,217.5C 173.707,218.647 178.207,220.814 181.5,224C 186.312,224.979 191.145,225.812 196,226.5C 203.76,223.652 211.427,220.652 219,217.5C 225.991,220.483 232.991,223.483 240,226.5C 243.197,225.643 246.197,225.643 249,226.5C 255.969,223.183 262.969,219.849 270,216.5C 277.031,219.849 284.031,223.183 291,226.5C 293.803,225.643 296.803,225.643 300,226.5C 309.003,223.502 316.669,218.502 323,211.5C 323.664,208.484 323.164,205.651 321.5,203C 323.141,201.354 322.807,200.354 320.5,200C 321.672,199.581 322.672,198.915 323.5,198C 331.384,197.762 338.384,195.262 344.5,190.5 Z"/></g>
<g><path style="opacity:1" fill="#ddeefc" d="M 341.5,186.5 C 342.974,187.436 343.974,188.77 344.5,190.5C 338.384,195.262 331.384,197.762 323.5,198C 322.672,198.915 321.672,199.581 320.5,200C 322.807,200.354 323.141,201.354 321.5,203C 323.164,205.651 323.664,208.484 323,211.5C 316.669,218.502 309.003,223.502 300,226.5C 296.803,225.643 293.803,225.643 291,226.5C 284.031,223.183 277.031,219.849 270,216.5C 262.969,219.849 255.969,223.183 249,226.5C 246.197,225.643 243.197,225.643 240,226.5C 232.991,223.483 225.991,220.483 219,217.5C 211.427,220.652 203.76,223.652 196,226.5C 191.145,225.812 186.312,224.979 181.5,224C 178.207,220.814 173.707,218.647 168,217.5C 160.191,221.102 152.191,224.102 144,226.5C 133.224,225.362 124.057,220.862 116.5,213C 115.399,209.059 115.399,205.392 116.5,202C 115.213,200.59 114.046,199.09 113,197.5C 108.751,199.525 104.918,201.692 101.5,204C 101.833,204.333 102.167,204.667 102.5,205C 99.6132,210.34 96.9465,215.84 94.5,221.5C 96.2291,223.444 96.5624,225.444 95.5,227.5C 90.5588,225.558 86.8922,222.225 84.5,217.5C 84.3691,216.624 84.7025,215.957 85.5,215.5C 86.7202,216.711 87.8869,216.711 89,215.5C 92.2529,210.24 94.4195,204.574 95.5,198.5C 107.447,187.4 120.447,185.4 134.5,192.5C 126.935,195.629 124.102,201.296 126,209.5C 126.377,210.942 127.21,211.942 128.5,212.5C 130.453,215.978 133.453,217.645 137.5,217.5C 137.611,218.117 137.944,218.617 138.5,219C 146.65,220.926 152.65,217.926 156.5,210C 155.717,205.927 154.217,202.094 152,198.5C 151.202,196.741 151.369,195.074 152.5,193.5C 160.979,190.204 169.646,189.704 178.5,192C 180.119,192.236 181.119,193.069 181.5,194.5C 175.729,199.994 175.063,205.994 179.5,212.5C 181.453,215.978 184.453,217.645 188.5,217.5C 188.611,218.117 188.944,218.617 189.5,219C 202.13,220.698 207.797,215.365 206.5,203C 202.371,200.307 201.371,196.974 203.5,193C 212.78,190.362 222.113,190.029 231.5,192C 232.252,192.671 232.586,193.504 232.5,194.5C 226.389,200.584 226.056,206.917 231.5,213.5C 231.5,213.833 231.5,214.167 231.5,214.5C 231.5,215.5 231.5,216.5 231.5,217.5C 233.903,217.393 235.736,218.393 237,220.5C 237.333,220.167 237.667,219.833 238,219.5C 242.157,221.711 246.491,222.044 251,220.5C 253.893,218.365 257.06,216.698 260.5,215.5C 261.226,211.818 261.559,208.318 261.5,205C 259.426,201.979 258.093,198.645 257.5,195C 265.524,190.972 273.191,191.806 280.5,197.5C 279.071,200.308 278.405,203.308 278.5,206.5C 277.384,209.337 277.884,212.004 280,214.5C 291.96,224.255 302.793,223.421 312.5,212C 312.413,209.87 312.413,207.703 312.5,205.5C 306.985,197.51 308.985,193.01 318.5,192C 323.167,191.667 327.833,191.333 332.5,191C 336.205,190.527 339.205,189.027 341.5,186.5 Z"/></g>
<g><path style="opacity:1" fill="#42c4ee" d="M 149.5,198.5 C 143.852,202.31 137.852,205.476 131.5,208C 129.561,208.908 128.561,210.408 128.5,212.5C 127.21,211.942 126.377,210.942 126,209.5C 124.102,201.296 126.935,195.629 134.5,192.5C 140.954,190.894 145.954,192.894 149.5,198.5 Z"/></g>
<g><path style="opacity:1" fill="#41c4ee" d="M 201.5,199.5 C 194.185,201.989 187.185,205.323 180.5,209.5C 179.614,210.325 179.281,211.325 179.5,212.5C 175.063,205.994 175.729,199.994 181.5,194.5C 189.817,189.606 196.483,191.273 201.5,199.5 Z"/></g>
<g><path style="opacity:1" fill="#3dbeeb" d="M 304.5,201.5 C 299.33,203.081 294.33,205.247 289.5,208C 286.614,209.385 284.614,211.551 283.5,214.5C 281.32,212.137 279.653,209.47 278.5,206.5C 278.405,203.308 279.071,200.308 280.5,197.5C 282.736,195.107 285.403,193.273 288.5,192C 296.469,190.815 301.803,193.982 304.5,201.5 Z"/></g>
<g><path style="opacity:1" fill="#3ebfeb" d="M 253.5,202.5 C 252.504,202.586 251.671,202.252 251,201.5C 243.838,204.653 237.338,208.653 231.5,213.5C 226.056,206.917 226.389,200.584 232.5,194.5C 234.816,192.726 237.483,191.726 240.5,191.5C 247.642,191.983 251.976,195.65 253.5,202.5 Z"/></g>
<g><path style="opacity:1" fill="#28a5e1" d="M 149.5,198.5 C 150.972,200.117 151.639,202.117 151.5,204.5C 150.686,212.981 146.019,217.314 137.5,217.5C 133.453,217.645 130.453,215.978 128.5,212.5C 128.561,210.408 129.561,208.908 131.5,208C 137.852,205.476 143.852,202.31 149.5,198.5 Z"/></g>
<g><path style="opacity:1" fill="#28a5e1" d="M 201.5,199.5 C 204.041,210.408 199.708,216.408 188.5,217.5C 184.453,217.645 181.453,215.978 179.5,212.5C 179.281,211.325 179.614,210.325 180.5,209.5C 187.185,205.323 194.185,201.989 201.5,199.5 Z"/></g>
<g><path style="opacity:1" fill="#26a2e0" d="M 253.5,202.5 C 253.663,204.857 253.497,207.19 253,209.5C 247.413,217.991 240.246,219.657 231.5,214.5C 231.5,214.167 231.5,213.833 231.5,213.5C 237.338,208.653 243.838,204.653 251,201.5C 251.671,202.252 252.504,202.586 253.5,202.5 Z"/></g>
<g><path style="opacity:1" fill="#28a3e0" d="M 304.5,201.5 C 304.965,205.792 304.132,209.792 302,213.5C 295.983,218.377 289.816,218.71 283.5,214.5C 284.614,211.551 286.614,209.385 289.5,208C 294.33,205.247 299.33,203.081 304.5,201.5 Z"/></g>
<g><path style="opacity:1" fill="#00327b" d="M 72.5,142.5 C 130.833,142.5 189.167,142.5 247.5,142.5C 254.646,150.908 263.646,155.241 274.5,155.5C 275.696,155.846 275.696,156.346 274.5,157C 279.5,157.667 284.5,157.667 289.5,157C 296.947,155.104 304.28,152.937 311.5,150.5C 317.902,152.197 324.236,154.197 330.5,156.5C 331.554,156.32 332.554,155.987 333.5,155.5C 334.696,155.846 334.696,156.346 333.5,157C 339.537,157.697 345.537,157.53 351.5,156.5C 351.667,168.838 351.5,181.171 351,193.5C 350.824,197.688 350.324,201.688 349.5,205.5C 350,199.668 348.334,194.668 344.5,190.5C 343.974,188.77 342.974,187.436 341.5,186.5C 337.297,182.738 332.297,180.571 326.5,180C 251.5,179.333 176.5,179.333 101.5,180C 82.6392,186.553 76.9725,199.053 84.5,217.5C 86.8922,222.225 90.5588,225.558 95.5,227.5C 100.622,229.169 105.956,230.003 111.5,230C 183.5,230.667 255.5,230.667 327.5,230C 337.351,227.967 344.351,222.467 348.5,213.5C 344.203,237.444 334.37,259.111 319,278.5C 297.912,304.62 271.079,321.454 238.5,329C 249.258,325.309 258.591,320.309 266.5,314C 273.306,306.415 275.973,297.582 274.5,287.5C 273.847,283.191 272.347,279.191 270,275.5C 268.018,274.906 266.184,273.74 264.5,272C 264.833,271.667 265.167,271.333 265.5,271C 250.291,257.339 233.291,252.673 214.5,257C 204.479,262.506 193.813,266.173 182.5,268C 174.836,270.998 170.003,276.498 168,284.5C 164.032,300.396 169.532,311.563 184.5,318C 195.581,319.363 206.248,323.03 216.5,329C 222.117,330.052 227.784,330.718 233.5,331C 194.916,338.583 158.916,332.083 125.5,311.5C 124.673,313.162 123.507,314.495 122,315.5C 121.667,315.167 121.333,314.833 121,314.5C 120.29,315.973 119.124,316.64 117.5,316.5C 117.33,317.822 117.663,318.989 118.5,320C 117.695,321.113 117.028,322.279 116.5,323.5C 110.537,319.205 105.204,314.205 100.5,308.5C 102.179,308.108 103.846,307.608 105.5,307C 98.5389,293.578 91.7055,280.078 85,266.5C 78.818,251.104 75.4847,235.104 75,218.5C 74.6667,194.5 74.3333,170.5 74,146.5C 73.2086,145.255 72.7086,143.922 72.5,142.5 Z"/></g>
<g><path style="opacity:0.004" fill="#000000" d="M 31.5,223.5 C 32.5742,231.986 33.2409,240.653 33.5,249.5C 31.8633,241.056 31.1967,232.389 31.5,223.5 Z"/></g>
<g><path style="opacity:0.004" fill="#000000" d="M 33.5,249.5 C 35.0191,255.621 36.0191,261.954 36.5,268.5C 34.5473,262.444 33.5473,256.111 33.5,249.5 Z"/></g>
<g><path style="opacity:0.004" fill="#000000" d="M 454.5,251.5 C 454.227,259.149 452.894,266.482 450.5,273.5C 451.42,265.966 452.754,258.633 454.5,251.5 Z"/></g>
<g><path style="opacity:1" fill="#36b9e8" d="M 234.5,274.5 C 234.343,275.873 234.51,277.207 235,278.5C 236.816,279.329 238.649,280.163 240.5,281C 237.525,281.336 234.858,281.169 232.5,280.5C 231.205,281.098 229.872,281.598 228.5,282C 227.009,284.83 224.509,287.33 221,289.5C 220.676,287.431 219.842,287.098 218.5,288.5C 209.76,283.879 200.76,283.046 191.5,286C 189.796,288.547 187.463,290.047 184.5,290.5C 181.714,290.044 180.381,288.377 180.5,285.5C 180.406,283.088 181.406,281.255 183.5,280C 194.848,279.832 206.181,279.332 217.5,278.5C 215.069,274.532 215.069,270.699 217.5,267C 218.833,266.333 220.167,266.333 221.5,267C 225.861,269.512 230.194,272.012 234.5,274.5 Z"/></g>
<g><path style="opacity:0.004" fill="#000000" d="M 39.5,280.5 C 40.9238,282.515 41.5905,284.848 41.5,287.5C 40.0762,285.485 39.4095,283.152 39.5,280.5 Z"/></g>
<g><path style="opacity:0.004" fill="#000000" d="M 448.5,281.5 C 447.473,287.915 445.473,293.915 442.5,299.5C 443.928,293.216 445.928,287.216 448.5,281.5 Z"/></g>
<g><path style="opacity:1" fill="#2cabe1" d="M 234.5,274.5 C 240.049,276.857 245.215,279.857 250,283.5C 250.92,286.308 250.087,288.475 247.5,290C 238.074,294.13 228.908,298.63 220,303.5C 218.289,303.561 216.956,302.894 216,301.5C 215.612,298.151 215.779,294.817 216.5,291.5C 205.654,291.828 194.987,291.494 184.5,290.5C 187.463,290.047 189.796,288.547 191.5,286C 200.76,283.046 209.76,283.879 218.5,288.5C 219.842,287.098 220.676,287.431 221,289.5C 224.509,287.33 227.009,284.83 228.5,282C 229.872,281.598 231.205,281.098 232.5,280.5C 234.858,281.169 237.525,281.336 240.5,281C 238.649,280.163 236.816,279.329 235,278.5C 234.51,277.207 234.343,275.873 234.5,274.5 Z"/></g>
<g><path style="opacity:0.004" fill="#000000" d="M 43.5,293.5 C 45.2671,295.792 46.2671,298.458 46.5,301.5C 44.7329,299.208 43.7329,296.542 43.5,293.5 Z"/></g>
<g><path style="opacity:0.004" fill="#000000" d="M 442.5,299.5 C 442.128,303.297 440.794,306.63 438.5,309.5C 439.263,305.863 440.597,302.53 442.5,299.5 Z"/></g>
<g><path style="opacity:0.004" fill="#000000" d="M 46.5,301.5 C 48.2927,303.426 49.2927,305.759 49.5,308.5C 47.7073,306.574 46.7073,304.241 46.5,301.5 Z"/></g>
<g><path style="opacity:0.004" fill="#000000" d="M 50.5,310.5 C 53.6745,315.516 56.3412,320.849 58.5,326.5C 54.7929,321.753 52.1263,316.419 50.5,310.5 Z"/></g>
<g><path style="opacity:0.004" fill="#000000" d="M 437.5,311.5 C 435.874,317.419 433.207,322.753 429.5,327.5C 431.659,321.849 434.326,316.516 437.5,311.5 Z"/></g>
<g><path style="opacity:0.004" fill="#000000" d="M 58.5,326.5 C 60.588,328.336 61.9213,330.669 62.5,333.5C 60.412,331.664 59.0787,329.331 58.5,326.5 Z"/></g>
<g><path style="opacity:0.004" fill="#000000" d="M 429.5,327.5 C 428.921,330.331 427.588,332.664 425.5,334.5C 426.079,331.669 427.412,329.336 429.5,327.5 Z"/></g>
<g><path style="opacity:1" fill="#001045" d="M 367.5,153.5 C 368.83,159.798 369.497,166.465 369.5,173.5C 377.471,239.777 353.471,292.277 297.5,331C 267.759,349.054 236.759,355.888 204.5,351.5C 268.972,346.153 317.139,315.486 349,259.5C 364.302,225.923 370.468,190.59 367.5,153.5 Z"/></g>
<g><path style="opacity:0.004" fill="#000000" d="M 62.5,333.5 C 65.6599,337.148 68.3265,341.148 70.5,345.5C 66.8442,342.197 64.1775,338.197 62.5,333.5 Z"/></g>
<g><path style="opacity:0.004" fill="#000000" d="M 425.5,334.5 C 425.573,336.027 424.906,337.027 423.5,337.5C 423.427,335.973 424.094,334.973 425.5,334.5 Z"/></g>
<g><path style="opacity:0.004" fill="#000000" d="M 423.5,337.5 C 423.155,340.198 421.822,342.198 419.5,343.5C 420.34,341.147 421.674,339.147 423.5,337.5 Z"/></g>
<g><path style="opacity:0.004" fill="#000000" d="M 419.5,343.5 C 419.573,345.027 418.906,346.027 417.5,346.5C 417.427,344.973 418.094,343.973 419.5,343.5 Z"/></g>
<g><path style="opacity:0.004" fill="#000000" d="M 70.5,345.5 C 71.9063,345.973 72.573,346.973 72.5,348.5C 71.0937,348.027 70.427,347.027 70.5,345.5 Z"/></g>
<g><path style="opacity:0.004" fill="#000000" d="M 417.5,346.5 C 417.262,348.404 416.262,349.738 414.5,350.5C 414.738,348.596 415.738,347.262 417.5,346.5 Z"/></g>
<g><path style="opacity:0.004" fill="#00807f" d="M 79.5,347.5 C 91.5,361.5 104.5,374.5 118.5,386.5C 114.12,384.3 110.12,381.467 106.5,378C 96.1543,368.833 87.1543,358.667 79.5,347.5 Z"/></g>
<g><path style="opacity:0.004" fill="#000000" d="M 72.5,348.5 C 74.2624,349.262 75.2624,350.596 75.5,352.5C 73.7376,351.738 72.7376,350.404 72.5,348.5 Z"/></g>
<g><path style="opacity:0.004" fill="#000000" d="M 414.5,350.5 C 414.262,352.404 413.262,353.738 411.5,354.5C 411.738,352.596 412.738,351.262 414.5,350.5 Z"/></g>
<g><path style="opacity:0.004" fill="#000000" d="M 75.5,352.5 C 77.5869,353.585 78.9202,355.251 79.5,357.5C 77.4131,356.415 76.0798,354.749 75.5,352.5 Z"/></g>
<g><path style="opacity:0.004" fill="#000000" d="M 411.5,354.5 C 410.92,356.749 409.587,358.415 407.5,359.5C 408.08,357.251 409.413,355.585 411.5,354.5 Z"/></g>
<g><path style="opacity:0.004" fill="#000000" d="M 79.5,357.5 C 81.914,358.911 83.5806,360.911 84.5,363.5C 82.086,362.089 80.4194,360.089 79.5,357.5 Z"/></g>
<g><path style="opacity:0.008" fill="#55aaa9" d="M 92.5,357.5 C 98.1667,362.5 103.5,367.833 108.5,373.5C 102.167,369.167 96.8333,363.833 92.5,357.5 Z"/></g>
<g><path style="opacity:0.004" fill="#000000" d="M 406.5,360.5 C 404.906,363.764 402.573,366.431 399.5,368.5C 401.094,365.236 403.427,362.569 406.5,360.5 Z"/></g>
<g><path style="opacity:0.004" fill="#000000" d="M 85.5,364.5 C 91.1667,369.5 96.5,374.833 101.5,380.5C 95.1667,376.167 89.8333,370.833 85.5,364.5 Z"/></g>
<g><path style="opacity:0.004" fill="#00807f" d="M 386.5,372.5 C 384.1,375.903 381.1,378.57 377.5,380.5C 379.9,377.097 382.9,374.43 386.5,372.5 Z"/></g>
<g><path style="opacity:0.004" fill="#000000" d="M 390.5,377.5 C 388.761,380.243 386.427,382.243 383.5,383.5C 385.239,380.757 387.573,378.757 390.5,377.5 Z"/></g>
<g><path style="opacity:0.004" fill="#00807f" d="M 377.5,380.5 C 376.375,382.129 375.041,383.629 373.5,385C 370.778,387.358 367.778,389.191 364.5,390.5C 368.284,386.443 372.617,383.109 377.5,380.5 Z"/></g>
<g><path style="opacity:0.004" fill="#000000" d="M 102.5,381.5 C 105.089,382.419 107.089,384.086 108.5,386.5C 105.911,385.581 103.911,383.914 102.5,381.5 Z"/></g>
<g><path style="opacity:0.004" fill="#000000" d="M 382.5,384.5 C 381.415,386.587 379.749,387.92 377.5,388.5C 378.585,386.413 380.251,385.08 382.5,384.5 Z"/></g>
<g><path style="opacity:0.004" fill="#000000" d="M 108.5,386.5 C 110.749,387.08 112.415,388.413 113.5,390.5C 111.251,389.92 109.585,388.587 108.5,386.5 Z"/></g>
<g><path style="opacity:0.004" fill="#000000" d="M 377.5,388.5 C 375.557,391.471 372.891,393.471 369.5,394.5C 371.8,392.016 374.467,390.016 377.5,388.5 Z"/></g>
<g><path style="opacity:0.004" fill="#000000" d="M 113.5,390.5 C 115.404,390.738 116.738,391.738 117.5,393.5C 115.596,393.262 114.262,392.262 113.5,390.5 Z"/></g>
<g><path style="opacity:0.004" fill="#000000" d="M 117.5,393.5 C 119.027,393.427 120.027,394.094 120.5,395.5C 118.973,395.573 117.973,394.906 117.5,393.5 Z"/></g>
<g><path style="opacity:0.004" fill="#000000" d="M 369.5,394.5 C 366.197,398.156 362.197,400.822 357.5,402.5C 361.148,399.34 365.148,396.673 369.5,394.5 Z"/></g>
<g><path style="opacity:0.004" fill="#000000" d="M 120.5,395.5 C 124.025,396.759 127.025,398.759 129.5,401.5C 125.951,400.277 122.951,398.277 120.5,395.5 Z"/></g>
<g><path style="opacity:0.012" fill="#429ed1" d="M 392.5,354.5 C 393.239,354.369 393.906,354.536 394.5,355C 346.175,406.115 286.842,427.781 216.5,420C 192.525,416.675 169.858,409.341 148.5,398C 153.137,398.304 157.47,399.804 161.5,402.5C 164.252,401.787 166.918,402.287 169.5,404C 167.699,404.317 167.366,404.984 168.5,406C 171.493,407.369 174.493,407.703 177.5,407C 175.699,407.317 175.366,407.984 176.5,409C 180.701,411.142 185.034,411.809 189.5,411C 188.833,411.333 188.167,411.667 187.5,412C 189.035,412.496 190.535,412.33 192,411.5C 193.762,411.944 193.595,412.444 191.5,413C 193.035,413.496 194.535,413.33 196,412.5C 197.762,412.944 197.595,413.444 195.5,414C 197.179,414.395 198.845,414.228 200.5,413.5C 201.167,413.667 201.833,413.833 202.5,414C 201.5,414.333 200.5,414.667 199.5,415C 202.896,416.8 206.396,416.967 210,415.5C 213.104,415.851 212.937,416.351 209.5,417C 210.167,417.167 210.833,417.333 211.5,417.5C 214.132,416.56 216.798,416.393 219.5,417C 218.167,417.333 216.833,417.667 215.5,418C 218.657,418.24 221.824,418.073 225,417.5C 226.5,417.667 228,417.833 229.5,418C 227.5,418.333 225.5,418.667 223.5,419C 224.833,419.167 226.167,419.333 227.5,419.5C 237.483,418.437 247.483,418.27 257.5,419C 250.833,419.333 244.167,419.667 237.5,420C 246.886,420.853 256.219,420.519 265.5,419C 263.5,418.667 261.5,418.333 259.5,418C 263.362,417.355 267.196,417.521 271,418.5C 271.833,418.333 272.667,418.167 273.5,418C 272.167,417.667 270.833,417.333 269.5,417C 280.247,417.917 290.581,416.251 300.5,412C 299.833,411.667 299.167,411.333 298.5,411C 300.035,410.504 301.535,410.67 303,411.5C 304.5,411 306,410.5 307.5,410C 305.405,409.444 305.238,408.944 307,408.5C 310.007,409.378 312.84,408.878 315.5,407C 314.833,406.667 314.167,406.333 313.5,406C 314.899,405.405 316.232,405.572 317.5,406.5C 318.5,406 319.5,405.5 320.5,405C 319.304,404.346 319.304,403.846 320.5,403.5C 322.961,404.307 325.294,403.807 327.5,402C 326.304,401.346 326.304,400.846 327.5,400.5C 328.167,400.833 328.833,401.167 329.5,401.5C 331.833,400.333 334.167,399.167 336.5,398C 335.833,397.667 335.167,397.333 334.5,397C 336.664,396.086 338.664,394.919 340.5,393.5C 341.696,393.846 341.696,394.346 340.5,395C 341.167,395.667 341.833,395.667 342.5,395C 357.461,386.356 371.127,376.022 383.5,364C 382.833,363.667 382.167,363.333 381.5,363C 383,361.5 384.5,360 386,358.5C 386.333,359.167 386.667,359.833 387,360.5C 388.626,358.195 390.46,356.195 392.5,354.5 Z"/></g>
<g><path style="opacity:0.004" fill="#000000" d="M 129.5,401.5 C 131.027,401.427 132.027,402.094 132.5,403.5C 130.973,403.573 129.973,402.906 129.5,401.5 Z"/></g>
<g><path style="opacity:0.004" fill="#000000" d="M 357.5,402.5 C 356.341,404.25 354.674,405.25 352.5,405.5C 353.659,403.75 355.326,402.75 357.5,402.5 Z"/></g>
<g><path style="opacity:0.004" fill="#000000" d="M 134.5,404.5 C 136.674,404.75 138.341,405.75 139.5,407.5C 137.326,407.25 135.659,406.25 134.5,404.5 Z"/></g>
<g><path style="opacity:0.004" fill="#000000" d="M 352.5,405.5 C 346.419,409.874 339.752,413.207 332.5,415.5C 338.849,411.659 345.516,408.325 352.5,405.5 Z"/></g>
<g><path style="opacity:0.004" fill="#000000" d="M 153.5,414.5 C 155.553,414.402 157.22,415.069 158.5,416.5C 156.447,416.598 154.78,415.931 153.5,414.5 Z"/></g>
<g><path style="opacity:0.004" fill="#000000" d="M 332.5,415.5 C 330.574,417.293 328.241,418.293 325.5,418.5C 327.426,416.707 329.759,415.707 332.5,415.5 Z"/></g>
<g><path style="opacity:0.004" fill="#000000" d="M 160.5,417.5 C 163.542,417.733 166.208,418.733 168.5,420.5C 165.458,420.267 162.792,419.267 160.5,417.5 Z"/></g>
<g><path style="opacity:0.004" fill="#000000" d="M 325.5,418.5 C 323.208,420.267 320.542,421.267 317.5,421.5C 319.792,419.733 322.458,418.733 325.5,418.5 Z"/></g>
<g><path style="opacity:0.004" fill="#000000" d="M 171.5,421.5 C 173.786,421.595 175.786,422.262 177.5,423.5C 175.102,423.741 173.102,423.074 171.5,421.5 Z"/></g>
<g><path style="opacity:0.004" fill="#000000" d="M 311.5,423.5 C 309.485,424.924 307.152,425.59 304.5,425.5C 306.515,424.076 308.848,423.41 311.5,423.5 Z"/></g>
<g><path style="opacity:0.004" fill="#000000" d="M 180.5,424.5 C 186.094,425.232 191.427,426.565 196.5,428.5C 194.833,428.5 193.167,428.5 191.5,428.5C 187.783,427.32 184.116,425.987 180.5,424.5 Z"/></g>
<g><path style="opacity:0.004" fill="#16807f" d="M 118.5,386.5 C 130.791,394.987 143.791,402.487 157.5,409C 229.819,438.5 298.819,432.334 364.5,390.5C 363.284,392.451 361.618,393.951 359.5,395C 329.184,414.272 296.184,425.439 260.5,428.5C 249.833,428.5 239.167,428.5 228.5,428.5C 218.928,427.345 209.262,425.845 199.5,424C 169.324,417.906 142.324,405.406 118.5,386.5 Z"/></g>
<g><path style="opacity:0.008" fill="#55aaa9" d="M 290.5,419.5 C 275.565,423.451 260.232,425.451 244.5,425.5C 240.651,425.499 236.984,425.165 233.5,424.5C 252.67,424.653 271.67,422.986 290.5,419.5 Z"/></g>
</svg>
