<?xml version="1.0" encoding="UTF-8"?>
<!DOCTYPE svg PUBLIC "-//W3C//DTD SVG 1.1//EN" "http://www.w3.org/Graphics/SVG/1.1/DTD/svg11.dtd">
<svg xmlns="http://www.w3.org/2000/svg" version="1.1" width="1080px" height="1080px" style="shape-rendering:geometricPrecision; text-rendering:geometricPrecision; image-rendering:optimizeQuality; fill-rule:evenodd; clip-rule:evenodd" xmlns:xlink="http://www.w3.org/1999/xlink">
<g><path style="opacity:1" fill="#fefefe" d="M -0.5,-0.5 C 359.5,-0.5 719.5,-0.5 1079.5,-0.5C 1079.5,359.5 1079.5,719.5 1079.5,1079.5C 719.5,1079.5 359.5,1079.5 -0.5,1079.5C -0.5,719.5 -0.5,359.5 -0.5,-0.5 Z"/></g>
<g><path style="opacity:1" fill="#0e1d73" d="M 534.5,68.5 C 546.192,68.7584 557.859,69.4251 569.5,70.5C 570.167,70.5 570.833,70.5 571.5,70.5C 572.609,71.29 573.942,71.79 575.5,72C 579.821,72.499 584.154,72.6657 588.5,72.5C 592.298,73.4834 596.298,73.8168 600.5,73.5C 601.694,74.7773 603.36,75.4439 605.5,75.5C 611.479,76.242 617.479,76.5753 623.5,76.5C 625.948,77.4731 628.615,77.8064 631.5,77.5C 631.987,78.4734 632.487,79.4734 633,80.5C 658.059,105.223 682.559,130.056 706.5,155C 701.845,155.499 697.179,155.666 692.5,155.5C 678.68,153.67 664.68,152.337 650.5,151.5C 645.75,149.969 640.75,149.302 635.5,149.5C 633.603,148.195 631.269,147.529 628.5,147.5C 622.179,146.89 615.845,146.556 609.5,146.5C 606.167,146.5 602.833,146.5 599.5,146.5C 599.5,146.167 599.5,145.833 599.5,145.5C 600.552,145.649 601.552,145.483 602.5,145C 577.557,120.731 553.557,96.0643 530.5,71C 528.292,70.8091 526.292,70.3091 524.5,69.5C 527.728,68.5863 531.061,68.2529 534.5,68.5 Z"/></g>
<g><path style="opacity:1" fill="#c2c5dc" d="M 534.5,68.5 C 541.655,67.3448 548.988,67.1782 556.5,68C 561.28,67.8916 565.614,68.725 569.5,70.5C 557.859,69.4251 546.192,68.7584 534.5,68.5 Z"/></g>
<g><path style="opacity:1" fill="#545e9d" d="M 518.5,69.5 C 518.082,70.2216 517.416,70.7216 516.5,71C 509.823,71.4531 503.156,71.9531 496.5,72.5C 496.5,72.1667 496.5,71.8333 496.5,71.5C 503.81,70.6811 511.144,70.0145 518.5,69.5 Z"/></g>
<g><path style="opacity:1" fill="#959dc4" d="M 496.5,71.5 C 496.5,71.8333 496.5,72.1667 496.5,72.5C 492.176,72.9272 487.842,73.2605 483.5,73.5C 483.5,73.1667 483.5,72.8333 483.5,72.5C 487.785,71.7051 492.119,71.3718 496.5,71.5 Z"/></g>
<g><path style="opacity:1" fill="#9399c0" d="M 571.5,70.5 C 577.404,70.3213 583.071,70.9879 588.5,72.5C 584.154,72.6657 579.821,72.499 575.5,72C 573.942,71.79 572.609,71.29 571.5,70.5 Z"/></g>
<g><path style="opacity:1" fill="#c9cce1" d="M 483.5,72.5 C 483.5,72.8333 483.5,73.1667 483.5,73.5C 479.176,73.9272 474.842,74.2605 470.5,74.5C 474.373,72.5698 478.706,71.9031 483.5,72.5 Z"/></g>
<g><path style="opacity:1" fill="#0e207a" d="M 518.5,69.5 C 520.5,69.5 522.5,69.5 524.5,69.5C 526.292,70.3091 528.292,70.8091 530.5,71C 553.557,96.0643 577.557,120.731 602.5,145C 601.552,145.483 600.552,145.649 599.5,145.5C 594.178,145.02 588.845,144.687 583.5,144.5C 580.713,143.523 577.713,143.19 574.5,143.5C 573.668,167.663 573.168,191.997 573,216.5C 549.05,193.056 525.883,169.389 503.5,145.5C 503.209,144.351 502.376,143.684 501,143.5C 499.93,143.528 499.097,143.861 498.5,144.5C 496.833,144.5 495.167,144.5 493.5,144.5C 489.846,144.942 486.179,145.276 482.5,145.5C 488.301,144.016 494.301,142.849 500.5,142C 488.099,130.346 476.266,118.179 465,105.5C 456.5,97 448,88.5 439.5,80C 436.183,79.5017 432.85,79.335 429.5,79.5C 429.5,79.1667 429.5,78.8333 429.5,78.5C 438.144,77.5689 446.811,76.9023 455.5,76.5C 460.783,76.9044 465.783,76.2377 470.5,74.5C 474.842,74.2605 479.176,73.9272 483.5,73.5C 487.842,73.2605 492.176,72.9272 496.5,72.5C 503.156,71.9531 509.823,71.4531 516.5,71C 517.416,70.7216 518.082,70.2216 518.5,69.5 Z"/></g>
<g><path style="opacity:1" fill="#545b99" d="M 600.5,73.5 C 608.375,73.9448 616.042,74.9448 623.5,76.5C 617.479,76.5753 611.479,76.242 605.5,75.5C 603.36,75.4439 601.694,74.7773 600.5,73.5 Z"/></g>
<g><path style="opacity:1" fill="#48549a" d="M 470.5,74.5 C 465.783,76.2377 460.783,76.9044 455.5,76.5C 460.306,75.4074 465.306,74.7407 470.5,74.5 Z"/></g>
<g><path style="opacity:1" fill="#b0b3d0" d="M 623.5,76.5 C 631.243,75.8701 638.576,76.5367 645.5,78.5C 640.848,78.0019 636.181,77.6686 631.5,77.5C 628.615,77.8064 625.948,77.4731 623.5,76.5 Z"/></g>
<g><path style="opacity:1" fill="#0e1b6e" d="M 631.5,77.5 C 636.181,77.6686 640.848,78.0019 645.5,78.5C 650.797,79.2745 656.13,79.6079 661.5,79.5C 668.256,81.2102 675.256,82.2102 682.5,82.5C 687.507,82.7509 692.507,83.0843 697.5,83.5C 698.5,83.5 699.5,83.5 700.5,83.5C 704.373,85.4302 708.706,86.0969 713.5,85.5C 721.833,86.1667 730.167,86.8333 738.5,87.5C 738.5,87.8333 738.5,88.1667 738.5,88.5C 737.448,88.3505 736.448,88.5172 735.5,89C 760.138,114.639 785.138,139.972 810.5,165C 812.437,165.122 813.77,165.955 814.5,167.5C 807.654,167.182 800.987,166.515 794.5,165.5C 789.417,163.922 784.084,163.255 778.5,163.5C 770.167,162.833 761.833,162.167 753.5,161.5C 749.158,161.261 744.824,160.927 740.5,160.5C 732.044,158.895 723.378,157.895 714.5,157.5C 706.972,157.374 699.639,156.707 692.5,155.5C 697.179,155.666 701.845,155.499 706.5,155C 682.559,130.056 658.059,105.223 633,80.5C 632.487,79.4734 631.987,78.4734 631.5,77.5 Z"/></g>
<g><path style="opacity:1" fill="#5e67a7" d="M 429.5,78.5 C 429.5,78.8333 429.5,79.1667 429.5,79.5C 422.352,80.4916 415.019,80.825 407.5,80.5C 414.659,79.5303 421.993,78.8636 429.5,78.5 Z"/></g>
<g><path style="opacity:1" fill="#0f2380" d="M 429.5,79.5 C 432.85,79.335 436.183,79.5017 439.5,80C 448,88.5 456.5,97 465,105.5C 476.266,118.179 488.099,130.346 500.5,142C 494.301,142.849 488.301,144.016 482.5,145.5C 479.941,145.198 477.607,145.532 475.5,146.5C 469.143,146.476 462.81,146.81 456.5,147.5C 452.818,147.335 449.152,147.501 445.5,148C 444.584,148.278 443.918,148.778 443.5,149.5C 434.081,149.852 424.747,150.852 415.5,152.5C 407.805,152.964 400.139,153.63 392.5,154.5C 392.611,153.883 392.944,153.383 393.5,153C 395.5,152.667 397.5,152.333 399.5,152C 387.781,140.07 375.947,128.236 364,116.5C 356.595,107.089 348.428,98.2561 339.5,90C 337.527,89.5045 335.527,89.3379 333.5,89.5C 333.5,89.1667 333.5,88.8333 333.5,88.5C 336.455,87.8413 339.455,87.5079 342.5,87.5C 349.346,87.1818 356.013,86.5152 362.5,85.5C 366.298,84.5166 370.298,84.1832 374.5,84.5C 380.271,85.1128 385.604,84.4461 390.5,82.5C 396.36,82.2832 402.027,81.6165 407.5,80.5C 415.019,80.825 422.352,80.4916 429.5,79.5 Z"/></g>
<g><path style="opacity:1" fill="#9b9fc3" d="M 661.5,79.5 C 667.181,79.6349 672.848,79.9682 678.5,80.5C 679.833,81.1667 681.167,81.8333 682.5,82.5C 675.256,82.2102 668.256,81.2102 661.5,79.5 Z"/></g>
<g><path style="opacity:1" fill="#b9bed9" d="M 407.5,80.5 C 402.027,81.6165 396.36,82.2832 390.5,82.5C 391.609,81.71 392.942,81.21 394.5,81C 398.821,80.501 403.154,80.3343 407.5,80.5 Z"/></g>
<g><path style="opacity:1" fill="#d4d6e5" d="M 678.5,80.5 C 685.258,80.5366 691.591,81.5366 697.5,83.5C 692.507,83.0843 687.507,82.7509 682.5,82.5C 681.167,81.8333 679.833,81.1667 678.5,80.5 Z"/></g>
<g><path style="opacity:1" fill="#3b4996" d="M 390.5,82.5 C 385.604,84.4461 380.271,85.1128 374.5,84.5C 379.681,83.6849 385.014,83.0182 390.5,82.5 Z"/></g>
<g><path style="opacity:1" fill="#60669d" d="M 700.5,83.5 C 705.049,83.6245 709.382,84.2911 713.5,85.5C 708.706,86.0969 704.373,85.4302 700.5,83.5 Z"/></g>
<g><path style="opacity:1" fill="#abb2d3" d="M 362.5,85.5 C 356.013,86.5152 349.346,87.1818 342.5,87.5C 343.609,86.71 344.942,86.21 346.5,86C 351.823,85.5006 357.156,85.334 362.5,85.5 Z"/></g>
<g><path style="opacity:1" fill="#7680b8" d="M 333.5,88.5 C 333.5,88.8333 333.5,89.1667 333.5,89.5C 327.19,90.1904 320.857,90.5237 314.5,90.5C 312.167,90.5 309.833,90.5 307.5,90.5C 315.968,89.1819 324.635,88.5152 333.5,88.5 Z"/></g>
<g><path style="opacity:1" fill="#0c1969" d="M 738.5,88.5 C 748.141,89.4724 757.808,90.139 767.5,90.5C 770.287,91.4767 773.287,91.81 776.5,91.5C 777.918,93.3079 779.918,93.9746 782.5,93.5C 798.132,109.632 813.965,125.632 830,141.5C 831.064,143.693 832.398,145.693 834,147.5C 851.701,165.368 869.535,183.035 887.5,200.5C 887.5,215.167 887.5,229.833 887.5,244.5C 864.555,220.22 841.221,196.22 817.5,172.5C 817.784,170.585 817.451,168.919 816.5,167.5C 815.833,167.5 815.167,167.5 814.5,167.5C 813.77,165.955 812.437,165.122 810.5,165C 785.138,139.972 760.138,114.639 735.5,89C 736.448,88.5172 737.448,88.3505 738.5,88.5 Z"/></g>
<g><path style="opacity:1" fill="#8e92b9" d="M 738.5,88.5 C 738.5,88.1667 738.5,87.8333 738.5,87.5C 748.382,87.7877 758.049,88.7877 767.5,90.5C 757.808,90.139 748.141,89.4724 738.5,88.5 Z"/></g>
<g><path style="opacity:1" fill="#334095" d="M 307.5,90.5 C 309.833,90.5 312.167,90.5 314.5,90.5C 314.389,91.1174 314.056,91.6174 313.5,92C 304.2,93.1278 294.866,93.6278 285.5,93.5C 292.857,92.7031 300.19,91.7031 307.5,90.5 Z"/></g>
<g><path style="opacity:1" fill="#3c4485" d="M 776.5,91.5 C 780.798,92.1995 785.131,92.5328 789.5,92.5C 789.5,92.8333 789.5,93.1667 789.5,93.5C 787.167,93.5 784.833,93.5 782.5,93.5C 779.918,93.9746 777.918,93.3079 776.5,91.5 Z"/></g>
<g><path style="opacity:1" fill="#0f2687" d="M 333.5,89.5 C 335.527,89.3379 337.527,89.5045 339.5,90C 348.428,98.2561 356.595,107.089 364,116.5C 375.947,128.236 387.781,140.07 399.5,152C 397.5,152.333 395.5,152.667 393.5,153C 392.944,153.383 392.611,153.883 392.5,154.5C 388.176,154.927 383.842,155.261 379.5,155.5C 375.486,155.334 371.486,155.501 367.5,156C 366.944,156.383 366.611,156.883 366.5,157.5C 364.5,157.5 362.5,157.5 360.5,157.5C 349.567,157.873 338.9,159.206 328.5,161.5C 327.5,161.5 326.5,161.5 325.5,161.5C 320.518,162.053 315.518,162.387 310.5,162.5C 289.47,141.471 268.803,120.137 248.5,98.5C 253.373,98.023 258.039,97.023 262.5,95.5C 266.042,95.8128 269.375,95.4794 272.5,94.5C 276.634,93.5151 280.968,93.1818 285.5,93.5C 294.866,93.6278 304.2,93.1278 313.5,92C 314.056,91.6174 314.389,91.1174 314.5,90.5C 320.857,90.5237 327.19,90.1904 333.5,89.5 Z"/></g>
<g><path style="opacity:1" fill="#0c1766" d="M 782.5,93.5 C 784.833,93.5 787.167,93.5 789.5,93.5C 797.123,94.6062 804.79,95.2728 812.5,95.5C 813.5,95.5 814.5,95.5 815.5,95.5C 817.223,96.8001 819.39,97.4668 822,97.5C 828.485,98.1656 834.985,98.4989 841.5,98.5C 843.5,98.5 845.5,98.5 847.5,98.5C 853.594,100.094 859.928,100.761 866.5,100.5C 867.263,101.268 868.263,101.768 869.5,102C 873.821,102.499 878.154,102.666 882.5,102.5C 883.919,103.451 885.585,103.784 887.5,103.5C 887.5,135.833 887.5,168.167 887.5,200.5C 869.535,183.035 851.701,165.368 834,147.5C 832.398,145.693 831.064,143.693 830,141.5C 813.965,125.632 798.132,109.632 782.5,93.5 Z"/></g>
<g><path style="opacity:1" fill="#8b90b6" d="M 789.5,93.5 C 789.5,93.1667 789.5,92.8333 789.5,92.5C 797.424,92.5474 805.09,93.5474 812.5,95.5C 804.79,95.2728 797.123,94.6062 789.5,93.5 Z"/></g>
<g><path style="opacity:1" fill="#c1c6e0" d="M 272.5,94.5 C 269.375,95.4794 266.042,95.8128 262.5,95.5C 259.455,95.5079 256.455,95.8413 253.5,96.5C 259.412,94.5437 265.745,93.8771 272.5,94.5 Z"/></g>
<g><path style="opacity:1" fill="#4e5ca6" d="M 262.5,95.5 C 258.039,97.023 253.373,98.023 248.5,98.5C 246.833,98.5 245.167,98.5 243.5,98.5C 243.5,98.1667 243.5,97.8333 243.5,97.5C 246.625,96.5206 249.958,96.1872 253.5,96.5C 256.455,95.8413 259.455,95.5079 262.5,95.5 Z"/></g>
<g><path style="opacity:1" fill="#4e528d" d="M 815.5,95.5 C 824.378,95.8955 833.044,96.8955 841.5,98.5C 834.985,98.4989 828.485,98.1656 822,97.5C 819.39,97.4668 817.223,96.8001 815.5,95.5 Z"/></g>
<g><path style="opacity:1" fill="#7b87be" d="M 243.5,97.5 C 243.5,97.8333 243.5,98.1667 243.5,98.5C 238.146,98.5688 232.813,98.9022 227.5,99.5C 232.553,97.7396 237.886,97.073 243.5,97.5 Z"/></g>
<g><path style="opacity:1" fill="#1e2f92" d="M 243.5,98.5 C 245.167,98.5 246.833,98.5 248.5,98.5C 268.803,120.137 289.47,141.471 310.5,162.5C 308.901,162.232 307.568,162.566 306.5,163.5C 301.12,163.324 295.787,163.658 290.5,164.5C 282.147,164.617 273.813,165.117 265.5,166C 264.944,166.383 264.611,166.883 264.5,167.5C 263.833,167.5 263.167,167.5 262.5,167.5C 260.519,180.458 259.852,193.791 260.5,207.5C 239.895,186.395 219.062,165.395 198,144.5C 197.667,143.5 197.333,142.5 197,141.5C 194.333,140.167 192.333,138.167 191,135.5C 190.5,169.832 190.333,204.165 190.5,238.5C 190.5,275.833 190.5,313.167 190.5,350.5C 190.5,384.167 190.5,417.833 190.5,451.5C 190.5,483.833 190.5,516.167 190.5,548.5C 190.5,582.167 190.5,615.833 190.5,649.5C 190.5,678.167 190.5,706.833 190.5,735.5C 190.5,754.833 190.5,774.167 190.5,793.5C 189.334,563.667 189.167,333.667 190,103.5C 191.699,102.594 193.533,102.261 195.5,102.5C 204.199,102.581 212.865,102.081 221.5,101C 222.737,100.768 223.737,100.268 224.5,99.5C 225.5,99.5 226.5,99.5 227.5,99.5C 232.813,98.9022 238.146,98.5688 243.5,98.5 Z"/></g>
<g><path style="opacity:1" fill="#c9cbdc" d="M 847.5,98.5 C 855.853,98.6169 864.187,99.1169 872.5,100C 874.058,100.21 875.391,100.71 876.5,101.5C 873.167,101.167 869.833,100.833 866.5,100.5C 859.928,100.761 853.594,100.094 847.5,98.5 Z"/></g>
<g><path style="opacity:1" fill="#4654a4" d="M 224.5,99.5 C 223.737,100.268 222.737,100.768 221.5,101C 212.865,102.081 204.199,102.581 195.5,102.5C 204.977,101.049 214.644,100.049 224.5,99.5 Z"/></g>
<g><path style="opacity:1" fill="#5c6196" d="M 866.5,100.5 C 869.833,100.833 873.167,101.167 876.5,101.5C 878.735,101.205 880.735,101.539 882.5,102.5C 878.154,102.666 873.821,102.499 869.5,102C 868.263,101.768 867.263,101.268 866.5,100.5 Z"/></g>
<g><path style="opacity:1" fill="#0f2a92" d="M 260.5,207.5 C 260.5,241.167 260.5,274.833 260.5,308.5C 236.806,285.473 213.473,262.14 190.5,238.5C 190.333,204.165 190.5,169.832 191,135.5C 192.333,138.167 194.333,140.167 197,141.5C 197.333,142.5 197.667,143.5 198,144.5C 219.062,165.395 239.895,186.395 260.5,207.5 Z"/></g>
<g><path style="opacity:1" fill="#c8cce1" d="M 493.5,144.5 C 493.082,145.222 492.416,145.722 491.5,146C 486.177,146.499 480.844,146.666 475.5,146.5C 477.607,145.532 479.941,145.198 482.5,145.5C 486.179,145.276 489.846,144.942 493.5,144.5 Z"/></g>
<g><path style="opacity:1" fill="#fefefe" d="M 493.5,144.5 C 495.167,144.5 496.833,144.5 498.5,144.5C 499.833,144.5 501.167,144.5 502.5,144.5C 502.5,255.833 502.5,367.167 502.5,478.5C 514.314,479.832 526.481,480.499 539,480.5C 551.407,480.495 563.74,480.162 576,479.5C 576.5,368.167 576.667,256.834 576.5,145.5C 584.175,145.68 591.842,146.014 599.5,146.5C 602.833,146.5 606.167,146.5 609.5,146.5C 614.306,147.593 619.306,148.259 624.5,148.5C 626.223,149.8 628.39,150.467 631,150.5C 637.485,151.166 643.985,151.499 650.5,151.5C 664.68,152.337 678.68,153.67 692.5,155.5C 699.639,156.707 706.972,157.374 714.5,157.5C 722.871,159.801 731.538,160.801 740.5,160.5C 744.824,160.927 749.158,161.261 753.5,161.5C 755.048,162.794 757.048,163.461 759.5,163.5C 765.817,164.191 772.15,164.524 778.5,164.5C 783.787,165.342 789.12,165.676 794.5,165.5C 800.987,166.515 807.654,167.182 814.5,167.5C 815.167,167.5 815.833,167.5 816.5,167.5C 816.832,363.236 816.499,558.903 815.5,754.5C 809.158,757.668 803.158,761.335 797.5,765.5C 794.026,767.318 790.693,769.318 787.5,771.5C 786.833,771.5 786.5,771.833 786.5,772.5C 784.181,772.992 782.181,773.992 780.5,775.5C 772.167,780.833 763.833,786.167 755.5,791.5C 752.159,793.503 748.825,795.503 745.5,797.5C 744.167,798.5 742.833,799.5 741.5,800.5C 739.973,800.427 738.973,801.094 738.5,802.5C 727.461,808.68 716.794,815.347 706.5,822.5C 704.973,822.427 703.973,823.094 703.5,824.5C 692.461,830.68 681.794,837.347 671.5,844.5C 656.705,854.069 641.705,863.403 626.5,872.5C 622.543,874.473 618.876,876.806 615.5,879.5C 613.973,879.427 612.973,880.094 612.5,881.5C 611.29,881.932 610.29,882.599 609.5,883.5C 602.23,887.445 595.23,891.778 588.5,896.5C 586.847,896.66 585.514,897.326 584.5,898.5C 582.5,899.833 580.5,901.167 578.5,902.5C 576.834,805.004 575.834,707.338 575.5,609.5C 575.167,609.5 574.833,609.5 574.5,609.5C 550.833,609.5 527.167,609.5 503.5,609.5C 502.833,707.5 502.167,805.5 501.5,903.5C 495.822,900.664 490.489,897.331 485.5,893.5C 485.027,892.094 484.027,891.427 482.5,891.5C 469.672,884.588 457.339,876.922 445.5,868.5C 445.027,867.094 444.027,866.427 442.5,866.5C 437.966,864.143 433.632,861.477 429.5,858.5C 429.027,857.094 428.027,856.427 426.5,856.5C 415.797,849.819 405.131,843.153 394.5,836.5C 394.027,835.094 393.027,834.427 391.5,834.5C 380.788,827.816 370.121,821.149 359.5,814.5C 359.027,813.094 358.027,812.427 356.5,812.5C 352.905,810.898 349.571,808.898 346.5,806.5C 338.897,802.225 331.564,797.558 324.5,792.5C 324.027,791.094 323.027,790.427 321.5,790.5C 310.697,784.015 300.03,777.348 289.5,770.5C 289.027,769.094 288.027,768.427 286.5,768.5C 280.473,764.823 274.473,761.156 268.5,757.5C 268.027,756.094 267.027,755.427 265.5,755.5C 264.29,755.068 263.29,754.401 262.5,753.5C 262.5,558.5 262.5,363.5 262.5,168.5C 268.003,168.278 273.503,167.944 279,167.5C 281.929,167.475 284.429,166.809 286.5,165.5C 287.833,165.5 289.167,165.5 290.5,165.5C 295.813,164.902 301.146,164.569 306.5,164.5C 311.833,164.067 317.166,163.567 322.5,163C 323.737,162.768 324.737,162.268 325.5,161.5C 326.5,161.5 327.5,161.5 328.5,161.5C 338.171,160.794 347.838,159.961 357.5,159C 358.737,158.768 359.737,158.268 360.5,157.5C 362.5,157.5 364.5,157.5 366.5,157.5C 370.785,156.705 375.119,156.372 379.5,156.5C 389.341,156.012 399.174,155.346 409,154.5C 411.61,154.467 413.777,153.8 415.5,152.5C 424.747,150.852 434.081,149.852 443.5,149.5C 447.842,149.261 452.176,148.927 456.5,148.5C 463.062,148.663 469.395,147.996 475.5,146.5C 480.844,146.666 486.177,146.499 491.5,146C 492.416,145.722 493.082,145.222 493.5,144.5 Z"/></g>
<g><path style="opacity:1" fill="#b3bad8" d="M 498.5,144.5 C 499.097,143.861 499.93,143.528 501,143.5C 502.376,143.684 503.209,144.351 503.5,145.5C 503.5,183.167 503.5,220.833 503.5,258.5C 503.5,292.167 503.5,325.833 503.5,359.5C 503.5,399.167 503.5,438.833 503.5,478.5C 503.167,478.5 502.833,478.5 502.5,478.5C 502.5,367.167 502.5,255.833 502.5,144.5C 501.167,144.5 499.833,144.5 498.5,144.5 Z"/></g>
<g><path style="opacity:1" fill="#0e2380" d="M 574.5,143.5 C 574.5,255.167 574.5,366.833 574.5,478.5C 574.167,478.5 573.833,478.5 573.5,478.5C 573.5,462.833 573.5,447.167 573.5,431.5C 573.667,397.165 573.5,362.832 573,328.5C 549.767,305.433 526.601,282.1 503.5,258.5C 503.5,220.833 503.5,183.167 503.5,145.5C 525.883,169.389 549.05,193.056 573,216.5C 573.168,191.997 573.668,167.663 574.5,143.5 Z"/></g>
<g><path style="opacity:1" fill="#d1d5e8" d="M 583.5,144.5 C 588.845,144.687 594.178,145.02 599.5,145.5C 599.5,145.833 599.5,146.167 599.5,146.5C 591.842,146.014 584.175,145.68 576.5,145.5C 576.667,256.834 576.5,368.167 576,479.5C 563.74,480.162 551.407,480.495 539,480.5C 526.481,480.499 514.314,479.832 502.5,478.5C 502.833,478.5 503.167,478.5 503.5,478.5C 526.833,478.5 550.167,478.5 573.5,478.5C 573.833,478.5 574.167,478.5 574.5,478.5C 575.499,367.335 575.833,256.001 575.5,144.5C 578.167,144.5 580.833,144.5 583.5,144.5 Z"/></g>
<g><path style="opacity:1" fill="#3f4b97" d="M 456.5,147.5 C 456.5,147.833 456.5,148.167 456.5,148.5C 452.176,148.927 447.842,149.261 443.5,149.5C 443.918,148.778 444.584,148.278 445.5,148C 449.152,147.501 452.818,147.335 456.5,147.5 Z"/></g>
<g><path style="opacity:1" fill="#aeb4d4" d="M 475.5,146.5 C 469.395,147.996 463.062,148.663 456.5,148.5C 456.5,148.167 456.5,147.833 456.5,147.5C 462.81,146.81 469.143,146.476 475.5,146.5 Z"/></g>
<g><path style="opacity:1" fill="#313c88" d="M 609.5,146.5 C 615.845,146.556 622.179,146.89 628.5,147.5C 631.269,147.529 633.603,148.195 635.5,149.5C 631.865,148.886 628.198,148.552 624.5,148.5C 619.306,148.259 614.306,147.593 609.5,146.5 Z"/></g>
<g><path style="opacity:1" fill="#b5bad5" d="M 624.5,148.5 C 628.198,148.552 631.865,148.886 635.5,149.5C 640.75,149.302 645.75,149.969 650.5,151.5C 643.985,151.499 637.485,151.166 631,150.5C 628.39,150.467 626.223,149.8 624.5,148.5 Z"/></g>
<g><path style="opacity:1" fill="#c5cae1" d="M 415.5,152.5 C 413.777,153.8 411.61,154.467 409,154.5C 399.174,155.346 389.341,156.012 379.5,156.5C 379.5,156.167 379.5,155.833 379.5,155.5C 383.842,155.261 388.176,154.927 392.5,154.5C 400.139,153.63 407.805,152.964 415.5,152.5 Z"/></g>
<g><path style="opacity:1" fill="#4655a0" d="M 379.5,155.5 C 379.5,155.833 379.5,156.167 379.5,156.5C 375.119,156.372 370.785,156.705 366.5,157.5C 366.611,156.883 366.944,156.383 367.5,156C 371.486,155.501 375.486,155.334 379.5,155.5 Z"/></g>
<g><path style="opacity:1" fill="#8b94c4" d="M 360.5,157.5 C 359.737,158.268 358.737,158.768 357.5,159C 347.838,159.961 338.171,160.794 328.5,161.5C 338.9,159.206 349.567,157.873 360.5,157.5 Z"/></g>
<g><path style="opacity:1" fill="#a5a9c9" d="M 714.5,157.5 C 723.378,157.895 732.044,158.895 740.5,160.5C 731.538,160.801 722.871,159.801 714.5,157.5 Z"/></g>
<g><path style="opacity:1" fill="#c2c7e1" d="M 325.5,161.5 C 324.737,162.268 323.737,162.768 322.5,163C 317.166,163.567 311.833,164.067 306.5,164.5C 306.5,164.167 306.5,163.833 306.5,163.5C 307.568,162.566 308.901,162.232 310.5,162.5C 315.518,162.387 320.518,162.053 325.5,161.5 Z"/></g>
<g><path style="opacity:1" fill="#b8bbd4" d="M 753.5,161.5 C 761.833,162.167 770.167,162.833 778.5,163.5C 778.5,163.833 778.5,164.167 778.5,164.5C 772.15,164.524 765.817,164.191 759.5,163.5C 757.048,163.461 755.048,162.794 753.5,161.5 Z"/></g>
<g><path style="opacity:1" fill="#8f99c8" d="M 306.5,163.5 C 306.5,163.833 306.5,164.167 306.5,164.5C 301.146,164.569 295.813,164.902 290.5,165.5C 290.5,165.167 290.5,164.833 290.5,164.5C 295.787,163.658 301.12,163.324 306.5,163.5 Z"/></g>
<g><path style="opacity:1" fill="#585f99" d="M 778.5,164.5 C 778.5,164.167 778.5,163.833 778.5,163.5C 784.084,163.255 789.417,163.922 794.5,165.5C 789.12,165.676 783.787,165.342 778.5,164.5 Z"/></g>
<g><path style="opacity:1" fill="#304199" d="M 290.5,164.5 C 290.5,164.833 290.5,165.167 290.5,165.5C 289.167,165.5 287.833,165.5 286.5,165.5C 279.144,166.014 271.81,166.681 264.5,167.5C 264.611,166.883 264.944,166.383 265.5,166C 273.813,165.117 282.147,164.617 290.5,164.5 Z"/></g>
<g><path style="opacity:1" fill="#c8cde4" d="M 286.5,165.5 C 284.429,166.809 281.929,167.475 279,167.5C 273.503,167.944 268.003,168.278 262.5,168.5C 262.5,168.167 262.5,167.833 262.5,167.5C 263.167,167.5 263.833,167.5 264.5,167.5C 271.81,166.681 279.144,166.014 286.5,165.5 Z"/></g>
<g><path style="opacity:1" fill="#0d1a6d" d="M 817.5,172.5 C 841.221,196.22 864.555,220.22 887.5,244.5C 887.5,276.167 887.5,307.833 887.5,339.5C 864.527,315.86 841.194,292.527 817.5,269.5C 817.5,237.167 817.5,204.833 817.5,172.5 Z"/></g>
<g><path style="opacity:1" fill="#58629d" d="M 882.5,102.5 C 884.5,102.5 886.5,102.5 888.5,102.5C 888.833,333.001 888.5,563.334 887.5,793.5C 887.5,779.5 887.5,765.5 887.5,751.5C 887.5,717.833 887.5,684.167 887.5,650.5C 887.5,613.167 887.5,575.833 887.5,538.5C 887.5,504.167 887.5,469.833 887.5,435.5C 887.5,403.5 887.5,371.5 887.5,339.5C 887.5,307.833 887.5,276.167 887.5,244.5C 887.5,229.833 887.5,215.167 887.5,200.5C 887.5,168.167 887.5,135.833 887.5,103.5C 885.585,103.784 883.919,103.451 882.5,102.5 Z"/></g>
<g><path style="opacity:1" fill="#102d99" d="M 190.5,238.5 C 213.473,262.14 236.806,285.473 260.5,308.5C 260.5,346.167 260.5,383.833 260.5,421.5C 237.465,397.362 214.132,373.695 190.5,350.5C 190.5,313.167 190.5,275.833 190.5,238.5 Z"/></g>
<g><path style="opacity:1" fill="#0d1d73" d="M 817.5,269.5 C 841.194,292.527 864.527,315.86 887.5,339.5C 887.5,371.5 887.5,403.5 887.5,435.5C 863.806,412.473 840.473,389.14 817.5,365.5C 817.5,333.5 817.5,301.5 817.5,269.5 Z"/></g>
<g><path style="opacity:1" fill="#0e2586" d="M 503.5,258.5 C 526.601,282.1 549.767,305.433 573,328.5C 573.5,362.832 573.667,397.165 573.5,431.5C 550.455,407.123 527.121,383.123 503.5,359.5C 503.5,325.833 503.5,292.167 503.5,258.5 Z"/></g>
<g><path style="opacity:1" fill="#102f9f" d="M 190.5,350.5 C 214.132,373.695 237.465,397.362 260.5,421.5C 260.5,455.167 260.5,488.833 260.5,522.5C 236.282,499.285 212.949,475.619 190.5,451.5C 190.5,417.833 190.5,384.167 190.5,350.5 Z"/></g>
<g><path style="opacity:1" fill="#7c88bb" d="M 574.5,143.5 C 577.713,143.19 580.713,143.523 583.5,144.5C 580.833,144.5 578.167,144.5 575.5,144.5C 575.833,256.001 575.499,367.335 574.5,478.5C 574.5,366.833 574.5,255.167 574.5,143.5 Z"/></g>
<g><path style="opacity:1" fill="#0f278c" d="M 503.5,359.5 C 527.121,383.123 550.455,407.123 573.5,431.5C 573.5,447.167 573.5,462.833 573.5,478.5C 550.167,478.5 526.833,478.5 503.5,478.5C 503.5,438.833 503.5,399.167 503.5,359.5 Z"/></g>
<g><path style="opacity:1" fill="#0d2079" d="M 817.5,365.5 C 840.473,389.14 863.806,412.473 887.5,435.5C 887.5,469.833 887.5,504.167 887.5,538.5C 865.088,514.418 841.755,490.751 817.5,467.5C 817.5,433.5 817.5,399.5 817.5,365.5 Z"/></g>
<g><path style="opacity:1" fill="#1132a5" d="M 190.5,451.5 C 212.949,475.619 236.282,499.285 260.5,522.5C 260.5,554.833 260.5,587.167 260.5,619.5C 237.437,595.356 214.104,571.689 190.5,548.5C 190.5,516.167 190.5,483.833 190.5,451.5 Z"/></g>
<g><path style="opacity:1" fill="#0e227f" d="M 817.5,467.5 C 841.755,490.751 865.088,514.418 887.5,538.5C 887.5,575.833 887.5,613.167 887.5,650.5C 864.084,626.752 840.751,603.085 817.5,579.5C 817.5,542.167 817.5,504.833 817.5,467.5 Z"/></g>
<g><path style="opacity:1" fill="#1135ab" d="M 190.5,548.5 C 214.104,571.689 237.437,595.356 260.5,619.5C 260.5,653.167 260.5,686.833 260.5,720.5C 236.252,697.256 212.919,673.589 190.5,649.5C 190.5,615.833 190.5,582.167 190.5,548.5 Z"/></g>
<g><path style="opacity:1" fill="#465bb5" d="M 262.5,167.5 C 262.5,167.833 262.5,168.167 262.5,168.5C 262.5,363.5 262.5,558.5 262.5,753.5C 260.523,742.884 259.856,731.884 260.5,720.5C 260.5,686.833 260.5,653.167 260.5,619.5C 260.5,587.167 260.5,554.833 260.5,522.5C 260.5,488.833 260.5,455.167 260.5,421.5C 260.5,383.833 260.5,346.167 260.5,308.5C 260.5,274.833 260.5,241.167 260.5,207.5C 259.852,193.791 260.519,180.458 262.5,167.5 Z"/></g>
<g><path style="opacity:1" fill="#40509a" d="M 816.5,167.5 C 817.451,168.919 817.784,170.585 817.5,172.5C 817.5,204.833 817.5,237.167 817.5,269.5C 817.5,301.5 817.5,333.5 817.5,365.5C 817.5,399.5 817.5,433.5 817.5,467.5C 817.5,504.833 817.5,542.167 817.5,579.5C 817.5,613.5 817.5,647.5 817.5,681.5C 818.157,706.19 817.49,730.523 815.5,754.5C 816.499,558.903 816.832,363.236 816.5,167.5 Z"/></g>
<g><path style="opacity:1" fill="#102d99" d="M 503.5,610.5 C 526.833,610.5 550.167,610.5 573.5,610.5C 573.5,653.833 573.5,697.167 573.5,740.5C 549.806,717.473 526.473,694.14 503.5,670.5C 503.5,650.5 503.5,630.5 503.5,610.5 Z"/></g>
<g><path style="opacity:1" fill="#d9deef" d="M 575.5,609.5 C 575.834,707.338 576.834,805.004 578.5,902.5C 578.5,903.167 578.167,903.5 577.5,903.5C 575.502,805.839 574.836,707.839 575.5,609.5 Z"/></g>
<g><path style="opacity:1" fill="#0e2586" d="M 817.5,579.5 C 840.751,603.085 864.084,626.752 887.5,650.5C 887.5,684.167 887.5,717.833 887.5,751.5C 864.167,728.167 840.833,704.833 817.5,681.5C 817.5,647.5 817.5,613.5 817.5,579.5 Z"/></g>
<g><path style="opacity:1" fill="#1337b1" d="M 190.5,649.5 C 212.919,673.589 236.252,697.256 260.5,720.5C 259.856,731.884 260.523,742.884 262.5,753.5C 263.29,754.401 264.29,755.068 265.5,755.5C 265.973,756.906 266.973,757.573 268.5,757.5C 274.473,761.156 280.473,764.823 286.5,768.5C 286.973,769.906 287.973,770.573 289.5,770.5C 300.03,777.348 310.697,784.015 321.5,790.5C 321.973,791.906 322.973,792.573 324.5,792.5C 331.564,797.558 338.897,802.225 346.5,806.5C 346.343,807.873 346.51,809.207 347,810.5C 360.331,822.831 373.331,835.498 386,848.5C 386.667,849.833 387.333,851.167 388,852.5C 439,904.167 490,955.833 541,1007.5C 541.483,1008.45 541.649,1009.45 541.5,1010.5C 540.292,1011.23 538.959,1011.57 537.5,1011.5C 533.228,1009.23 529.228,1006.56 525.5,1003.5C 525.027,1002.09 524.027,1001.43 522.5,1001.5C 520.632,1000.74 518.965,999.737 517.5,998.5C 515.293,995.416 512.293,993.416 508.5,992.5C 507.005,992.011 505.671,991.345 504.5,990.5C 504.027,989.094 503.027,988.427 501.5,988.5C 494.962,984.736 488.628,980.736 482.5,976.5C 480.293,973.416 477.293,971.416 473.5,970.5C 472.005,970.011 470.671,969.345 469.5,968.5C 469.027,967.094 468.027,966.427 466.5,966.5C 460.431,962.806 454.431,959.139 448.5,955.5C 447.738,953.738 446.404,952.738 444.5,952.5C 433.959,946.401 423.626,940.068 413.5,933.5C 413.027,932.094 412.027,931.427 410.5,931.5C 406.289,929.902 402.622,927.568 399.5,924.5C 399.027,923.094 398.027,922.427 396.5,922.5C 390.464,918.819 384.464,915.152 378.5,911.5C 378.027,910.094 377.027,909.427 375.5,909.5C 359.859,900.192 344.525,890.526 329.5,880.5C 330.239,880.631 330.906,880.464 331.5,880C 328.628,877.463 326.128,874.63 324,871.5C 280.02,825.686 235.52,780.353 190.5,735.5C 190.5,706.833 190.5,678.167 190.5,649.5 Z"/></g>
<g><path style="opacity:1" fill="#102f9f" d="M 503.5,670.5 C 526.473,694.14 549.806,717.473 573.5,740.5C 573.5,774.5 573.5,808.5 573.5,842.5C 550.764,819.098 527.431,795.764 503.5,772.5C 503.5,738.5 503.5,704.5 503.5,670.5 Z"/></g>
<g><path style="opacity:1" fill="#7d8dca" d="M 574.5,609.5 C 574.833,609.5 575.167,609.5 575.5,609.5C 574.836,707.839 575.502,805.839 577.5,903.5C 576.791,904.404 575.791,904.737 574.5,904.5C 574.5,806.167 574.5,707.833 574.5,609.5 Z"/></g>
<g><path style="opacity:1" fill="#0f288c" d="M 817.5,681.5 C 840.833,704.833 864.167,728.167 887.5,751.5C 887.5,765.5 887.5,779.5 887.5,793.5C 886.71,794.401 885.71,795.068 884.5,795.5C 882.596,795.738 881.262,796.738 880.5,798.5C 878.034,799.298 876.034,800.631 874.5,802.5C 871.085,803.195 868.418,804.862 866.5,807.5C 865.508,807.328 864.842,807.662 864.5,808.5C 862.847,808.66 861.514,809.326 860.5,810.5C 857.869,812.153 855.203,813.819 852.5,815.5C 852.649,814.448 852.483,813.448 852,812.5C 836.029,795.528 819.696,778.862 803,762.5C 801.814,764.677 799.981,765.677 797.5,765.5C 803.158,761.335 809.158,757.668 815.5,754.5C 817.49,730.523 818.157,706.19 817.5,681.5 Z"/></g>
<g><path style="opacity:1" fill="#b3bee1" d="M 503.5,609.5 C 503.5,609.833 503.5,610.167 503.5,610.5C 503.5,630.5 503.5,650.5 503.5,670.5C 503.5,704.5 503.5,738.5 503.5,772.5C 503.5,804.5 503.5,836.5 503.5,868.5C 503.832,880.518 503.499,892.518 502.5,904.5C 501.893,904.376 501.56,904.043 501.5,903.5C 502.167,805.5 502.833,707.5 503.5,609.5 Z"/></g>
<g><path style="opacity:1" fill="#163ab5" d="M 190.5,735.5 C 235.52,780.353 280.02,825.686 324,871.5C 326.128,874.63 328.628,877.463 331.5,880C 330.906,880.464 330.239,880.631 329.5,880.5C 310.512,869.34 291.846,857.673 273.5,845.5C 273.027,844.094 272.027,843.427 270.5,843.5C 243.539,827.186 216.872,810.519 190.5,793.5C 190.5,774.167 190.5,754.833 190.5,735.5 Z"/></g>
<g><path style="opacity:1" fill="#8a9ad7" d="M 265.5,755.5 C 267.027,755.427 268.027,756.094 268.5,757.5C 266.973,757.573 265.973,756.906 265.5,755.5 Z"/></g>
<g><path style="opacity:1" fill="#112b92" d="M 852.5,815.5 C 849.953,816.934 847.619,818.6 845.5,820.5C 840.636,822.058 836.636,824.724 833.5,828.5C 831.847,828.66 830.514,829.326 829.5,830.5C 827.847,830.66 826.514,831.326 825.5,832.5C 819.984,835.089 814.984,838.422 810.5,842.5C 805.636,844.058 801.636,846.724 798.5,850.5C 796.181,850.992 794.181,851.992 792.5,853.5C 792.167,853.5 791.833,853.5 791.5,853.5C 791.631,852.761 791.464,852.094 791,851.5C 774.237,834.904 757.737,818.238 741.5,801.5C 741.5,801.167 741.5,800.833 741.5,800.5C 742.833,799.5 744.167,798.5 745.5,797.5C 749.917,797.155 753.25,795.155 755.5,791.5C 763.833,786.167 772.167,780.833 780.5,775.5C 783.089,775.539 785.089,774.539 786.5,772.5C 786.5,771.833 786.833,771.5 787.5,771.5C 791.805,771.018 795.139,769.018 797.5,765.5C 799.981,765.677 801.814,764.677 803,762.5C 819.696,778.862 836.029,795.528 852,812.5C 852.483,813.448 852.649,814.448 852.5,815.5 Z"/></g>
<g><path style="opacity:1" fill="#4e5aaa" d="M 797.5,765.5 C 795.139,769.018 791.805,771.018 787.5,771.5C 790.693,769.318 794.026,767.318 797.5,765.5 Z"/></g>
<g><path style="opacity:1" fill="#9caade" d="M 286.5,768.5 C 288.027,768.427 289.027,769.094 289.5,770.5C 287.973,770.573 286.973,769.906 286.5,768.5 Z"/></g>
<g><path style="opacity:1" fill="#7481bf" d="M 786.5,772.5 C 785.089,774.539 783.089,775.539 780.5,775.5C 782.181,773.992 784.181,772.992 786.5,772.5 Z"/></g>
<g><path style="opacity:1" fill="#1132a5" d="M 503.5,772.5 C 527.431,795.764 550.764,819.098 573.5,842.5C 573.169,863.34 573.503,884.007 574.5,904.5C 575.791,904.737 576.791,904.404 577.5,903.5C 578.167,903.5 578.5,903.167 578.5,902.5C 580.5,901.167 582.5,899.833 584.5,898.5C 586.38,898.771 587.713,898.104 588.5,896.5C 595.23,891.778 602.23,887.445 609.5,883.5C 610.552,883.351 611.552,883.517 612.5,884C 628.667,900.167 644.833,916.333 661,932.5C 661.483,933.448 661.649,934.448 661.5,935.5C 658.46,936.68 655.794,938.347 653.5,940.5C 648.485,943.004 643.819,946.004 639.5,949.5C 636.825,951.17 634.159,952.836 631.5,954.5C 629.093,956.213 626.426,957.547 623.5,958.5C 622.702,958.957 622.369,959.624 622.5,960.5C 617.976,962.043 613.976,964.377 610.5,967.5C 608.973,967.427 607.973,968.094 607.5,969.5C 605.95,970.441 604.284,971.107 602.5,971.5C 599.269,966.761 595.436,962.428 591,958.5C 590.667,957.5 590.333,956.5 590,955.5C 560.938,926.605 532.105,897.605 503.5,868.5C 503.5,836.5 503.5,804.5 503.5,772.5 Z"/></g>
<g><path style="opacity:1" fill="#98a7dc" d="M 321.5,790.5 C 323.027,790.427 324.027,791.094 324.5,792.5C 322.973,792.573 321.973,791.906 321.5,790.5 Z"/></g>
<g><path style="opacity:1" fill="#6772b9" d="M 755.5,791.5 C 753.25,795.155 749.917,797.155 745.5,797.5C 748.825,795.503 752.159,793.503 755.5,791.5 Z"/></g>
<g><path style="opacity:1" fill="#8a93c7" d="M 884.5,795.5 C 883.738,797.262 882.404,798.262 880.5,798.5C 881.262,796.738 882.596,795.738 884.5,795.5 Z"/></g>
<g><path style="opacity:1" fill="#b0b7d9" d="M 880.5,798.5 C 879.147,800.738 877.147,802.071 874.5,802.5C 876.034,800.631 878.034,799.298 880.5,798.5 Z"/></g>
<g><path style="opacity:1" fill="#6c7bbd" d="M 741.5,800.5 C 741.5,800.833 741.5,801.167 741.5,801.5C 740.609,802.11 739.609,802.443 738.5,802.5C 738.973,801.094 739.973,800.427 741.5,800.5 Z"/></g>
<g><path style="opacity:1" fill="#122e99" d="M 741.5,801.5 C 757.737,818.238 774.237,834.904 791,851.5C 791.464,852.094 791.631,852.761 791.5,853.5C 790.5,853.833 789.833,854.5 789.5,855.5C 787.566,856.11 785.899,857.11 784.5,858.5C 782.093,860.213 779.426,861.547 776.5,862.5C 775.702,862.957 775.369,863.624 775.5,864.5C 773.407,865.045 771.407,865.878 769.5,867C 761.734,872.202 754.067,877.368 746.5,882.5C 744.847,882.66 743.514,883.326 742.5,884.5C 741.167,885.5 739.833,886.5 738.5,887.5C 736.326,887.75 734.659,888.75 733.5,890.5C 730.339,891.913 727.339,893.58 724.5,895.5C 707.367,879.2 690.7,862.366 674.5,845C 673.552,844.517 672.552,844.351 671.5,844.5C 681.794,837.347 692.461,830.68 703.5,824.5C 705.027,824.573 706.027,823.906 706.5,822.5C 716.794,815.347 727.461,808.68 738.5,802.5C 739.609,802.443 740.609,802.11 741.5,801.5 Z"/></g>
<g><path style="opacity:1" fill="#c0c5e1" d="M 874.5,802.5 C 872.577,805.14 869.91,806.807 866.5,807.5C 868.418,804.862 871.085,803.195 874.5,802.5 Z"/></g>
<g><path style="opacity:1" fill="#1235ac" d="M 346.5,806.5 C 349.571,808.898 352.905,810.898 356.5,812.5C 356.973,813.906 357.973,814.573 359.5,814.5C 370.121,821.149 380.788,827.816 391.5,834.5C 391.973,835.906 392.973,836.573 394.5,836.5C 405.131,843.153 415.797,849.819 426.5,856.5C 426.973,857.906 427.973,858.573 429.5,858.5C 433.632,861.477 437.966,864.143 442.5,866.5C 442.973,867.906 443.973,868.573 445.5,868.5C 457.339,876.922 469.672,884.588 482.5,891.5C 482.973,892.906 483.973,893.573 485.5,893.5C 490.489,897.331 495.822,900.664 501.5,903.5C 501.56,904.043 501.893,904.376 502.5,904.5C 503.499,892.518 503.832,880.518 503.5,868.5C 532.105,897.605 560.938,926.605 590,955.5C 590.333,956.5 590.667,957.5 591,958.5C 595.436,962.428 599.269,966.761 602.5,971.5C 600.869,973.643 598.869,975.31 596.5,976.5C 594.093,978.213 591.426,979.547 588.5,980.5C 587.702,980.957 587.369,981.624 587.5,982.5C 584.151,983.169 581.484,984.836 579.5,987.5C 575.495,988.498 572.161,990.498 569.5,993.5C 564.703,995.43 560.369,998.097 556.5,1001.5C 554.973,1001.43 553.973,1002.09 553.5,1003.5C 551.566,1004.11 549.899,1005.11 548.5,1006.5C 546.184,1007.81 543.85,1009.14 541.5,1010.5C 541.649,1009.45 541.483,1008.45 541,1007.5C 490,955.833 439,904.167 388,852.5C 387.333,851.167 386.667,849.833 386,848.5C 373.331,835.498 360.331,822.831 347,810.5C 346.51,809.207 346.343,807.873 346.5,806.5 Z"/></g>
<g><path style="opacity:1" fill="#8590c5" d="M 864.5,808.5 C 863.713,810.104 862.38,810.771 860.5,810.5C 861.514,809.326 862.847,808.66 864.5,808.5 Z"/></g>
<g><path style="opacity:1" fill="#93a2da" d="M 356.5,812.5 C 358.027,812.427 359.027,813.094 359.5,814.5C 357.973,814.573 356.973,813.906 356.5,812.5 Z"/></g>
<g><path style="opacity:1" fill="#6a79be" d="M 706.5,822.5 C 706.027,823.906 705.027,824.573 703.5,824.5C 703.973,823.094 704.973,822.427 706.5,822.5 Z"/></g>
<g><path style="opacity:1" fill="#c4c9e4" d="M 845.5,820.5 C 843.283,822.497 840.95,824.497 838.5,826.5C 836.925,827.456 835.258,828.123 833.5,828.5C 836.636,824.724 840.636,822.058 845.5,820.5 Z"/></g>
<g><path style="opacity:1" fill="#213ea5" d="M 503.5,610.5 C 503.5,610.167 503.5,609.833 503.5,609.5C 527.167,609.5 550.833,609.5 574.5,609.5C 574.5,707.833 574.5,806.167 574.5,904.5C 573.503,884.007 573.169,863.34 573.5,842.5C 573.5,808.5 573.5,774.5 573.5,740.5C 573.5,697.167 573.5,653.833 573.5,610.5C 550.167,610.5 526.833,610.5 503.5,610.5 Z"/></g>
<g><path style="opacity:1" fill="#8994c8" d="M 829.5,830.5 C 828.713,832.104 827.38,832.771 825.5,832.5C 826.514,831.326 827.847,830.66 829.5,830.5 Z"/></g>
<g><path style="opacity:1" fill="#91a0d9" d="M 391.5,834.5 C 393.027,834.427 394.027,835.094 394.5,836.5C 392.973,836.573 391.973,835.906 391.5,834.5 Z"/></g>
<g><path style="opacity:1" fill="#6b81d0" d="M 270.5,843.5 C 272.027,843.427 273.027,844.094 273.5,845.5C 271.973,845.573 270.973,844.906 270.5,843.5 Z"/></g>
<g><path style="opacity:1" fill="#12309f" d="M 671.5,844.5 C 672.552,844.351 673.552,844.517 674.5,845C 690.7,862.366 707.367,879.2 724.5,895.5C 721.991,896.921 719.657,898.588 717.5,900.5C 715.973,900.427 714.973,901.094 714.5,902.5C 712.973,902.427 711.973,903.094 711.5,904.5C 709.326,904.75 707.659,905.75 706.5,907.5C 701.628,909.429 697.295,912.095 693.5,915.5C 691.973,915.427 690.973,916.094 690.5,917.5C 688.147,918.34 686.147,919.674 684.5,921.5C 679.632,923.382 675.299,926.048 671.5,929.5C 669.632,930.263 667.965,931.263 666.5,932.5C 664.973,932.427 663.973,933.094 663.5,934.5C 662.833,934.833 662.167,935.167 661.5,935.5C 661.649,934.448 661.483,933.448 661,932.5C 644.833,916.333 628.667,900.167 612.5,884C 611.552,883.517 610.552,883.351 609.5,883.5C 610.29,882.599 611.29,881.932 612.5,881.5C 614.027,881.573 615.027,880.906 615.5,879.5C 618.721,878.889 621.721,877.722 624.5,876C 625.823,875.184 626.489,874.017 626.5,872.5C 641.705,863.403 656.705,854.069 671.5,844.5 Z"/></g>
<g><path style="opacity:1" fill="#c2c7e3" d="M 810.5,842.5 C 810.631,843.376 810.298,844.043 809.5,844.5C 806.03,846.811 802.363,848.811 798.5,850.5C 801.636,846.724 805.636,844.058 810.5,842.5 Z"/></g>
<g><path style="opacity:1" fill="#99a3d2" d="M 791.5,853.5 C 791.833,853.5 792.167,853.5 792.5,853.5C 792.027,854.906 791.027,855.573 789.5,855.5C 789.833,854.5 790.5,853.833 791.5,853.5 Z"/></g>
<g><path style="opacity:1" fill="#909fd8" d="M 426.5,856.5 C 428.027,856.427 429.027,857.094 429.5,858.5C 427.973,858.573 426.973,857.906 426.5,856.5 Z"/></g>
<g><path style="opacity:1" fill="#acb2da" d="M 784.5,858.5 C 782.283,861.585 779.283,863.585 775.5,864.5C 775.369,863.624 775.702,862.957 776.5,862.5C 779.426,861.547 782.093,860.213 784.5,858.5 Z"/></g>
<g><path style="opacity:1" fill="#9aa8db" d="M 442.5,866.5 C 444.027,866.427 445.027,867.094 445.5,868.5C 443.973,868.573 442.973,867.906 442.5,866.5 Z"/></g>
<g><path style="opacity:1" fill="#4656b3" d="M 626.5,872.5 C 626.489,874.017 625.823,875.184 624.5,876C 621.721,877.722 618.721,878.889 615.5,879.5C 618.876,876.806 622.543,874.473 626.5,872.5 Z"/></g>
<g><path style="opacity:1" fill="#6f7ec5" d="M 615.5,879.5 C 615.027,880.906 614.027,881.573 612.5,881.5C 612.973,880.094 613.973,879.427 615.5,879.5 Z"/></g>
<g><path style="opacity:1" fill="#8c99ce" d="M 746.5,882.5 C 745.713,884.104 744.38,884.771 742.5,884.5C 743.514,883.326 744.847,882.66 746.5,882.5 Z"/></g>
<g><path style="opacity:1" fill="#8794cc" d="M 738.5,887.5 C 737.341,889.25 735.674,890.25 733.5,890.5C 734.659,888.75 736.326,887.75 738.5,887.5 Z"/></g>
<g><path style="opacity:1" fill="#9aa8db" d="M 482.5,891.5 C 484.027,891.427 485.027,892.094 485.5,893.5C 483.973,893.573 482.973,892.906 482.5,891.5 Z"/></g>
<g><path style="opacity:1" fill="#909dd4" d="M 588.5,896.5 C 587.713,898.104 586.38,898.771 584.5,898.5C 585.514,897.326 586.847,896.66 588.5,896.5 Z"/></g>
<g><path style="opacity:1" fill="#95a2d3" d="M 717.5,900.5 C 717.027,901.906 716.027,902.573 714.5,902.5C 714.973,901.094 715.973,900.427 717.5,900.5 Z"/></g>
<g><path style="opacity:1" fill="#939fd2" d="M 711.5,904.5 C 710.341,906.25 708.674,907.25 706.5,907.5C 707.659,905.75 709.326,904.75 711.5,904.5 Z"/></g>
<g><path style="opacity:1" fill="#798dd3" d="M 375.5,909.5 C 377.027,909.427 378.027,910.094 378.5,911.5C 376.973,911.573 375.973,910.906 375.5,909.5 Z"/></g>
<g><path style="opacity:1" fill="#96a1d4" d="M 693.5,915.5 C 693.027,916.906 692.027,917.573 690.5,917.5C 690.973,916.094 691.973,915.427 693.5,915.5 Z"/></g>
<g><path style="opacity:1" fill="#b7bee2" d="M 684.5,921.5 C 682.195,923.583 679.695,925.583 677,927.5C 675.2,928.32 673.366,928.986 671.5,929.5C 675.299,926.048 679.632,923.382 684.5,921.5 Z"/></g>
<g><path style="opacity:1" fill="#6b81ce" d="M 396.5,922.5 C 398.027,922.427 399.027,923.094 399.5,924.5C 397.973,924.573 396.973,923.906 396.5,922.5 Z"/></g>
<g><path style="opacity:1" fill="#7d90d4" d="M 410.5,931.5 C 412.027,931.427 413.027,932.094 413.5,933.5C 411.973,933.573 410.973,932.906 410.5,931.5 Z"/></g>
<g><path style="opacity:1" fill="#96a2d5" d="M 666.5,932.5 C 666.027,933.906 665.027,934.573 663.5,934.5C 663.973,933.094 664.973,932.427 666.5,932.5 Z"/></g>
<g><path style="opacity:1" fill="#bec5e6" d="M 653.5,940.5 C 652.524,941.815 651.524,943.148 650.5,944.5C 646.593,946.008 642.927,947.674 639.5,949.5C 643.819,946.004 648.485,943.004 653.5,940.5 Z"/></g>
<g><path style="opacity:1" fill="#6e80ce" d="M 444.5,952.5 C 446.404,952.738 447.738,953.738 448.5,955.5C 446.596,955.262 445.262,954.262 444.5,952.5 Z"/></g>
<g><path style="opacity:1" fill="#afb8e0" d="M 631.5,954.5 C 629.283,957.585 626.283,959.585 622.5,960.5C 622.369,959.624 622.702,958.957 623.5,958.5C 626.426,957.547 629.093,956.213 631.5,954.5 Z"/></g>
<g><path style="opacity:1" fill="#7387d0" d="M 466.5,966.5 C 468.027,966.427 469.027,967.094 469.5,968.5C 467.973,968.573 466.973,967.906 466.5,966.5 Z"/></g>
<g><path style="opacity:1" fill="#8796d2" d="M 610.5,967.5 C 610.027,968.906 609.027,969.573 607.5,969.5C 607.973,968.094 608.973,967.427 610.5,967.5 Z"/></g>
<g><path style="opacity:1" fill="#475abe" d="M 473.5,970.5 C 477.293,971.416 480.293,973.416 482.5,976.5C 479.218,974.86 476.218,972.86 473.5,970.5 Z"/></g>
<g><path style="opacity:1" fill="#b4bce3" d="M 596.5,976.5 C 594.283,979.585 591.283,981.585 587.5,982.5C 587.369,981.624 587.702,980.957 588.5,980.5C 591.426,979.547 594.093,978.213 596.5,976.5 Z"/></g>
<g><path style="opacity:1" fill="#c5ccea" d="M 579.5,987.5 C 579.631,988.376 579.298,989.043 578.5,989.5C 575.477,991.014 572.477,992.347 569.5,993.5C 572.161,990.498 575.495,988.498 579.5,987.5 Z"/></g>
<g><path style="opacity:1" fill="#7689d0" d="M 501.5,988.5 C 503.027,988.427 504.027,989.094 504.5,990.5C 502.973,990.573 501.973,989.906 501.5,988.5 Z"/></g>
<g><path style="opacity:1" fill="#495cbe" d="M 508.5,992.5 C 512.293,993.416 515.293,995.416 517.5,998.5C 514.218,996.86 511.218,994.86 508.5,992.5 Z"/></g>
<g><path style="opacity:1" fill="#697ecc" d="M 522.5,1001.5 C 524.027,1001.43 525.027,1002.09 525.5,1003.5C 523.973,1003.57 522.973,1002.91 522.5,1001.5 Z"/></g>
<g><path style="opacity:1" fill="#96a5db" d="M 556.5,1001.5 C 556.027,1002.91 555.027,1003.57 553.5,1003.5C 553.973,1002.09 554.973,1001.43 556.5,1001.5 Z"/></g>
<g><path style="opacity:1" fill="#c2caea" d="M 548.5,1006.5 C 545.696,1010.76 542.03,1012.42 537.5,1011.5C 538.959,1011.57 540.292,1011.23 541.5,1010.5C 543.85,1009.14 546.184,1007.81 548.5,1006.5 Z"/></g>
</svg>
