<?xml version="1.0" encoding="UTF-8"?>
<!DOCTYPE svg PUBLIC "-//W3C//DTD SVG 1.1//EN" "http://www.w3.org/Graphics/SVG/1.1/DTD/svg11.dtd">
<svg xmlns="http://www.w3.org/2000/svg" version="1.1" width="414px" height="416px" style="shape-rendering:geometricPrecision; text-rendering:geometricPrecision; image-rendering:optimizeQuality; fill-rule:evenodd; clip-rule:evenodd" xmlns:xlink="http://www.w3.org/1999/xlink">
<g><path style="opacity:1" fill="#013c8b" d="M 270.5,15.5 C 270.539,16.5832 270.873,17.5832 271.5,18.5C 267.466,25.3617 261.466,29.5283 253.5,31C 222.348,31.3294 191.182,31.1627 160,30.5C 150.735,30.4292 141.901,32.2625 133.5,36C 127.378,42.1795 124.044,49.6795 123.5,58.5C 123.216,89.7875 123.55,121.121 124.5,152.5C 116.786,159.594 110.786,167.927 106.5,177.5C 106.5,154.833 106.5,132.167 106.5,109.5C 106.5,104.833 106.5,100.167 106.5,95.5C 106.5,88.8333 106.5,82.1667 106.5,75.5C 106.268,70.5586 106.268,65.7252 106.5,61C 106.333,60.5 106.167,60 106,59.5C 105.333,60.8333 104.667,62.1667 104,63.5C 103.764,61.8807 102.931,60.8807 101.5,60.5C 100.833,60.5 100.167,60.5 99.5,60.5C 99.8333,59.8333 100.167,59.1667 100.5,58.5C 103.378,56.7797 105.378,54.2797 106.5,51C 106.43,50.2352 106.097,49.7352 105.5,49.5C 106.463,48.6365 106.463,47.9698 105.5,47.5C 104.583,48.1272 103.583,48.4606 102.5,48.5C 103.315,47.1634 104.482,46.1634 106,45.5C 104.607,34.6753 107.774,25.5086 115.5,18C 117.888,16.1395 120.554,14.8061 123.5,14C 171.833,13.3333 220.167,13.3333 268.5,14C 269.416,14.2784 270.082,14.7784 270.5,15.5 Z"/></g>
<g><path style="opacity:0.004" fill="#000000" d="M 283.5,27.5 C 287.915,27.8606 291.915,29.1939 295.5,31.5C 291.777,30.7033 288.11,29.7033 284.5,28.5C 283.833,28.5 283.5,28.1667 283.5,27.5 Z"/></g>
<g><path style="opacity:0.004" fill="#1707e1" d="M 284.5,28.5 C 288.11,29.7033 291.777,30.7033 295.5,31.5C 296.791,31.2627 297.791,31.596 298.5,32.5C 299.78,33.9313 301.447,34.5979 303.5,34.5C 305.426,36.2927 307.759,37.2927 310.5,37.5C 315.484,39.3255 320.151,41.6589 324.5,44.5C 326.336,46.588 328.669,47.9213 331.5,48.5C 332.659,50.2503 334.326,51.2503 336.5,51.5C 336.973,52.9063 337.973,53.573 339.5,53.5C 339.973,54.9063 340.973,55.573 342.5,55.5C 344.296,57.9 346.63,59.5667 349.5,60.5C 350.262,62.2624 351.596,63.2624 353.5,63.5C 354.167,63.5 354.5,63.8333 354.5,64.5C 355.585,66.5869 357.251,67.9202 359.5,68.5C 361.239,71.2427 363.573,73.2427 366.5,74.5C 370.833,78.1667 374.833,82.1667 378.5,86.5C 379.757,89.4274 381.757,91.7607 384.5,93.5C 385.08,95.7488 386.413,97.4154 388.5,98.5C 389.167,98.5 389.5,98.8333 389.5,99.5C 389.738,101.404 390.738,102.738 392.5,103.5C 393.433,106.37 395.1,108.704 397.5,110.5C 397.427,112.027 398.094,113.027 399.5,113.5C 400.383,116.704 402.05,119.371 404.5,121.5C 405.338,121.842 405.672,122.508 405.5,123.5C 405.75,125.674 406.75,127.341 408.5,128.5C 410.167,131.167 411.833,133.833 413.5,136.5C 413.5,138.833 413.5,141.167 413.5,143.5C 386.441,87.783 343.441,50.1164 284.5,30.5C 284.5,29.8333 284.5,29.1667 284.5,28.5 Z"/></g>
<g><path style="opacity:0.995" fill="#002a6f" d="M 282.5,26.5 C 283.167,26.5 283.5,26.8333 283.5,27.5C 283.5,28.1667 283.833,28.5 284.5,28.5C 284.5,29.1667 284.5,29.8333 284.5,30.5C 285.11,31.391 285.443,32.391 285.5,33.5C 285.5,34.1667 285.5,34.8333 285.5,35.5C 285.5,36.1667 285.5,36.8333 285.5,37.5C 285.5,40.8333 285.5,44.1667 285.5,47.5C 285.5,49.1667 285.5,50.8333 285.5,52.5C 285.199,60.5856 285.533,68.5856 286.5,76.5C 285.532,78.6074 285.198,80.9407 285.5,83.5C 285.5,85.8333 285.5,88.1667 285.5,90.5C 284.833,73.3286 284.167,55.9953 283.5,38.5C 282.167,37.1667 280.833,37.1667 279.5,38.5C 278.509,40.3231 277.176,41.8231 275.5,43C 276.672,43.4186 277.672,44.0853 278.5,45C 277.056,46.7635 276.056,48.7635 275.5,51C 275.871,89.9017 276.204,128.568 276.5,167C 275.272,175.808 270.438,179.974 262,179.5C 261.536,180.094 261.369,180.761 261.5,181.5C 247.416,172.12 232.749,171.12 217.5,178.5C 214.759,176.025 212.759,173.025 211.5,169.5C 214.625,168.521 217.958,168.187 221.5,168.5C 235.171,168.667 248.837,168.5 262.5,168C 265.4,165.974 266.067,163.474 264.5,160.5C 264.5,160.167 264.5,159.833 264.5,159.5C 263.927,155.122 263.594,150.956 263.5,147C 265.213,143.324 266.546,139.491 267.5,135.5C 267.006,133.974 266.339,132.641 265.5,131.5C 264.662,131.158 264.328,130.492 264.5,129.5C 264.752,125.85 264.418,122.35 263.5,119C 264.152,115.24 265.485,111.74 267.5,108.5C 266.972,106.664 266.306,104.997 265.5,103.5C 265.5,102.833 265.5,102.167 265.5,101.5C 265.249,99.8297 264.582,98.3297 263.5,97C 264.097,94.5639 264.097,91.8973 263.5,89C 266.057,84.2562 266.723,79.4229 265.5,74.5C 265.608,72.4862 264.942,70.8195 263.5,69.5C 263.779,65.5846 263.779,61.7512 263.5,58C 267.106,52.4058 267.772,46.5725 265.5,40.5C 268.007,36.2152 271.34,32.0486 275.5,28C 277.547,25.6972 279.881,25.1972 282.5,26.5 Z"/></g>
<g><path style="opacity:0.004" fill="#00fffe" d="M 284.5,30.5 C 343.441,50.1164 386.441,87.783 413.5,143.5C 413.5,145.833 413.5,148.167 413.5,150.5C 404.712,131.594 393.879,113.927 381,97.5C 378.63,94.9614 376.13,92.6281 373.5,90.5C 370.833,85.8333 367.167,82.1667 362.5,79.5C 340.514,58.327 314.848,42.9937 285.5,33.5C 285.443,32.391 285.11,31.391 284.5,30.5 Z"/></g>
<g><path style="opacity:0.004" fill="#000000" d="M 298.5,32.5 C 300.553,32.4021 302.22,33.0687 303.5,34.5C 301.447,34.5979 299.78,33.9313 298.5,32.5 Z"/></g>
<g><path style="opacity:0.004" fill="#00807f" d="M 285.5,33.5 C 314.848,42.9937 340.514,58.327 362.5,79.5C 343.778,62.9933 322.778,49.8266 299.5,40C 294.98,37.9932 290.313,36.4932 285.5,35.5C 285.5,34.8333 285.5,34.1667 285.5,33.5 Z"/></g>
<g><path style="opacity:0.004" fill="#000000" d="M 303.5,34.5 C 306.241,34.7073 308.574,35.7073 310.5,37.5C 307.759,37.2927 305.426,36.2927 303.5,34.5 Z"/></g>
<g><path style="opacity:0.004" fill="#7578ef" d="M 285.5,35.5 C 290.313,36.4932 294.98,37.9932 299.5,40C 322.778,49.8266 343.778,62.9933 362.5,79.5C 365.833,83.5 369.5,87.1667 373.5,90.5C 381.225,100.262 388.725,110.262 396,120.5C 402.386,131.276 408.22,142.276 413.5,153.5C 413.5,155.833 413.5,158.167 413.5,160.5C 392.574,108.068 356.574,69.5684 305.5,45C 298.926,42.1983 292.259,39.6983 285.5,37.5C 285.5,36.8333 285.5,36.1667 285.5,35.5 Z"/></g>
<g><path style="opacity:1" fill="#002364" d="M 285.5,90.5 C 285.5,132.167 285.5,173.833 285.5,215.5C 282.881,215.768 280.381,215.435 278,214.5C 277.238,200.976 271.738,189.976 261.5,181.5C 261.369,180.761 261.536,180.094 262,179.5C 270.438,179.974 275.272,175.808 276.5,167C 276.204,128.568 275.871,89.9017 275.5,51C 276.056,48.7635 277.056,46.7635 278.5,45C 277.672,44.0853 276.672,43.4186 275.5,43C 277.176,41.8231 278.509,40.3231 279.5,38.5C 280.833,37.1667 282.167,37.1667 283.5,38.5C 284.167,55.9953 284.833,73.3286 285.5,90.5 Z"/></g>
<g><path style="opacity:1" fill="#02327b" d="M 270.5,15.5 C 276.43,17.0979 280.43,20.7645 282.5,26.5C 279.881,25.1972 277.547,25.6972 275.5,28C 271.34,32.0486 268.007,36.2152 265.5,40.5C 267.772,46.5725 267.106,52.4058 263.5,58C 263.779,61.7512 263.779,65.5846 263.5,69.5C 254.827,69.3336 246.16,69.5002 237.5,70C 234.701,73.3388 235.034,76.3388 238.5,79C 246.5,79.6667 254.5,79.6667 262.5,79C 264.376,78.0816 265.376,76.5816 265.5,74.5C 266.723,79.4229 266.057,84.2562 263.5,89C 264.097,91.8973 264.097,94.5639 263.5,97C 264.582,98.3297 265.249,99.8297 265.5,101.5C 264.373,100.878 263.373,100.045 262.5,99C 254.5,98.3333 246.5,98.3333 238.5,99C 234.5,102.333 234.5,105.667 238.5,109C 246.167,109.667 253.833,109.667 261.5,109C 264.215,108.125 265.548,106.292 265.5,103.5C 266.306,104.997 266.972,106.664 267.5,108.5C 265.485,111.74 264.152,115.24 263.5,119C 264.418,122.35 264.752,125.85 264.5,129.5C 255.881,128.392 247.215,128.225 238.5,129C 235.034,131.661 234.701,134.661 237.5,138C 246.167,138.667 254.833,138.667 263.5,138C 265.229,136.211 265.896,134.044 265.5,131.5C 266.339,132.641 267.006,133.974 267.5,135.5C 266.546,139.491 265.213,143.324 263.5,147C 263.594,150.956 263.927,155.122 264.5,159.5C 262.958,158.699 261.292,158.366 259.5,158.5C 240.674,157.503 221.674,157.17 202.5,157.5C 188.44,142.813 171.44,137.147 151.5,140.5C 141.379,142.062 132.379,146.062 124.5,152.5C 123.55,121.121 123.216,89.7875 123.5,58.5C 124.044,49.6795 127.378,42.1795 133.5,36C 141.901,32.2625 150.735,30.4292 160,30.5C 191.182,31.1627 222.348,31.3294 253.5,31C 261.466,29.5283 267.466,25.3617 271.5,18.5C 270.873,17.5832 270.539,16.5832 270.5,15.5 Z"/></g>
<g><path style="opacity:0.004" fill="#000000" d="M 324.5,44.5 C 327.331,45.0787 329.664,46.412 331.5,48.5C 328.669,47.9213 326.336,46.588 324.5,44.5 Z"/></g>
<g><path style="opacity:1" fill="#dbebfa" d="M 238.5,39.5 C 246.507,39.3336 254.507,39.5003 262.5,40C 266.5,43 266.5,46 262.5,49C 254.167,49.6667 245.833,49.6667 237.5,49C 234.636,45.3762 234.969,42.2095 238.5,39.5 Z"/></g>
<g><path style="opacity:0.004" fill="#1205eb" d="M 105.5,49.5 C 104.833,50.1667 104.167,50.8333 103.5,51.5C 54.9097,80.9631 23.0764,123.296 8,178.5C -9.73362,252.518 4.93305,319.185 52,378.5C 64.5397,392.554 78.373,404.888 93.5,415.5C 92.1667,415.5 90.8333,415.5 89.5,415.5C 89.0269,414.094 88.0269,413.427 86.5,413.5C 85.7377,411.738 84.4044,410.738 82.5,410.5C 81.4154,408.413 79.7488,407.08 77.5,406.5C 76.4154,404.413 74.7488,403.08 72.5,402.5C 71.8333,402.5 71.5,402.167 71.5,401.5C 65.1667,394.5 58.5,387.833 51.5,381.5C 50.8333,381.5 50.5,381.167 50.5,380.5C 49.9202,378.251 48.5869,376.585 46.5,375.5C 45.8333,375.5 45.5,375.167 45.5,374.5C 45.2624,372.596 44.2624,371.262 42.5,370.5C 42.2624,368.596 41.2624,367.262 39.5,366.5C 39.573,364.973 38.9063,363.973 37.5,363.5C 36.2411,359.975 34.2411,356.975 31.5,354.5C 31.2503,352.326 30.2503,350.659 28.5,349.5C 28.2503,347.326 27.2503,345.659 25.5,344.5C 24.3263,343.486 23.6596,342.153 23.5,340.5C 22.6743,337.515 21.341,334.849 19.5,332.5C 18.6618,332.158 18.3284,331.492 18.5,330.5C 18.2927,327.759 17.2927,325.426 15.5,323.5C 15.5979,321.447 14.9313,319.78 13.5,318.5C 13.5979,316.447 12.9313,314.78 11.5,313.5C 10.2616,311.786 9.59495,309.786 9.5,307.5C 9.59047,304.848 8.92381,302.515 7.5,300.5C 5.74241,297.146 4.74241,293.479 4.5,289.5C 4.11791,284.256 3.11791,279.256 1.5,274.5C 0.833333,272.167 0.166667,269.833 -0.5,267.5C -0.5,249.5 -0.5,231.5 -0.5,213.5C 0.724898,208.71 1.39156,203.71 1.5,198.5C 1.6253,193.206 2.6253,188.206 4.5,183.5C 5.7682,181.095 6.43487,178.428 6.5,175.5C 7.92381,173.485 8.59047,171.152 8.5,168.5C 10.0719,165.785 11.0719,162.785 11.5,159.5C 11.2627,158.209 11.596,157.209 12.5,156.5C 13.9313,155.22 14.5979,153.553 14.5,151.5C 15.9313,150.22 16.5979,148.553 16.5,146.5C 20.6745,139.484 24.3412,132.151 27.5,124.5C 29.2503,123.341 30.2503,121.674 30.5,119.5C 32.2503,118.341 33.2503,116.674 33.5,114.5C 34.9063,114.027 35.573,113.027 35.5,111.5C 37.9,109.704 39.5667,107.37 40.5,104.5C 42.2624,103.738 43.2624,102.404 43.5,100.5C 45.5869,99.4154 46.9202,97.7488 47.5,95.5C 49.914,94.0892 51.5806,92.0892 52.5,89.5C 52.5,88.8333 52.8333,88.5 53.5,88.5C 59.1667,83.5 64.5,78.1667 69.5,72.5C 69.5,71.8333 69.8333,71.5 70.5,71.5C 73.0892,70.5806 75.0892,68.914 76.5,66.5C 78.4044,66.2624 79.7377,65.2624 80.5,63.5C 83.5331,61.984 86.1997,59.984 88.5,57.5C 90.0269,57.573 91.0269,56.9063 91.5,55.5C 93.0269,55.573 94.0269,54.9063 94.5,53.5C 96.0269,53.573 97.0269,52.9063 97.5,51.5C 99.674,51.2503 101.341,50.2503 102.5,48.5C 103.583,48.4606 104.583,48.1272 105.5,47.5C 106.463,47.9698 106.463,48.6365 105.5,49.5 Z"/></g>
<g><path style="opacity:0.004" fill="#000000" d="M 102.5,48.5 C 101.341,50.2503 99.674,51.2503 97.5,51.5C 98.6594,49.7497 100.326,48.7497 102.5,48.5 Z"/></g>
<g><path style="opacity:0.004" fill="#000000" d="M 331.5,48.5 C 333.674,48.7497 335.341,49.7497 336.5,51.5C 334.326,51.2503 332.659,50.2503 331.5,48.5 Z"/></g>
<g><path style="opacity:0.004" fill="#000000" d="M 97.5,51.5 C 97.0269,52.9063 96.0269,53.573 94.5,53.5C 94.9731,52.0937 95.9731,51.427 97.5,51.5 Z"/></g>
<g><path style="opacity:0.004" fill="#00fdfd" d="M 103.5,51.5 C 101.854,54.8102 99.5203,57.4768 96.5,59.5C 76.9666,71.365 60.6332,86.6983 47.5,105.5C 47.2624,107.404 46.2624,108.738 44.5,109.5C 24.0422,137.115 11.2089,168.115 6,202.5C -2.03888,259.334 9.62778,311.667 41,359.5C 42.617,361.763 44.4503,363.763 46.5,365.5C 48.2076,369.572 50.8743,372.905 54.5,375.5C 65.6677,390.006 79.001,402.006 94.5,411.5C 97.0041,412.584 99.3374,413.917 101.5,415.5C 98.8333,415.5 96.1667,415.5 93.5,415.5C 78.373,404.888 64.5397,392.554 52,378.5C 4.93305,319.185 -9.73362,252.518 8,178.5C 23.0764,123.296 54.9097,80.9631 103.5,51.5 Z"/></g>
<g><path style="opacity:0.004" fill="#000000" d="M 336.5,51.5 C 338.027,51.427 339.027,52.0937 339.5,53.5C 337.973,53.573 336.973,52.9063 336.5,51.5 Z"/></g>
<g><path style="opacity:1" fill="#9db2cf" d="M 185.5,50.5 C 184.167,50.5 182.833,50.5 181.5,50.5C 181.829,63.6774 181.495,76.6774 180.5,89.5C 180.5,76.1667 180.5,62.8333 180.5,49.5C 182.415,49.2155 184.081,49.5489 185.5,50.5 Z"/></g>
<g><path style="opacity:0.004" fill="#000000" d="M 94.5,53.5 C 94.0269,54.9063 93.0269,55.573 91.5,55.5C 91.9731,54.0937 92.9731,53.427 94.5,53.5 Z"/></g>
<g><path style="opacity:0.008" fill="#006767" d="M 105.5,49.5 C 106.097,49.7352 106.43,50.2352 106.5,51C 105.378,54.2797 103.378,56.7797 100.5,58.5C 99.1667,58.8333 97.8333,59.1667 96.5,59.5C 99.5203,57.4768 101.854,54.8102 103.5,51.5C 104.167,50.8333 104.833,50.1667 105.5,49.5 Z"/></g>
<g><path style="opacity:0.004" fill="#000000" d="M 339.5,53.5 C 341.027,53.427 342.027,54.0937 342.5,55.5C 340.973,55.573 339.973,54.9063 339.5,53.5 Z"/></g>
<g><path style="opacity:0.004" fill="#000000" d="M 91.5,55.5 C 91.0269,56.9063 90.0269,57.573 88.5,57.5C 88.9731,56.0937 89.9731,55.427 91.5,55.5 Z"/></g>
<g><path style="opacity:0.004" fill="#000000" d="M 342.5,55.5 C 345.37,56.4333 347.704,58.1 349.5,60.5C 346.63,59.5667 344.296,57.9 342.5,55.5 Z"/></g>
<g><path style="opacity:0.004" fill="#000000" d="M 88.5,57.5 C 86.1997,59.984 83.5331,61.984 80.5,63.5C 82.4426,60.5293 85.1092,58.5293 88.5,57.5 Z"/></g>
<g><path style="opacity:0.004" fill="#7679f1" d="M 100.5,58.5 C 100.167,59.1667 99.8333,59.8333 99.5,60.5C 91.542,66.4559 83.8753,72.7893 76.5,79.5C 70.1667,83.8333 64.8333,89.1667 60.5,95.5C 37.6816,120.4 22.0149,149.4 13.5,182.5C 7.99088,203.681 5.99088,225.014 7.5,246.5C 7.28598,255.773 8.28598,264.773 10.5,273.5C 21.757,334.733 53.4237,382.067 105.5,415.5C 104.167,415.5 102.833,415.5 101.5,415.5C 99.3374,413.917 97.0041,412.584 94.5,411.5C 88.6881,406.531 82.6881,401.697 76.5,397C 69.2982,389.631 61.9649,382.464 54.5,375.5C 52.3115,371.793 49.6448,368.46 46.5,365.5C 5.64973,306.4 -5.18361,242.067 14,172.5C 21.0057,149.826 31.1724,128.826 44.5,109.5C 46.2624,108.738 47.2624,107.404 47.5,105.5C 61.9447,88.0521 78.2781,72.7188 96.5,59.5C 97.8333,59.1667 99.1667,58.8333 100.5,58.5 Z"/></g>
<g><path style="opacity:1" fill="#edf5fe" d="M 185.5,50.5 C 193.435,52.4445 200.101,56.4445 205.5,62.5C 205.196,63.1499 204.863,63.8165 204.5,64.5C 215.49,87.04 210.323,105.04 189,118.5C 185.336,119.624 181.836,121.124 178.5,123C 170.106,123.547 161.772,123.047 153.5,121.5C 152.427,120.749 152.26,119.749 153,118.5C 162.758,109.246 171.925,99.5794 180.5,89.5C 181.495,76.6774 181.829,63.6774 181.5,50.5C 182.833,50.5 184.167,50.5 185.5,50.5 Z"/></g>
<g><path style="opacity:0.004" fill="#00807f" d="M 96.5,59.5 C 78.2781,72.7188 61.9447,88.0521 47.5,105.5C 60.6332,86.6983 76.9666,71.365 96.5,59.5 Z"/></g>
<g><path style="opacity:0.004" fill="#000000" d="M 349.5,60.5 C 351.404,60.7376 352.738,61.7376 353.5,63.5C 351.596,63.2624 350.262,62.2624 349.5,60.5 Z"/></g>
<g><path style="opacity:1" fill="#ecf5fd" d="M 165.5,50.5 C 167.288,50.2148 168.955,50.5481 170.5,51.5C 170.062,52.5063 169.396,52.5063 168.5,51.5C 166.861,61.7622 165.695,72.0956 165,82.5C 158.905,90.5987 152.072,98.0987 144.5,105C 142.82,104.229 141.153,104.395 139.5,105.5C 131.891,83.8966 137.558,66.73 156.5,54C 159.327,52.3364 162.327,51.1697 165.5,50.5 Z"/></g>
<g><path style="opacity:0.004" fill="#000000" d="M 80.5,63.5 C 79.7377,65.2624 78.4044,66.2624 76.5,66.5C 77.2623,64.7376 78.5956,63.7376 80.5,63.5 Z"/></g>
<g><path style="opacity:0.004" fill="#000000" d="M 354.5,64.5 C 356.749,65.0798 358.415,66.4131 359.5,68.5C 357.251,67.9202 355.585,66.5869 354.5,64.5 Z"/></g>
<g><path style="opacity:0.008" fill="#4b97cd" d="M 99.5,60.5 C 100.167,60.5 100.833,60.5 101.5,60.5C 99.4593,67.2156 98.1259,73.8823 97.5,80.5C 95.9095,82.6326 93.9095,84.2993 91.5,85.5C 90.3552,84.2073 90.6885,83.0407 92.5,82C 90.3652,81.4582 88.0319,80.4582 85.5,79C 86.7282,78.221 87.7282,77.221 88.5,76C 88.1501,74.7425 87.4835,74.4092 86.5,75C 83.7902,76.4598 83.1235,78.4598 84.5,81C 83.3589,82.6166 82.5255,84.45 82,86.5C 81.6667,86.8333 81.3333,87.1667 81,87.5C 80.5774,86.0439 79.7441,85.5439 78.5,86C 74.3333,90.1667 70.1667,94.3333 66,98.5C 65.5078,99.549 65.6744,100.549 66.5,101.5C 63.9972,101.812 61.8306,103.145 60,105.5C 60.6171,107.095 60.2837,108.428 59,109.5C 58.6667,109.167 58.3333,108.833 58,108.5C 55.9288,111.416 54.5954,111.082 54,107.5C 53.2155,109.286 52.0488,110.786 50.5,112C 50.8333,113.667 51.1667,115.333 51.5,117C 48.042,122.082 44.7087,127.248 41.5,132.5C 42.5,133.167 43.5,133.833 44.5,134.5C 43.3595,135.425 43.3595,136.259 44.5,137C 42.8374,137.265 41.3374,136.765 40,135.5C 38.0797,138.339 36.4131,141.339 35,144.5C 34.6667,143.833 34.3333,143.167 34,142.5C 28.4485,147.291 26.6152,153.291 28.5,160.5C 30.1033,160.312 31.4366,160.812 32.5,162C 31.3859,163.449 30.3859,164.783 29.5,166C 30.6872,167.019 31.6872,168.186 32.5,169.5C 30.0087,170.541 30.0087,171.374 32.5,172C 30.494,174.048 29.494,173.548 29.5,170.5C 26.2871,170.808 25.2871,169.641 26.5,167C 26.1377,165.775 25.6377,164.609 25,163.5C 21.5722,169.098 20.2389,175.098 21,181.5C 20.6411,178.456 19.9745,178.122 19,180.5C 18.3744,182.713 18.5411,184.88 19.5,187C 19.0556,188.762 18.5556,188.595 18,186.5C 17.6053,188.179 17.772,189.845 18.5,191.5C 17.9361,193.819 17.4361,196.153 17,198.5C 16.6667,197.5 16.3333,196.5 16,195.5C 15.8333,196.167 15.6667,196.833 15.5,197.5C 16.3958,199.801 16.5625,202.134 16,204.5C 15.6667,203.167 15.3333,201.833 15,200.5C 14.8333,201.333 14.6667,202.167 14.5,203C 15.3863,205.808 15.553,208.641 15,211.5C 14.6667,210.167 14.3333,208.833 14,207.5C 13.8333,208.333 13.6667,209.167 13.5,210C 14.4787,213.804 14.6454,217.638 14,221.5C 13.6667,219.5 13.3333,217.5 13,215.5C 12.8333,217 12.6667,218.5 12.5,220C 13.541,229.484 13.7077,238.984 13,248.5C 12.6667,242.5 12.3333,236.5 12,230.5C 11.154,239.553 11.4873,248.553 13,257.5C 13.3333,255.5 13.6667,253.5 14,251.5C 14.6454,255.362 14.4787,259.196 13.5,263C 13.6667,263.833 13.8333,264.667 14,265.5C 14.3333,264.167 14.6667,262.833 15,261.5C 15.6066,264.202 15.4399,266.868 14.5,269.5C 14.6667,270.167 14.8333,270.833 15,271.5C 15.6493,268.063 16.1493,267.896 16.5,271C 15.7479,273.154 15.5812,275.32 16,277.5C 16.3333,276.5 16.6667,275.5 17,274.5C 17.5758,276.377 17.4091,278.211 16.5,280C 16.9444,281.762 17.4444,281.595 18,279.5C 18.1667,280.167 18.3333,280.833 18.5,281.5C 17.0803,284.344 17.2469,287.011 19,289.5C 19.763,286.937 20.263,286.937 20.5,289.5C 19.1,292.02 19.2667,294.354 21,296.5C 21.3333,295.833 21.6667,295.167 22,294.5C 22.4962,296.035 22.3295,297.535 21.5,299C 21.9444,300.762 22.4444,300.595 23,298.5C 24.3569,300.655 24.5236,302.822 23.5,305C 23.8623,306.225 24.3623,307.391 25,308.5C 26.0283,306.639 27.5283,305.305 29.5,304.5C 29.0598,305.953 29.7265,307.119 31.5,308C 30.2986,308.903 29.4652,310.069 29,311.5C 28.4444,309.405 27.9444,309.238 27.5,311C 32.5367,329.501 42.0367,347.334 56,364.5C 56.8952,362.196 57.7285,359.862 58.5,357.5C 59.646,358.145 60.646,358.978 61.5,360C 57.0398,363.594 56.8731,367.094 61,370.5C 61.3173,368.699 61.984,368.366 63,369.5C 63,370.833 63,372.167 63,373.5C 68.1667,378.667 73.3333,383.833 78.5,389C 79.9078,389.315 81.2411,388.982 82.5,388C 77,382.5 71.5,377 66,371.5C 65.4372,370.275 65.7705,369.275 67,368.5C 74.6977,374.86 81.031,381.194 86,387.5C 87.1011,389.394 88.4345,390.061 90,389.5C 90.3152,390.908 89.9819,392.241 89,393.5C 87.3315,390.4 85.1649,389.9 82.5,392C 83.9431,393.067 85.2764,394.234 86.5,395.5C 87.451,394.674 88.451,394.508 89.5,395C 89.6158,396.268 89.9491,397.602 90.5,399C 92.3134,399.614 92.6467,399.281 91.5,398C 93.0806,397.293 94.5806,396.46 96,395.5C 96.9025,396.701 98.0692,397.535 99.5,398C 96.8709,400.789 97.5375,402.789 101.5,404C 100.833,404.333 100.167,404.667 99.5,405C 101.833,406.5 104.167,408 106.5,409.5C 109.35,408.072 110.35,408.739 109.5,411.5C 112.43,413.505 115.43,414.505 118.5,414.5C 119.645,410.962 121.478,410.628 124,413.5C 125.385,412.449 126.385,411.116 127,409.5C 127.359,412.544 128.026,412.878 129,410.5C 129.359,413.544 130.026,413.878 131,411.5C 131.359,414.544 132.026,414.878 133,412.5C 133.483,413.448 133.649,414.448 133.5,415.5C 124.167,415.5 114.833,415.5 105.5,415.5C 53.4237,382.067 21.757,334.733 10.5,273.5C 9.72705,264.332 8.72705,255.332 7.5,246.5C 5.99088,225.014 7.99088,203.681 13.5,182.5C 22.0149,149.4 37.6816,120.4 60.5,95.5C 66.1667,90.5 71.5,85.1667 76.5,79.5C 83.8753,72.7893 91.542,66.4559 99.5,60.5 Z"/></g>
<g><path style="opacity:0.004" fill="#000000" d="M 76.5,66.5 C 75.0892,68.914 73.0892,70.5806 70.5,71.5C 71.9108,69.086 73.9108,67.4194 76.5,66.5 Z"/></g>
<g><path style="opacity:0.031" fill="#2c65a8" d="M 106.5,75.5 C 103.634,77.4325 100.634,79.0991 97.5,80.5C 98.1259,73.8823 99.4593,67.2156 101.5,60.5C 102.931,60.8807 103.764,61.8807 104,63.5C 104.667,62.1667 105.333,60.8333 106,59.5C 106.167,60 106.333,60.5 106.5,61C 106.268,65.7252 106.268,70.5586 106.5,75.5 Z"/></g>
<g><path style="opacity:0.004" fill="#000000" d="M 359.5,68.5 C 362.427,69.7573 364.761,71.7573 366.5,74.5C 363.573,73.2427 361.239,71.2427 359.5,68.5 Z"/></g>
<g><path style="opacity:0.004" fill="#000000" d="M 69.5,72.5 C 64.5,78.1667 59.1667,83.5 53.5,88.5C 57.8333,82.1667 63.1667,76.8333 69.5,72.5 Z"/></g>
<g><path style="opacity:1" fill="#dbeaf8" d="M 263.5,69.5 C 264.942,70.8195 265.608,72.4862 265.5,74.5C 265.376,76.5816 264.376,78.0816 262.5,79C 254.5,79.6667 246.5,79.6667 238.5,79C 235.034,76.3388 234.701,73.3388 237.5,70C 246.16,69.5002 254.827,69.3336 263.5,69.5 Z"/></g>
<g><path style="opacity:0.231" fill="#1d5498" d="M 285.5,52.5 C 287.934,53.7713 289.434,55.7713 290,58.5C 291.507,57.4652 293.007,57.6319 294.5,59C 295.328,59.9147 296.328,60.5814 297.5,61C 296.289,61.8928 296.289,62.7261 297.5,63.5C 299.838,61.9893 300.504,62.3227 299.5,64.5C 302.153,66.155 304.486,68.155 306.5,70.5C 305.624,71.2508 304.624,71.7508 303.5,72C 307.246,75.0114 309.912,78.3448 311.5,82C 309.339,84.3759 309.339,87.0425 311.5,90C 310.62,91.3561 310.286,92.8561 310.5,94.5C 306.167,91.1667 301.833,87.8333 297.5,84.5C 294.403,81.1116 290.736,78.4449 286.5,76.5C 285.533,68.5856 285.199,60.5856 285.5,52.5 Z"/></g>
<g><path style="opacity:0.008" fill="#55aaa9" d="M 76.5,79.5 C 71.5,85.1667 66.1667,90.5 60.5,95.5C 64.8333,89.1667 70.1667,83.8333 76.5,79.5 Z"/></g>
<g><path style="opacity:0.004" fill="#00807f" d="M 362.5,79.5 C 367.167,82.1667 370.833,85.8333 373.5,90.5C 369.5,87.1667 365.833,83.5 362.5,79.5 Z"/></g>
<g><path style="opacity:1" fill="#006de3" d="M 106.5,75.5 C 106.5,82.1667 106.5,88.8333 106.5,95.5C 79.4555,120.056 60.1222,148.556 48.5,181C 48.8333,181.333 49.1667,181.667 49.5,182C 46.332,188.484 43.9987,195.318 42.5,202.5C 43.4779,203.801 43.1445,204.968 41.5,206C 42.2052,207.422 42.5385,208.755 42.5,210C 41.0156,213.269 39.6822,216.602 38.5,220C 36.7991,220.345 35.4658,219.678 34.5,218C 32.8673,187.693 39.3673,159.193 54,132.5C 54.49,131.207 54.6567,129.873 54.5,128.5C 64.3091,112.022 76.6424,97.6887 91.5,85.5C 93.9095,84.2993 95.9095,82.6326 97.5,80.5C 100.634,79.0991 103.634,77.4325 106.5,75.5 Z"/></g>
<g><path style="opacity:0.118" fill="#3876b7" d="M 285.5,47.5 C 287.394,48.0476 289.06,49.0476 290.5,50.5C 291.086,50.2907 291.586,49.9574 292,49.5C 295.849,53.515 300.349,56.6817 305.5,59C 314.338,64.394 320.671,73.0607 324.5,85C 324.167,85.5 323.833,86 323.5,86.5C 322.425,84.0977 321.258,81.7644 320,79.5C 319.13,80.1079 318.63,80.9412 318.5,82C 319.862,86.6248 320.862,91.2915 321.5,96C 319.637,97.4178 319.137,99.2511 320,101.5C 320.333,100.167 320.667,98.8333 321,97.5C 321.498,100.482 321.665,103.482 321.5,106.5C 320.5,106.167 319.833,105.5 319.5,104.5C 316.833,101.167 313.833,98.1667 310.5,95.5C 310.5,95.1667 310.5,94.8333 310.5,94.5C 310.286,92.8561 310.62,91.3561 311.5,90C 309.339,87.0425 309.339,84.3759 311.5,82C 309.912,78.3448 307.246,75.0114 303.5,72C 304.624,71.7508 305.624,71.2508 306.5,70.5C 304.486,68.155 302.153,66.155 299.5,64.5C 300.504,62.3227 299.838,61.9893 297.5,63.5C 296.289,62.7261 296.289,61.8928 297.5,61C 296.328,60.5814 295.328,59.9147 294.5,59C 293.007,57.6319 291.507,57.4652 290,58.5C 289.434,55.7713 287.934,53.7713 285.5,52.5C 285.5,50.8333 285.5,49.1667 285.5,47.5 Z"/></g>
<g><path style="opacity:1" fill="#cee4f6" d="M 165.5,50.5 C 167.265,49.5386 169.265,49.2053 171.5,49.5C 171.962,62.5993 171.462,75.5993 170,88.5C 161.667,96.8333 153.333,105.167 145,113.5C 142.91,110.978 141.076,108.312 139.5,105.5C 141.153,104.395 142.82,104.229 144.5,105C 152.072,98.0987 158.905,90.5987 165,82.5C 165.695,72.0956 166.861,61.7622 168.5,51.5C 169.396,52.5063 170.062,52.5063 170.5,51.5C 168.955,50.5481 167.288,50.2148 165.5,50.5 Z"/></g>
<g><path style="opacity:0.004" fill="#000000" d="M 378.5,86.5 C 381.243,88.2393 383.243,90.5726 384.5,93.5C 381.757,91.7607 379.757,89.4274 378.5,86.5 Z"/></g>
<g><path style="opacity:0.004" fill="#000000" d="M 52.5,89.5 C 51.5806,92.0892 49.914,94.0892 47.5,95.5C 48.4194,92.9108 50.086,90.9108 52.5,89.5 Z"/></g>
<g><path style="opacity:0.004" fill="#00807f" d="M 373.5,90.5 C 376.13,92.6281 378.63,94.9614 381,97.5C 393.879,113.927 404.712,131.594 413.5,150.5C 413.5,151.5 413.5,152.5 413.5,153.5C 408.22,142.276 402.386,131.276 396,120.5C 388.725,110.262 381.225,100.262 373.5,90.5 Z"/></g>
<g><path style="opacity:0.004" fill="#000000" d="M 384.5,93.5 C 386.587,94.5846 387.92,96.2512 388.5,98.5C 386.413,97.4154 385.08,95.7488 384.5,93.5 Z"/></g>
<g><path style="opacity:0.004" fill="#000000" d="M 47.5,95.5 C 46.9202,97.7488 45.5869,99.4154 43.5,100.5C 44.0798,98.2512 45.4131,96.5846 47.5,95.5 Z"/></g>
<g><path style="opacity:1" fill="#00176c" d="M 285.5,83.5 C 291.596,88.0194 295.43,94.0194 297,101.5C 297.214,106.885 297.714,112.219 298.5,117.5C 297.539,139.378 297.206,161.378 297.5,183.5C 298.499,195.48 299.499,207.48 300.5,219.5C 295.635,217.7 290.635,216.367 285.5,215.5C 285.5,173.833 285.5,132.167 285.5,90.5C 285.5,88.1667 285.5,85.8333 285.5,83.5 Z"/></g>
<g><path style="opacity:1" fill="#d1e6f7" d="M 205.5,62.5 C 214.832,72.6925 217.999,84.6925 215,98.5C 207.097,121.709 190.93,131.543 166.5,128C 161.547,126.857 157.214,124.69 153.5,121.5C 161.772,123.047 170.106,123.547 178.5,123C 181.836,121.124 185.336,119.624 189,118.5C 210.323,105.04 215.49,87.04 204.5,64.5C 204.863,63.8165 205.196,63.1499 205.5,62.5 Z"/></g>
<g><path style="opacity:1" fill="#e1ecf9" d="M 265.5,101.5 C 265.5,102.167 265.5,102.833 265.5,103.5C 265.548,106.292 264.215,108.125 261.5,109C 253.833,109.667 246.167,109.667 238.5,109C 234.5,105.667 234.5,102.333 238.5,99C 246.5,98.3333 254.5,98.3333 262.5,99C 263.373,100.045 264.373,100.878 265.5,101.5 Z"/></g>
<g><path style="opacity:1" fill="#002c91" d="M 286.5,76.5 C 290.736,78.4449 294.403,81.1116 297.5,84.5C 296.957,84.56 296.624,84.8933 296.5,85.5C 301.656,92.2477 304.323,99.9144 304.5,108.5C 303.933,124.297 303.6,140.463 303.5,157C 303.467,174.518 303.967,192.018 305,209.5C 305.592,213.276 306.592,216.943 308,220.5C 311.382,221.928 312.549,224.262 311.5,227.5C 307.973,224.577 304.306,221.91 300.5,219.5C 299.499,207.48 298.499,195.48 297.5,183.5C 297.206,161.378 297.539,139.378 298.5,117.5C 297.714,112.219 297.214,106.885 297,101.5C 295.43,94.0194 291.596,88.0194 285.5,83.5C 285.198,80.9407 285.532,78.6074 286.5,76.5 Z"/></g>
<g><path style="opacity:0.004" fill="#000000" d="M 389.5,99.5 C 391.262,100.262 392.262,101.596 392.5,103.5C 390.738,102.738 389.738,101.404 389.5,99.5 Z"/></g>
<g><path style="opacity:0.004" fill="#000000" d="M 43.5,100.5 C 43.2624,102.404 42.2624,103.738 40.5,104.5C 40.7376,102.596 41.7376,101.262 43.5,100.5 Z"/></g>
<g><path style="opacity:1" fill="#0060d8" d="M 106.5,95.5 C 106.5,100.167 106.5,104.833 106.5,109.5C 100.701,117.49 94.2011,125.156 87,132.5C 56.2859,174.933 46.7859,221.766 58.5,273C 59.8711,283.706 62.0378,294.54 65,305.5C 65.7065,307.081 66.5399,308.581 67.5,310C 65.6992,310.317 65.3659,310.984 66.5,312C 65.6919,312.308 65.0253,312.808 64.5,313.5C 65.7914,314.527 65.7914,315.527 64.5,316.5C 26.6082,264.135 19.7748,207.802 44,147.5C 47.0205,140.783 50.5205,134.449 54.5,128.5C 54.6567,129.873 54.49,131.207 54,132.5C 39.3673,159.193 32.8673,187.693 34.5,218C 35.4658,219.678 36.7991,220.345 38.5,220C 39.6822,216.602 41.0156,213.269 42.5,210C 42.5385,208.755 42.2052,207.422 41.5,206C 43.1445,204.968 43.4779,203.801 42.5,202.5C 43.9987,195.318 46.332,188.484 49.5,182C 49.1667,181.667 48.8333,181.333 48.5,181C 60.1222,148.556 79.4555,120.056 106.5,95.5 Z"/></g>
<g><path style="opacity:0.004" fill="#000000" d="M 392.5,103.5 C 394.9,105.296 396.567,107.63 397.5,110.5C 395.1,108.704 393.433,106.37 392.5,103.5 Z"/></g>
<g><path style="opacity:0.004" fill="#000000" d="M 40.5,104.5 C 39.5667,107.37 37.9,109.704 35.5,111.5C 36.4333,108.63 38.1,106.296 40.5,104.5 Z"/></g>
<g><path style="opacity:0.004" fill="#000000" d="M 397.5,110.5 C 398.906,110.973 399.573,111.973 399.5,113.5C 398.094,113.027 397.427,112.027 397.5,110.5 Z"/></g>
<g><path style="opacity:0.004" fill="#000000" d="M 35.5,111.5 C 35.573,113.027 34.9063,114.027 33.5,114.5C 33.427,112.973 34.0937,111.973 35.5,111.5 Z"/></g>
<g><path style="opacity:0.004" fill="#000000" d="M 399.5,113.5 C 401.95,115.629 403.617,118.296 404.5,121.5C 402.05,119.371 400.383,116.704 399.5,113.5 Z"/></g>
<g><path style="opacity:0.004" fill="#000000" d="M 33.5,114.5 C 33.2503,116.674 32.2503,118.341 30.5,119.5C 30.7497,117.326 31.7497,115.659 33.5,114.5 Z"/></g>
<g><path style="opacity:1" fill="#004fcb" d="M 106.5,109.5 C 106.5,132.167 106.5,154.833 106.5,177.5C 101.873,189.814 100.373,202.481 102,215.5C 82.6104,221.719 70.7771,234.719 66.5,254.5C 64.8579,263.216 65.5246,271.882 68.5,280.5C 67.8761,280.917 67.5427,281.584 67.5,282.5C 71.0017,297.611 76.6684,311.444 84.5,324C 81.9165,327.397 82.5831,330.231 86.5,332.5C 84.8375,332.839 83.5042,334.172 82.5,336.5C 76.1584,330.157 70.1584,323.491 64.5,316.5C 65.7914,315.527 65.7914,314.527 64.5,313.5C 65.0253,312.808 65.6919,312.308 66.5,312C 65.3659,310.984 65.6992,310.317 67.5,310C 66.5399,308.581 65.7065,307.081 65,305.5C 62.0378,294.54 59.8711,283.706 58.5,273C 46.7859,221.766 56.2859,174.933 87,132.5C 94.2011,125.156 100.701,117.49 106.5,109.5 Z"/></g>
<g><path style="opacity:1" fill="#0040bf" d="M 319.5,104.5 C 319.833,105.5 320.5,106.167 321.5,106.5C 340.498,128.833 352.831,154.5 358.5,183.5C 356.592,179.644 354.759,175.644 353,171.5C 351.981,170.313 350.814,169.313 349.5,168.5C 348.808,169.025 348.308,169.692 348,170.5C 347.347,190.257 345.68,209.591 343,228.5C 342.562,231.376 341.562,234.043 340,236.5C 339.329,237.252 338.496,237.586 337.5,237.5C 335.887,236.308 334.22,235.308 332.5,234.5C 333.922,234.291 335.255,233.791 336.5,233C 333.962,231.369 331.295,230.036 328.5,229C 333.777,227.672 336.61,224.172 337,218.5C 339.395,194.221 337.062,170.554 330,147.5C 327.016,140.718 324.516,133.718 322.5,126.5C 322.579,123.942 322.912,121.442 323.5,119C 321.68,117.195 320.514,115.028 320,112.5C 319.667,114.167 319.333,115.833 319,117.5C 318.768,113.445 318.268,109.445 317.5,105.5C 317.957,104.702 318.624,104.369 319.5,104.5 Z"/></g>
<g><path style="opacity:0.004" fill="#000000" d="M 30.5,119.5 C 30.2503,121.674 29.2503,123.341 27.5,124.5C 27.7497,122.326 28.7497,120.659 30.5,119.5 Z"/></g>
<g><path style="opacity:0.26" fill="#4c95cf" d="M 285.5,37.5 C 292.259,39.6983 298.926,42.1983 305.5,45C 356.574,69.5684 392.574,108.068 413.5,160.5C 413.5,211.167 413.5,261.833 413.5,312.5C 404.298,335.916 391.298,356.916 374.5,375.5C 368.5,380.833 362.833,386.5 357.5,392.5C 348.697,401.309 339.03,408.975 328.5,415.5C 325.167,415.5 321.833,415.5 318.5,415.5C 322.081,412.436 326.081,409.936 330.5,408C 331.5,407 332.5,406 333.5,405C 332.619,403.207 333.286,402.54 335.5,403C 334.304,403.654 334.304,404.154 335.5,404.5C 339.274,402.229 342.607,399.396 345.5,396C 341.927,392.037 342.761,391.537 348,394.5C 350.631,392.635 352.131,390.468 352.5,388C 353.449,387.383 354.282,387.549 355,388.5C 359.833,383.667 364.667,378.833 369.5,374C 369.685,371.182 368.518,368.682 366,366.5C 364.471,367.729 363.304,369.229 362.5,371C 363.449,371.617 364.282,371.451 365,370.5C 365.667,371.833 365.667,373.167 365,374.5C 361.333,378.167 357.667,381.833 354,385.5C 353.25,384.874 352.416,384.374 351.5,384C 352.451,383.282 352.617,382.449 352,381.5C 350.045,382.453 348.378,383.787 347,385.5C 347.546,382.907 349.046,380.74 351.5,379C 350.5,378.667 349.5,378.333 348.5,378C 352,374.5 355.5,371 359,367.5C 359.333,368.5 359.667,369.5 360,370.5C 362.067,367.93 364.567,365.93 367.5,364.5C 368.192,365.025 368.692,365.692 369,366.5C 370.204,365.529 370.704,364.529 370.5,363.5C 371.681,365.135 371.681,366.802 370.5,368.5C 370.808,369.308 371.308,369.975 372,370.5C 376.067,368.114 376.233,365.281 372.5,362C 374.708,359.737 374.041,358.071 370.5,357C 368.101,357.287 365.768,358.12 363.5,359.5C 360.491,354.239 359.157,354.905 359.5,361.5C 360.873,361.343 362.207,361.51 363.5,362C 361.561,362.908 360.561,364.408 360.5,366.5C 357.654,366.97 355.321,366.137 353.5,364C 355.891,362.691 355.891,361.691 353.5,361C 356.629,360.883 357.795,359.383 357,356.5C 356.085,357.328 355.419,358.328 355,359.5C 354.215,357.714 353.049,356.214 351.5,355C 354.167,354.333 354.167,353.667 351.5,353C 352.833,352.333 354.167,351.667 355.5,351C 353.776,350.552 353.109,349.718 353.5,348.5C 349.633,350.612 346.633,349.612 344.5,345.5C 345.758,346.016 346.758,345.35 347.5,343.5C 345.36,340.193 343.026,337.026 340.5,334C 343.893,332.273 346.226,329.606 347.5,326C 347.167,325.667 346.833,325.333 346.5,325C 347.891,323.98 349.391,323.147 351,322.5C 354.898,315.87 358.398,309.037 361.5,302C 360.833,301 360.167,300 359.5,299C 361.914,297.215 363.247,295.048 363.5,292.5C 366.904,277.082 365.571,261.748 359.5,246.5C 361.332,230.549 361.832,214.549 361,198.5C 360.711,193.387 359.878,188.387 358.5,183.5C 352.831,154.5 340.498,128.833 321.5,106.5C 321.665,103.482 321.498,100.482 321,97.5C 320.667,98.8333 320.333,100.167 320,101.5C 319.137,99.2511 319.637,97.4178 321.5,96C 320.862,91.2915 319.862,86.6248 318.5,82C 318.63,80.9412 319.13,80.1079 320,79.5C 321.258,81.7644 322.425,84.0977 323.5,86.5C 323.833,86 324.167,85.5 324.5,85C 320.671,73.0607 314.338,64.394 305.5,59C 300.349,56.6817 295.849,53.515 292,49.5C 291.586,49.9574 291.086,50.2907 290.5,50.5C 289.06,49.0476 287.394,48.0476 285.5,47.5C 285.5,44.1667 285.5,40.8333 285.5,37.5 Z"/></g>
<g><path style="opacity:0.004" fill="#000000" d="M 405.5,123.5 C 407.25,124.659 408.25,126.326 408.5,128.5C 406.75,127.341 405.75,125.674 405.5,123.5 Z"/></g>
<g><path style="opacity:0.004" fill="#000000" d="M 27.5,124.5 C 24.3412,132.151 20.6745,139.484 16.5,146.5C 19.1262,138.581 22.7928,131.248 27.5,124.5 Z"/></g>
<g><path style="opacity:1" fill="#0047c2" d="M 310.5,95.5 C 313.833,98.1667 316.833,101.167 319.5,104.5C 318.624,104.369 317.957,104.702 317.5,105.5C 318.268,109.445 318.768,113.445 319,117.5C 319.333,115.833 319.667,114.167 320,112.5C 320.514,115.028 321.68,117.195 323.5,119C 322.912,121.442 322.579,123.942 322.5,126.5C 324.516,133.718 327.016,140.718 330,147.5C 337.062,170.554 339.395,194.221 337,218.5C 336.61,224.172 333.777,227.672 328.5,229C 331.295,230.036 333.962,231.369 336.5,233C 335.255,233.791 333.922,234.291 332.5,234.5C 329.762,234.149 327.096,233.482 324.5,232.5C 323.719,231.271 323.219,229.938 323,228.5C 314.755,222.512 310.588,214.345 310.5,204C 310.672,167.467 310.672,131.3 310.5,95.5 Z"/></g>
<g><path style="opacity:1" fill="#003aaa" d="M 297.5,84.5 C 301.833,87.8333 306.167,91.1667 310.5,94.5C 310.5,94.8333 310.5,95.1667 310.5,95.5C 310.672,131.3 310.672,167.467 310.5,204C 310.588,214.345 314.755,222.512 323,228.5C 323.219,229.938 323.719,231.271 324.5,232.5C 327.096,233.482 329.762,234.149 332.5,234.5C 334.22,235.308 335.887,236.308 337.5,237.5C 336.942,238.79 335.942,239.623 334.5,240C 336.833,241 339.167,242 341.5,243C 340.473,243.513 339.473,244.013 338.5,244.5C 337.503,244.47 336.836,244.97 336.5,246C 337.101,247.605 338.101,248.938 339.5,250C 335.773,250.065 332.44,248.899 329.5,246.5C 326.769,242.766 323.436,239.766 319.5,237.5C 317.213,233.878 314.547,230.545 311.5,227.5C 312.549,224.262 311.382,221.928 308,220.5C 306.592,216.943 305.592,213.276 305,209.5C 303.967,192.018 303.467,174.518 303.5,157C 303.6,140.463 303.933,124.297 304.5,108.5C 304.323,99.9144 301.656,92.2477 296.5,85.5C 296.624,84.8933 296.957,84.56 297.5,84.5 Z"/></g>
<g><path style="opacity:1" fill="#ddecf9" d="M 264.5,129.5 C 264.328,130.492 264.662,131.158 265.5,131.5C 265.896,134.044 265.229,136.211 263.5,138C 254.833,138.667 246.167,138.667 237.5,138C 234.701,134.661 235.034,131.661 238.5,129C 247.215,128.225 255.881,128.392 264.5,129.5 Z"/></g>
<g><path style="opacity:1" fill="#f4f9fe" d="M 151.5,140.5 C 158.589,140.116 165.589,140.616 172.5,142C 174.32,142.979 175.487,144.479 176,146.5C 176.333,146.167 176.667,145.833 177,145.5C 177.667,147.167 177.667,148.833 177,150.5C 176,151.833 175,151.833 174,150.5C 173.626,151.416 173.126,152.25 172.5,153C 147.429,158.267 130.262,172.767 121,196.5C 118.354,205.348 116.354,214.348 115,223.5C 114,225.5 113,227.5 112,229.5C 104.697,235.802 97.6972,242.468 91,249.5C 85.5526,257.303 81.7193,265.47 79.5,274C 77,275.167 74.5,276.333 72,277.5C 71.0853,276.672 70.4186,275.672 70,274.5C 69.6667,274.833 69.3333,275.167 69,275.5C 67.7063,274.146 67.5396,272.812 68.5,271.5C 66.6124,266.062 65.9458,260.395 66.5,254.5C 70.7771,234.719 82.6104,221.719 102,215.5C 100.373,202.481 101.873,189.814 106.5,177.5C 110.786,167.927 116.786,159.594 124.5,152.5C 132.379,146.062 141.379,142.062 151.5,140.5 Z"/></g>
<g><path style="opacity:0.004" fill="#000000" d="M 16.5,146.5 C 16.5979,148.553 15.9313,150.22 14.5,151.5C 14.4021,149.447 15.0687,147.78 16.5,146.5 Z"/></g>
<g><path style="opacity:0.004" fill="#000000" d="M 14.5,151.5 C 14.5979,153.553 13.9313,155.22 12.5,156.5C 12.4021,154.447 13.0687,152.78 14.5,151.5 Z"/></g>
<g><path style="opacity:1" fill="#e9f3fe" d="M 151.5,140.5 C 171.44,137.147 188.44,142.813 202.5,157.5C 206.301,160.958 209.301,164.958 211.5,169.5C 212.759,173.025 214.759,176.025 217.5,178.5C 232.749,171.12 247.416,172.12 261.5,181.5C 271.738,189.976 277.238,200.976 278,214.5C 280.381,215.435 282.881,215.768 285.5,215.5C 290.635,216.367 295.635,217.7 300.5,219.5C 304.306,221.91 307.973,224.577 311.5,227.5C 314.547,230.545 317.213,233.878 319.5,237.5C 319.5,237.833 319.5,238.167 319.5,238.5C 319.631,239.239 319.464,239.906 319,240.5C 317.667,239.167 316.333,239.167 315,240.5C 313.352,243.778 311.519,246.945 309.5,250C 304.93,277.55 288.43,292.383 260,294.5C 247.861,293.904 235.695,293.738 223.5,294C 221.956,293.71 220.623,293.044 219.5,292C 221.517,285.21 224.851,279.21 229.5,274C 239.136,269.234 242.636,261.734 240,251.5C 236.943,248.777 233.61,246.444 230,244.5C 229.667,233.833 229.333,223.167 229,212.5C 226.555,207.775 222.722,205.108 217.5,204.5C 203.294,203.176 188.961,203.176 174.5,204.5C 173.667,219.155 173.167,233.822 173,248.5C 168.586,249.303 164.086,249.803 159.5,250C 160.381,250.708 161.047,251.542 161.5,252.5C 161.146,256.637 161.646,260.637 163,264.5C 167.033,270.163 171.7,275.163 177,279.5C 179.686,283.984 181.519,288.484 182.5,293C 156.977,294.134 131.477,294.967 106,295.5C 105.667,295.167 105.333,294.833 105,294.5C 102.699,295.867 100.199,296.534 97.5,296.5C 97.7035,298.39 97.0368,299.89 95.5,301C 96.6537,301.914 96.487,302.747 95,303.5C 94.6667,302.833 94.3333,302.167 94,301.5C 92.8797,303.03 92.0464,304.697 91.5,306.5C 83.9644,302.634 77.6311,297.301 72.5,290.5C 71.164,287.162 69.8307,283.829 68.5,280.5C 65.5246,271.882 64.8579,263.216 66.5,254.5C 65.9458,260.395 66.6124,266.062 68.5,271.5C 67.5396,272.812 67.7063,274.146 69,275.5C 69.3333,275.167 69.6667,274.833 70,274.5C 70.4186,275.672 71.0853,276.672 72,277.5C 74.5,276.333 77,275.167 79.5,274C 81.7193,265.47 85.5526,257.303 91,249.5C 97.6972,242.468 104.697,235.802 112,229.5C 113,227.5 114,225.5 115,223.5C 116.354,214.348 118.354,205.348 121,196.5C 130.262,172.767 147.429,158.267 172.5,153C 173.126,152.25 173.626,151.416 174,150.5C 175,151.833 176,151.833 177,150.5C 177.667,148.833 177.667,147.167 177,145.5C 176.667,145.833 176.333,146.167 176,146.5C 175.487,144.479 174.32,142.979 172.5,142C 165.589,140.616 158.589,140.116 151.5,140.5 Z"/></g>
<g><path style="opacity:0.004" fill="#000000" d="M 11.5,159.5 C 11.0719,162.785 10.0719,165.785 8.5,168.5C 8.52751,165.084 9.52751,162.084 11.5,159.5 Z"/></g>
<g><path style="opacity:1" fill="#eef4fc" d="M 221.5,158.5 C 234.167,158.5 246.833,158.5 259.5,158.5C 261.292,158.366 262.958,158.699 264.5,159.5C 264.5,159.833 264.5,160.167 264.5,160.5C 263.152,162.48 261.152,163.647 258.5,164C 249.5,164.667 240.5,164.667 231.5,164C 227.373,163.44 224.04,161.607 221.5,158.5 Z"/></g>
<g><path style="opacity:1" fill="#ccdef0" d="M 221.5,158.5 C 224.04,161.607 227.373,163.44 231.5,164C 240.5,164.667 249.5,164.667 258.5,164C 261.152,163.647 263.152,162.48 264.5,160.5C 266.067,163.474 265.4,165.974 262.5,168C 248.837,168.5 235.171,168.667 221.5,168.5C 217.573,165.522 213.573,162.522 209.5,159.5C 213.445,158.509 217.445,158.176 221.5,158.5 Z"/></g>
<g><path style="opacity:1" fill="#7d98bf" d="M 202.5,157.5 C 221.674,157.17 240.674,157.503 259.5,158.5C 246.833,158.5 234.167,158.5 221.5,158.5C 217.445,158.176 213.445,158.509 209.5,159.5C 213.573,162.522 217.573,165.522 221.5,168.5C 217.958,168.187 214.625,168.521 211.5,169.5C 209.301,164.958 206.301,160.958 202.5,157.5 Z"/></g>
<g><path style="opacity:0.004" fill="#000000" d="M 8.5,168.5 C 8.59047,171.152 7.92381,173.485 6.5,175.5C 6.40953,172.848 7.07619,170.515 8.5,168.5 Z"/></g>
<g><path style="opacity:1" fill="#0034b6" d="M 358.5,183.5 C 359.878,188.387 360.711,193.387 361,198.5C 361.832,214.549 361.332,230.549 359.5,246.5C 357.856,252.396 356.19,258.396 354.5,264.5C 353.662,264.842 353.328,265.508 353.5,266.5C 352.761,266.631 352.094,266.464 351.5,266C 352.506,263.159 352.506,260.659 351.5,258.5C 351.165,265.102 349.998,271.769 348,278.5C 348.106,271.721 347.273,265.221 345.5,259C 345.833,258.667 346.167,258.333 346.5,258C 344.953,255.213 342.953,252.88 340.5,251C 341.5,250 342.5,249 343.5,248C 341.416,247.303 339.749,246.136 338.5,244.5C 339.473,244.013 340.473,243.513 341.5,243C 339.167,242 336.833,241 334.5,240C 335.942,239.623 336.942,238.79 337.5,237.5C 338.496,237.586 339.329,237.252 340,236.5C 341.562,234.043 342.562,231.376 343,228.5C 345.68,209.591 347.347,190.257 348,170.5C 348.308,169.692 348.808,169.025 349.5,168.5C 350.814,169.313 351.981,170.313 353,171.5C 354.759,175.644 356.592,179.644 358.5,183.5 Z"/></g>
<g><path style="opacity:0.004" fill="#000000" d="M 6.5,175.5 C 6.43487,178.428 5.7682,181.095 4.5,183.5C 4.29379,180.505 4.96046,177.838 6.5,175.5 Z"/></g>
<g><path style="opacity:0.004" fill="#1b807f" d="M 44.5,109.5 C 31.1724,128.826 21.0057,149.826 14,172.5C -5.18361,242.067 5.64973,306.4 46.5,365.5C 44.4503,363.763 42.617,361.763 41,359.5C 9.62778,311.667 -2.03888,259.334 6,202.5C 11.2089,168.115 24.0422,137.115 44.5,109.5 Z"/></g>
<g><path style="opacity:0.004" fill="#000000" d="M 1.5,198.5 C 1.39156,203.71 0.724898,208.71 -0.5,213.5C -0.5,210.5 -0.5,207.5 -0.5,204.5C 0.166667,202.5 0.833333,200.5 1.5,198.5 Z"/></g>
<g><path style="opacity:1" fill="#0f4391" d="M 217.5,204.5 C 212.57,204.197 207.737,204.531 203,205.5C 201.787,210.474 199.121,214.474 195,217.5C 192.565,220.934 190.565,224.6 189,228.5C 188.043,237.21 186.71,245.877 185,254.5C 182.563,259.774 178.729,263.44 173.5,265.5C 170.473,263.14 167.806,260.473 165.5,257.5C 164.876,255.246 163.543,253.579 161.5,252.5C 161.047,251.542 160.381,250.708 159.5,250C 164.086,249.803 168.586,249.303 173,248.5C 173.167,233.822 173.667,219.155 174.5,204.5C 188.961,203.176 203.294,203.176 217.5,204.5 Z"/></g>
<g><path style="opacity:1" fill="#00317a" d="M 217.5,204.5 C 217.5,204.833 217.5,205.167 217.5,205.5C 217.5,209.5 217.5,213.5 217.5,217.5C 209.499,219.37 205.499,224.204 205.5,232C 204.833,233 204.167,234 203.5,235C 205.974,239.372 206.14,243.872 204,248.5C 199.667,256.833 195.333,265.167 191,273.5C 189.852,277.653 189.352,281.653 189.5,285.5C 183.794,279.127 178.46,272.461 173.5,265.5C 178.729,263.44 182.563,259.774 185,254.5C 186.71,245.877 188.043,237.21 189,228.5C 190.565,224.6 192.565,220.934 195,217.5C 199.121,214.474 201.787,210.474 203,205.5C 207.737,204.531 212.57,204.197 217.5,204.5 Z"/></g>
<g><path style="opacity:1" fill="#7baeda" d="M 217.5,205.5 C 218.309,207.292 218.809,209.292 219,211.5C 221.056,212.583 222.389,214.25 223,216.5C 223.5,227.161 223.667,237.828 223.5,248.5C 226.385,248.194 229.052,248.527 231.5,249.5C 226.901,249.8 222.401,249.467 218,248.5C 217.5,238.172 217.334,227.839 217.5,217.5C 217.5,213.5 217.5,209.5 217.5,205.5 Z"/></g>
<g><path style="opacity:0.008" fill="#55aaa9" d="M 7.5,246.5 C 8.72705,255.332 9.72705,264.332 10.5,273.5C 8.28598,264.773 7.28598,255.773 7.5,246.5 Z"/></g>
<g><path style="opacity:1" fill="#002668" d="M 217.5,217.5 C 217.334,227.839 217.5,238.172 218,248.5C 222.401,249.467 226.901,249.8 231.5,249.5C 231.5,249.833 231.5,250.167 231.5,250.5C 230.026,251.436 229.026,252.77 228.5,254.5C 217.482,267.239 206.482,279.905 195.5,292.5C 193.273,290.393 191.273,288.06 189.5,285.5C 189.352,281.653 189.852,277.653 191,273.5C 195.333,265.167 199.667,256.833 204,248.5C 206.14,243.872 205.974,239.372 203.5,235C 204.167,234 204.833,233 205.5,232C 205.499,224.204 209.499,219.37 217.5,217.5 Z"/></g>
<g><path style="opacity:1" fill="#002394" d="M 338.5,244.5 C 339.749,246.136 341.416,247.303 343.5,248C 342.5,249 341.5,250 340.5,251C 342.953,252.88 344.953,255.213 346.5,258C 346.167,258.333 345.833,258.667 345.5,259C 347.273,265.221 348.106,271.721 348,278.5C 349.998,271.769 351.165,265.102 351.5,258.5C 352.506,260.659 352.506,263.159 351.5,266C 352.094,266.464 352.761,266.631 353.5,266.5C 345.57,291.045 332.57,312.379 314.5,330.5C 311.477,327.719 308.643,328.052 306,331.5C 305.667,331.167 305.333,330.833 305,330.5C 299.307,332.819 293.807,333.486 288.5,332.5C 288.34,330.847 287.674,329.514 286.5,328.5C 285.77,327.288 284.77,326.288 283.5,325.5C 285.828,324.276 288.161,324.276 290.5,325.5C 291.298,325.043 291.631,324.376 291.5,323.5C 312.369,324.461 326.869,315.128 335,295.5C 340.775,283.98 340.608,272.647 334.5,261.5C 335.025,260.808 335.692,260.308 336.5,260C 333.701,257.742 332.368,255.075 332.5,252C 331.167,250.333 329.833,248.667 328.5,247C 328.728,246.601 329.062,246.435 329.5,246.5C 332.44,248.899 335.773,250.065 339.5,250C 338.101,248.938 337.101,247.605 336.5,246C 336.836,244.97 337.503,244.47 338.5,244.5 Z"/></g>
<g><path style="opacity:1" fill="#d0e5f9" d="M 217.5,205.5 C 217.5,205.167 217.5,204.833 217.5,204.5C 222.722,205.108 226.555,207.775 229,212.5C 229.333,223.167 229.667,233.833 230,244.5C 233.61,246.444 236.943,248.777 240,251.5C 242.636,261.734 239.136,269.234 229.5,274C 224.851,279.21 221.517,285.21 219.5,292C 220.623,293.044 221.956,293.71 223.5,294C 235.695,293.738 247.861,293.904 260,294.5C 288.43,292.383 304.93,277.55 309.5,250C 311.519,246.945 313.352,243.778 315,240.5C 316.333,239.167 317.667,239.167 319,240.5C 319.464,239.906 319.631,239.239 319.5,238.5C 321.497,241.16 322.997,244.16 324,247.5C 326.028,254.694 326.861,262.027 326.5,269.5C 322.77,291.401 310.103,305.235 288.5,311C 231.168,311.5 173.834,311.667 116.5,311.5C 111.5,311.5 106.5,311.5 101.5,311.5C 98.1711,310.169 94.8377,308.836 91.5,307.5C 91.5,307.167 91.5,306.833 91.5,306.5C 92.0464,304.697 92.8797,303.03 94,301.5C 94.3333,302.167 94.6667,302.833 95,303.5C 96.487,302.747 96.6537,301.914 95.5,301C 97.0368,299.89 97.7035,298.39 97.5,296.5C 100.199,296.534 102.699,295.867 105,294.5C 105.333,294.833 105.667,295.167 106,295.5C 131.477,294.967 156.977,294.134 182.5,293C 181.519,288.484 179.686,283.984 177,279.5C 171.7,275.163 167.033,270.163 163,264.5C 161.646,260.637 161.146,256.637 161.5,252.5C 163.543,253.579 164.876,255.246 165.5,257.5C 165.34,259.199 165.506,260.866 166,262.5C 169.735,268.904 174.235,274.737 179.5,280C 181.101,280.273 182.601,280.773 184,281.5C 185.934,285.759 188.268,289.759 191,293.5C 195.8,299.911 201.467,300.911 208,296.5C 215.039,285.076 223.039,274.409 232,264.5C 232.923,262.966 233.423,261.299 233.5,259.5C 232.53,256.563 231.863,253.563 231.5,250.5C 231.5,250.167 231.5,249.833 231.5,249.5C 229.052,248.527 226.385,248.194 223.5,248.5C 223.667,237.828 223.5,227.161 223,216.5C 222.389,214.25 221.056,212.583 219,211.5C 218.809,209.292 218.309,207.292 217.5,205.5 Z"/></g>
<g><path style="opacity:0.004" fill="#000000" d="M 1.5,274.5 C 3.11791,279.256 4.11791,284.256 4.5,289.5C 2.6253,284.794 1.6253,279.794 1.5,274.5 Z"/></g>
<g><path style="opacity:0.004" fill="#000000" d="M 7.5,300.5 C 8.92381,302.515 9.59047,304.848 9.5,307.5C 8.07619,305.485 7.40953,303.152 7.5,300.5 Z"/></g>
<g><path style="opacity:1" fill="#001b79" d="M 319.5,238.5 C 319.5,238.167 319.5,237.833 319.5,237.5C 323.436,239.766 326.769,242.766 329.5,246.5C 329.062,246.435 328.728,246.601 328.5,247C 329.833,248.667 331.167,250.333 332.5,252C 332.368,255.075 333.701,257.742 336.5,260C 335.692,260.308 335.025,260.808 334.5,261.5C 340.608,272.647 340.775,283.98 335,295.5C 326.869,315.128 312.369,324.461 291.5,323.5C 285.721,322.089 279.887,321.089 274,320.5C 267.024,320.951 260.191,321.285 253.5,321.5C 239.637,320.842 225.803,320.175 212,319.5C 209.153,320.148 206.319,320.481 203.5,320.5C 175.876,319.675 148.209,319.175 120.5,319C 113.324,318.336 106.991,315.836 101.5,311.5C 106.5,311.5 111.5,311.5 116.5,311.5C 118.044,312.914 119.711,313.247 121.5,312.5C 147.11,314.727 172.776,315.061 198.5,313.5C 214.828,314.295 231.161,314.961 247.5,315.5C 258.326,315.586 268.826,315.253 279,314.5C 297.915,320.238 313.249,315.238 325,299.5C 327.201,295.406 329.034,291.239 330.5,287C 330.239,284.26 330.239,281.594 330.5,279C 329.986,275.389 328.653,272.222 326.5,269.5C 326.861,262.027 326.028,254.694 324,247.5C 322.997,244.16 321.497,241.16 319.5,238.5 Z"/></g>
<g><path style="opacity:0.004" fill="#000000" d="M 11.5,313.5 C 12.9313,314.78 13.5979,316.447 13.5,318.5C 12.0687,317.22 11.4021,315.553 11.5,313.5 Z"/></g>
<g><path style="opacity:0.004" fill="#7579f1" d="M 413.5,312.5 C 413.5,314.5 413.5,316.5 413.5,318.5C 396.335,359.002 369.335,391.336 332.5,415.5C 331.167,415.5 329.833,415.5 328.5,415.5C 339.03,408.975 348.697,401.309 357.5,392.5C 364.167,387.833 369.833,382.167 374.5,375.5C 391.298,356.916 404.298,335.916 413.5,312.5 Z"/></g>
<g><path style="opacity:0.004" fill="#000000" d="M 13.5,318.5 C 14.9313,319.78 15.5979,321.447 15.5,323.5C 14.0687,322.22 13.4021,320.553 13.5,318.5 Z"/></g>
<g><path style="opacity:0.004" fill="#00807f" d="M 413.5,318.5 C 413.5,319.833 413.5,321.167 413.5,322.5C 396.23,360.774 370.23,391.774 335.5,415.5C 334.5,415.5 333.5,415.5 332.5,415.5C 369.335,391.336 396.335,359.002 413.5,318.5 Z"/></g>
<g><path style="opacity:0.004" fill="#00fffe" d="M 413.5,322.5 C 413.5,324.833 413.5,327.167 413.5,329.5C 396.406,364.265 372.073,392.931 340.5,415.5C 338.833,415.5 337.167,415.5 335.5,415.5C 370.23,391.774 396.23,360.774 413.5,322.5 Z"/></g>
<g><path style="opacity:0.004" fill="#000000" d="M 15.5,323.5 C 17.2927,325.426 18.2927,327.759 18.5,330.5C 16.7073,328.574 15.7073,326.241 15.5,323.5 Z"/></g>
<g><path style="opacity:0.004" fill="#0200fc" d="M 413.5,329.5 C 413.5,330.833 413.5,332.167 413.5,333.5C 410.659,337.849 408.326,342.516 406.5,347.5C 404.75,348.659 403.75,350.326 403.5,352.5C 401.75,353.659 400.75,355.326 400.5,357.5C 399.094,357.973 398.427,358.973 398.5,360.5C 397.094,360.973 396.427,361.973 396.5,363.5C 394.738,364.262 393.738,365.596 393.5,367.5C 391.738,368.262 390.738,369.596 390.5,371.5C 388.738,372.262 387.738,373.596 387.5,375.5C 385.086,376.911 383.419,378.911 382.5,381.5C 382.5,382.167 382.167,382.5 381.5,382.5C 375.5,387.833 369.833,393.5 364.5,399.5C 364.5,400.167 364.167,400.5 363.5,400.5C 360.911,401.419 358.911,403.086 357.5,405.5C 355.251,406.08 353.585,407.413 352.5,409.5C 350.596,409.738 349.262,410.738 348.5,412.5C 346.596,412.738 345.262,413.738 344.5,415.5C 343.167,415.5 341.833,415.5 340.5,415.5C 372.073,392.931 396.406,364.265 413.5,329.5 Z"/></g>
<g><path style="opacity:0.004" fill="#000000" d="M 19.5,332.5 C 21.341,334.849 22.6743,337.515 23.5,340.5C 21.127,338.421 19.7936,335.754 19.5,332.5 Z"/></g>
<g><path style="opacity:0.004" fill="#000000" d="M 413.5,333.5 C 413.5,334.5 413.5,335.5 413.5,336.5C 411.416,340.336 409.083,344.003 406.5,347.5C 408.326,342.516 410.659,337.849 413.5,333.5 Z"/></g>
<g><path style="opacity:0.292" fill="#4c94cf" d="M 91.5,85.5 C 76.6424,97.6887 64.3091,112.022 54.5,128.5C 50.5205,134.449 47.0205,140.783 44,147.5C 19.7748,207.802 26.6082,264.135 64.5,316.5C 70.1584,323.491 76.1584,330.157 82.5,336.5C 86.8339,340.658 91.5006,344.324 96.5,347.5C 137.524,378 183.191,387.834 233.5,377C 238.487,376.095 243.154,374.595 247.5,372.5C 269.931,365.289 289.931,353.956 307.5,338.5C 332.031,333.142 347.531,317.808 354,292.5C 355.622,283.033 355.789,273.7 354.5,264.5C 356.19,258.396 357.856,252.396 359.5,246.5C 365.571,261.748 366.904,277.082 363.5,292.5C 363.247,295.048 361.914,297.215 359.5,299C 360.167,300 360.833,301 361.5,302C 358.398,309.037 354.898,315.87 351,322.5C 349.391,323.147 347.891,323.98 346.5,325C 346.833,325.333 347.167,325.667 347.5,326C 346.226,329.606 343.893,332.273 340.5,334C 343.026,337.026 345.36,340.193 347.5,343.5C 346.758,345.35 345.758,346.016 344.5,345.5C 346.633,349.612 349.633,350.612 353.5,348.5C 353.109,349.718 353.776,350.552 355.5,351C 354.167,351.667 352.833,352.333 351.5,353C 354.167,353.667 354.167,354.333 351.5,355C 353.049,356.214 354.215,357.714 355,359.5C 355.419,358.328 356.085,357.328 357,356.5C 357.795,359.383 356.629,360.883 353.5,361C 355.891,361.691 355.891,362.691 353.5,364C 355.321,366.137 357.654,366.97 360.5,366.5C 360.561,364.408 361.561,362.908 363.5,362C 362.207,361.51 360.873,361.343 359.5,361.5C 359.157,354.905 360.491,354.239 363.5,359.5C 365.768,358.12 368.101,357.287 370.5,357C 374.041,358.071 374.708,359.737 372.5,362C 376.233,365.281 376.067,368.114 372,370.5C 371.308,369.975 370.808,369.308 370.5,368.5C 371.681,366.802 371.681,365.135 370.5,363.5C 370.704,364.529 370.204,365.529 369,366.5C 368.692,365.692 368.192,365.025 367.5,364.5C 364.567,365.93 362.067,367.93 360,370.5C 359.667,369.5 359.333,368.5 359,367.5C 355.5,371 352,374.5 348.5,378C 349.5,378.333 350.5,378.667 351.5,379C 349.046,380.74 347.546,382.907 347,385.5C 348.378,383.787 350.045,382.453 352,381.5C 352.617,382.449 352.451,383.282 351.5,384C 352.416,384.374 353.25,384.874 354,385.5C 357.667,381.833 361.333,378.167 365,374.5C 365.667,373.167 365.667,371.833 365,370.5C 364.282,371.451 363.449,371.617 362.5,371C 363.304,369.229 364.471,367.729 366,366.5C 368.518,368.682 369.685,371.182 369.5,374C 364.667,378.833 359.833,383.667 355,388.5C 354.282,387.549 353.449,387.383 352.5,388C 352.131,390.468 350.631,392.635 348,394.5C 342.761,391.537 341.927,392.037 345.5,396C 342.607,399.396 339.274,402.229 335.5,404.5C 334.304,404.154 334.304,403.654 335.5,403C 333.286,402.54 332.619,403.207 333.5,405C 332.5,406 331.5,407 330.5,408C 326.081,409.936 322.081,412.436 318.5,415.5C 256.833,415.5 195.167,415.5 133.5,415.5C 133.649,414.448 133.483,413.448 133,412.5C 132.026,414.878 131.359,414.544 131,411.5C 130.026,413.878 129.359,413.544 129,410.5C 128.026,412.878 127.359,412.544 127,409.5C 126.385,411.116 125.385,412.449 124,413.5C 121.478,410.628 119.645,410.962 118.5,414.5C 115.43,414.505 112.43,413.505 109.5,411.5C 110.35,408.739 109.35,408.072 106.5,409.5C 104.167,408 101.833,406.5 99.5,405C 100.167,404.667 100.833,404.333 101.5,404C 97.5375,402.789 96.8709,400.789 99.5,398C 98.0692,397.535 96.9025,396.701 96,395.5C 94.5806,396.46 93.0806,397.293 91.5,398C 92.6467,399.281 92.3134,399.614 90.5,399C 89.9491,397.602 89.6158,396.268 89.5,395C 88.451,394.508 87.451,394.674 86.5,395.5C 85.2764,394.234 83.9431,393.067 82.5,392C 85.1649,389.9 87.3315,390.4 89,393.5C 89.9819,392.241 90.3152,390.908 90,389.5C 88.4345,390.061 87.1011,389.394 86,387.5C 81.031,381.194 74.6977,374.86 67,368.5C 65.7705,369.275 65.4372,370.275 66,371.5C 71.5,377 77,382.5 82.5,388C 81.2411,388.982 79.9078,389.315 78.5,389C 73.3333,383.833 68.1667,378.667 63,373.5C 63,372.167 63,370.833 63,369.5C 61.984,368.366 61.3173,368.699 61,370.5C 56.8731,367.094 57.0398,363.594 61.5,360C 60.646,358.978 59.646,358.145 58.5,357.5C 57.7285,359.862 56.8952,362.196 56,364.5C 42.0367,347.334 32.5367,329.501 27.5,311C 27.9444,309.238 28.4444,309.405 29,311.5C 29.4652,310.069 30.2986,308.903 31.5,308C 29.7265,307.119 29.0598,305.953 29.5,304.5C 27.5283,305.305 26.0283,306.639 25,308.5C 24.3623,307.391 23.8623,306.225 23.5,305C 24.5236,302.822 24.3569,300.655 23,298.5C 22.4444,300.595 21.9444,300.762 21.5,299C 22.3295,297.535 22.4962,296.035 22,294.5C 21.6667,295.167 21.3333,295.833 21,296.5C 19.2667,294.354 19.1,292.02 20.5,289.5C 20.263,286.937 19.763,286.937 19,289.5C 17.2469,287.011 17.0803,284.344 18.5,281.5C 18.3333,280.833 18.1667,280.167 18,279.5C 17.4444,281.595 16.9444,281.762 16.5,280C 17.4091,278.211 17.5758,276.377 17,274.5C 16.6667,275.5 16.3333,276.5 16,277.5C 15.5812,275.32 15.7479,273.154 16.5,271C 16.1493,267.896 15.6493,268.063 15,271.5C 14.8333,270.833 14.6667,270.167 14.5,269.5C 15.4399,266.868 15.6066,264.202 15,261.5C 14.6667,262.833 14.3333,264.167 14,265.5C 13.8333,264.667 13.6667,263.833 13.5,263C 14.4787,259.196 14.6454,255.362 14,251.5C 13.6667,253.5 13.3333,255.5 13,257.5C 11.4873,248.553 11.154,239.553 12,230.5C 12.3333,236.5 12.6667,242.5 13,248.5C 13.7077,238.984 13.541,229.484 12.5,220C 12.6667,218.5 12.8333,217 13,215.5C 13.3333,217.5 13.6667,219.5 14,221.5C 14.6454,217.638 14.4787,213.804 13.5,210C 13.6667,209.167 13.8333,208.333 14,207.5C 14.3333,208.833 14.6667,210.167 15,211.5C 15.553,208.641 15.3863,205.808 14.5,203C 14.6667,202.167 14.8333,201.333 15,200.5C 15.3333,201.833 15.6667,203.167 16,204.5C 16.5625,202.134 16.3958,199.801 15.5,197.5C 15.6667,196.833 15.8333,196.167 16,195.5C 16.3333,196.5 16.6667,197.5 17,198.5C 17.4361,196.153 17.9361,193.819 18.5,191.5C 17.772,189.845 17.6053,188.179 18,186.5C 18.5556,188.595 19.0556,188.762 19.5,187C 18.5411,184.88 18.3744,182.713 19,180.5C 19.9745,178.122 20.6411,178.456 21,181.5C 20.2389,175.098 21.5722,169.098 25,163.5C 25.6377,164.609 26.1377,165.775 26.5,167C 25.2871,169.641 26.2871,170.808 29.5,170.5C 29.494,173.548 30.494,174.048 32.5,172C 30.0087,171.374 30.0087,170.541 32.5,169.5C 31.6872,168.186 30.6872,167.019 29.5,166C 30.3859,164.783 31.3859,163.449 32.5,162C 31.4366,160.812 30.1033,160.312 28.5,160.5C 26.6152,153.291 28.4485,147.291 34,142.5C 34.3333,143.167 34.6667,143.833 35,144.5C 36.4131,141.339 38.0797,138.339 40,135.5C 41.3374,136.765 42.8374,137.265 44.5,137C 43.3595,136.259 43.3595,135.425 44.5,134.5C 43.5,133.833 42.5,133.167 41.5,132.5C 44.7087,127.248 48.042,122.082 51.5,117C 51.1667,115.333 50.8333,113.667 50.5,112C 52.0488,110.786 53.2155,109.286 54,107.5C 54.5954,111.082 55.9288,111.416 58,108.5C 58.3333,108.833 58.6667,109.167 59,109.5C 60.2837,108.428 60.6171,107.095 60,105.5C 61.8306,103.145 63.9972,101.812 66.5,101.5C 65.6744,100.549 65.5078,99.549 66,98.5C 70.1667,94.3333 74.3333,90.1667 78.5,86C 79.7441,85.5439 80.5774,86.0439 81,87.5C 81.3333,87.1667 81.6667,86.8333 82,86.5C 82.5255,84.45 83.3589,82.6166 84.5,81C 83.1235,78.4598 83.7902,76.4598 86.5,75C 87.4835,74.4092 88.1501,74.7425 88.5,76C 87.7282,77.221 86.7282,78.221 85.5,79C 88.0319,80.4582 90.3652,81.4582 92.5,82C 90.6885,83.0407 90.3552,84.2073 91.5,85.5 Z"/></g>
<g><path style="opacity:1" fill="#003bab" d="M 72.5,290.5 C 77.6311,297.301 83.9644,302.634 91.5,306.5C 91.5,306.833 91.5,307.167 91.5,307.5C 91.4128,308.498 91.0795,309.665 90.5,311C 97.9639,318.566 106.964,323.232 117.5,325C 142.842,326.595 168.176,326.761 193.5,325.5C 219.807,326.683 246.14,327.516 272.5,328C 274.754,329.15 277.087,329.484 279.5,329C 278.167,328.333 276.833,327.667 275.5,327C 276,326.833 276.5,326.667 277,326.5C 280.094,327.566 283.26,328.232 286.5,328.5C 287.674,329.514 288.34,330.847 288.5,332.5C 285.471,330.659 282.638,330.659 280,332.5C 278.234,331.767 276.401,331.433 274.5,331.5C 274.784,333.415 274.451,335.081 273.5,336.5C 271.092,335.939 268.759,335.439 266.5,335C 266.833,335.333 267.167,335.667 267.5,336C 266.299,336.903 265.465,338.069 265,339.5C 263.575,337.084 261.408,335.751 258.5,335.5C 255.449,334.397 252.282,333.731 249,333.5C 240.288,333.279 231.455,333.613 222.5,334.5C 215.938,333.936 209.438,333.269 203,332.5C 176.289,332.207 149.622,332.541 123,333.5C 120.43,332.991 118.097,331.991 116,330.5C 114.274,331.576 112.441,331.743 110.5,331C 96.5264,327.049 86.0264,318.549 79,305.5C 76.2472,300.67 74.0805,295.67 72.5,290.5 Z"/></g>
<g><path style="opacity:1" fill="#002a90" d="M 91.5,307.5 C 94.8377,308.836 98.1711,310.169 101.5,311.5C 106.991,315.836 113.324,318.336 120.5,319C 148.209,319.175 175.876,319.675 203.5,320.5C 206.319,320.481 209.153,320.148 212,319.5C 225.803,320.175 239.637,320.842 253.5,321.5C 260.191,321.285 267.024,320.951 274,320.5C 279.887,321.089 285.721,322.089 291.5,323.5C 291.631,324.376 291.298,325.043 290.5,325.5C 288.161,324.276 285.828,324.276 283.5,325.5C 284.77,326.288 285.77,327.288 286.5,328.5C 283.26,328.232 280.094,327.566 277,326.5C 276.5,326.667 276,326.833 275.5,327C 276.833,327.667 278.167,328.333 279.5,329C 277.087,329.484 274.754,329.15 272.5,328C 246.14,327.516 219.807,326.683 193.5,325.5C 168.176,326.761 142.842,326.595 117.5,325C 106.964,323.232 97.9639,318.566 90.5,311C 91.0795,309.665 91.4128,308.498 91.5,307.5 Z"/></g>
<g><path style="opacity:1" fill="#07186c" d="M 326.5,269.5 C 328.653,272.222 329.986,275.389 330.5,279C 330.239,281.594 330.239,284.26 330.5,287C 329.034,291.239 327.201,295.406 325,299.5C 313.249,315.238 297.915,320.238 279,314.5C 268.826,315.253 258.326,315.586 247.5,315.5C 231.161,314.961 214.828,314.295 198.5,313.5C 172.776,315.061 147.11,314.727 121.5,312.5C 119.711,313.247 118.044,312.914 116.5,311.5C 173.834,311.667 231.168,311.5 288.5,311C 310.103,305.235 322.77,291.401 326.5,269.5 Z"/></g>
<g><path style="opacity:0.434" fill="#3d7ebc" d="M 354.5,264.5 C 355.789,273.7 355.622,283.033 354,292.5C 347.531,317.808 332.031,333.142 307.5,338.5C 309.833,335.833 312.167,333.167 314.5,330.5C 332.57,312.379 345.57,291.045 353.5,266.5C 353.328,265.508 353.662,264.842 354.5,264.5 Z"/></g>
<g><path style="opacity:1" fill="#a4c9e9" d="M 231.5,250.5 C 231.863,253.563 232.53,256.563 233.5,259.5C 233.423,261.299 232.923,262.966 232,264.5C 223.039,274.409 215.039,285.076 208,296.5C 201.467,300.911 195.8,299.911 191,293.5C 188.268,289.759 185.934,285.759 184,281.5C 182.601,280.773 181.101,280.273 179.5,280C 174.235,274.737 169.735,268.904 166,262.5C 165.506,260.866 165.34,259.199 165.5,257.5C 167.806,260.473 170.473,263.14 173.5,265.5C 178.46,272.461 183.794,279.127 189.5,285.5C 191.273,288.06 193.273,290.393 195.5,292.5C 199.812,295.534 203.645,294.867 207,290.5C 213.774,282.881 219.607,274.548 224.5,265.5C 229.305,263.193 230.638,259.526 228.5,254.5C 229.026,252.77 230.026,251.436 231.5,250.5 Z"/></g>
<g><path style="opacity:1" fill="#70a9d9" d="M 228.5,254.5 C 230.638,259.526 229.305,263.193 224.5,265.5C 219.607,274.548 213.774,282.881 207,290.5C 203.645,294.867 199.812,295.534 195.5,292.5C 206.482,279.905 217.482,267.239 228.5,254.5 Z"/></g>
<g><path style="opacity:1" fill="#0047c3" d="M 68.5,280.5 C 69.8307,283.829 71.164,287.162 72.5,290.5C 74.0805,295.67 76.2472,300.67 79,305.5C 86.0264,318.549 96.5264,327.049 110.5,331C 112.441,331.743 114.274,331.576 116,330.5C 118.097,331.991 120.43,332.991 123,333.5C 149.622,332.541 176.289,332.207 203,332.5C 209.438,333.269 215.938,333.936 222.5,334.5C 231.455,333.613 240.288,333.279 249,333.5C 252.282,333.731 255.449,334.397 258.5,335.5C 257.962,337.117 257.629,338.784 257.5,340.5C 251.512,337.588 245.179,336.421 238.5,337C 248.271,337.488 248.938,340.321 240.5,345.5C 213.802,356.528 186.135,360.028 157.5,356C 148.111,354.255 138.777,352.255 129.5,350C 121.494,346.219 113.16,343.219 104.5,341C 105.167,340.667 105.833,340.333 106.5,340C 102.906,337.753 99.7395,338.253 97,341.5C 96.2825,340.549 95.4491,340.383 94.5,341C 95.3279,341.915 96.3279,342.581 97.5,343C 95.2177,344.084 94.8843,345.584 96.5,347.5C 91.5006,344.324 86.8339,340.658 82.5,336.5C 83.5042,334.172 84.8375,332.839 86.5,332.5C 82.5831,330.231 81.9165,327.397 84.5,324C 76.6684,311.444 71.0017,297.611 67.5,282.5C 67.5427,281.584 67.8761,280.917 68.5,280.5 Z"/></g>
<g><path style="opacity:1" fill="#002eb1" d="M 314.5,330.5 C 312.167,333.167 309.833,335.833 307.5,338.5C 289.931,353.956 269.931,365.289 247.5,372.5C 245.856,372.714 244.356,372.38 243,371.5C 239.047,372.938 235.047,374.272 231,375.5C 228.667,375.5 226.333,375.5 224,375.5C 223.311,376.357 222.478,377.023 221.5,377.5C 215.773,376.283 210.106,376.616 204.5,378.5C 202.659,376.83 200.492,375.83 198,375.5C 197.055,375.905 196.388,376.572 196,377.5C 195.333,374.833 194.667,374.833 194,377.5C 193.966,375.82 193.799,374.32 193.5,373C 195.301,372.683 195.634,372.016 194.5,371C 196.202,369.282 198.035,369.115 200,370.5C 200.388,369.572 201.055,368.905 202,368.5C 223.441,366.171 244.274,358.837 264.5,346.5C 266.856,344.31 269.356,342.31 272,340.5C 272.791,339.255 273.291,337.922 273.5,336.5C 274.451,335.081 274.784,333.415 274.5,331.5C 276.401,331.433 278.234,331.767 280,332.5C 282.638,330.659 285.471,330.659 288.5,332.5C 293.807,333.486 299.307,332.819 305,330.5C 305.333,330.833 305.667,331.167 306,331.5C 308.643,328.052 311.477,327.719 314.5,330.5 Z"/></g>
<g><path style="opacity:1" fill="#013cbc" d="M 273.5,336.5 C 273.291,337.922 272.791,339.255 272,340.5C 269.356,342.31 266.856,344.31 264.5,346.5C 244.274,358.837 223.441,366.171 202,368.5C 201.055,368.905 200.388,369.572 200,370.5C 198.035,369.115 196.202,369.282 194.5,371C 195.634,372.016 195.301,372.683 193.5,373C 193.799,374.32 193.966,375.82 194,377.5C 194.667,374.833 195.333,374.833 196,377.5C 196.388,376.572 197.055,375.905 198,375.5C 200.492,375.83 202.659,376.83 204.5,378.5C 210.106,376.616 215.773,376.283 221.5,377.5C 222.478,377.023 223.311,376.357 224,375.5C 226.333,375.5 228.667,375.5 231,375.5C 235.047,374.272 239.047,372.938 243,371.5C 244.356,372.38 245.856,372.714 247.5,372.5C 243.154,374.595 238.487,376.095 233.5,377C 183.191,387.834 137.524,378 96.5,347.5C 94.8843,345.584 95.2177,344.084 97.5,343C 96.3279,342.581 95.3279,341.915 94.5,341C 95.4491,340.383 96.2825,340.549 97,341.5C 99.7395,338.253 102.906,337.753 106.5,340C 105.833,340.333 105.167,340.667 104.5,341C 113.16,343.219 121.494,346.219 129.5,350C 138.777,352.255 148.111,354.255 157.5,356C 186.135,360.028 213.802,356.528 240.5,345.5C 248.938,340.321 248.271,337.488 238.5,337C 245.179,336.421 251.512,337.588 257.5,340.5C 257.629,338.784 257.962,337.117 258.5,335.5C 261.408,335.751 263.575,337.084 265,339.5C 265.465,338.069 266.299,336.903 267.5,336C 267.167,335.667 266.833,335.333 266.5,335C 268.759,335.439 271.092,335.939 273.5,336.5 Z"/></g>
<g><path style="opacity:0.004" fill="#000000" d="M 25.5,344.5 C 27.2503,345.659 28.2503,347.326 28.5,349.5C 26.7497,348.341 25.7497,346.674 25.5,344.5 Z"/></g>
<g><path style="opacity:0.004" fill="#000000" d="M 406.5,347.5 C 406.25,349.674 405.25,351.341 403.5,352.5C 403.75,350.326 404.75,348.659 406.5,347.5 Z"/></g>
<g><path style="opacity:0.004" fill="#000000" d="M 28.5,349.5 C 30.2503,350.659 31.2503,352.326 31.5,354.5C 29.7497,353.341 28.7497,351.674 28.5,349.5 Z"/></g>
<g><path style="opacity:0.004" fill="#000000" d="M 403.5,352.5 C 403.25,354.674 402.25,356.341 400.5,357.5C 400.75,355.326 401.75,353.659 403.5,352.5 Z"/></g>
<g><path style="opacity:0.004" fill="#000000" d="M 31.5,354.5 C 34.2411,356.975 36.2411,359.975 37.5,363.5C 34.7232,361.049 32.7232,358.049 31.5,354.5 Z"/></g>
<g><path style="opacity:0.004" fill="#000000" d="M 400.5,357.5 C 400.573,359.027 399.906,360.027 398.5,360.5C 398.427,358.973 399.094,357.973 400.5,357.5 Z"/></g>
<g><path style="opacity:0.004" fill="#000000" d="M 398.5,360.5 C 398.573,362.027 397.906,363.027 396.5,363.5C 396.427,361.973 397.094,360.973 398.5,360.5 Z"/></g>
<g><path style="opacity:0.004" fill="#000000" d="M 37.5,363.5 C 38.9063,363.973 39.573,364.973 39.5,366.5C 38.0937,366.027 37.427,365.027 37.5,363.5 Z"/></g>
<g><path style="opacity:0.004" fill="#000000" d="M 396.5,363.5 C 396.262,365.404 395.262,366.738 393.5,367.5C 393.738,365.596 394.738,364.262 396.5,363.5 Z"/></g>
<g><path style="opacity:0.004" fill="#00807f" d="M 46.5,365.5 C 49.6448,368.46 52.3115,371.793 54.5,375.5C 50.8743,372.905 48.2076,369.572 46.5,365.5 Z"/></g>
<g><path style="opacity:0.004" fill="#000000" d="M 39.5,366.5 C 41.2624,367.262 42.2624,368.596 42.5,370.5C 40.7376,369.738 39.7376,368.404 39.5,366.5 Z"/></g>
<g><path style="opacity:0.004" fill="#000000" d="M 393.5,367.5 C 393.262,369.404 392.262,370.738 390.5,371.5C 390.738,369.596 391.738,368.262 393.5,367.5 Z"/></g>
<g><path style="opacity:0.004" fill="#000000" d="M 42.5,370.5 C 44.2624,371.262 45.2624,372.596 45.5,374.5C 43.7376,373.738 42.7376,372.404 42.5,370.5 Z"/></g>
<g><path style="opacity:0.004" fill="#000000" d="M 390.5,371.5 C 390.262,373.404 389.262,374.738 387.5,375.5C 387.738,373.596 388.738,372.262 390.5,371.5 Z"/></g>
<g><path style="opacity:0.004" fill="#000000" d="M 46.5,375.5 C 48.5869,376.585 49.9202,378.251 50.5,380.5C 48.4131,379.415 47.0798,377.749 46.5,375.5 Z"/></g>
<g><path style="opacity:0.004" fill="#00807f" d="M 54.5,375.5 C 61.9649,382.464 69.2982,389.631 76.5,397C 82.6881,401.697 88.6881,406.531 94.5,411.5C 79.001,402.006 65.6677,390.006 54.5,375.5 Z"/></g>
<g><path style="opacity:0.008" fill="#55aaa9" d="M 374.5,375.5 C 369.833,382.167 364.167,387.833 357.5,392.5C 362.833,386.5 368.5,380.833 374.5,375.5 Z"/></g>
<g><path style="opacity:0.004" fill="#000000" d="M 387.5,375.5 C 386.581,378.089 384.914,380.089 382.5,381.5C 383.419,378.911 385.086,376.911 387.5,375.5 Z"/></g>
<g><path style="opacity:0.004" fill="#000000" d="M 51.5,381.5 C 58.5,387.833 65.1667,394.5 71.5,401.5C 70.7611,401.631 70.0944,401.464 69.5,401C 62.9043,394.91 56.9043,388.41 51.5,381.5 Z"/></g>
<g><path style="opacity:0.004" fill="#000000" d="M 381.5,382.5 C 376.833,389.167 371.167,394.833 364.5,399.5C 369.833,393.5 375.5,387.833 381.5,382.5 Z"/></g>
<g><path style="opacity:0.004" fill="#000000" d="M 363.5,400.5 C 362.089,402.914 360.089,404.581 357.5,405.5C 358.911,403.086 360.911,401.419 363.5,400.5 Z"/></g>
<g><path style="opacity:0.004" fill="#000000" d="M 72.5,402.5 C 74.7488,403.08 76.4154,404.413 77.5,406.5C 75.2512,405.92 73.5846,404.587 72.5,402.5 Z"/></g>
<g><path style="opacity:0.004" fill="#000000" d="M 357.5,405.5 C 356.415,407.587 354.749,408.92 352.5,409.5C 353.585,407.413 355.251,406.08 357.5,405.5 Z"/></g>
<g><path style="opacity:0.004" fill="#000000" d="M 77.5,406.5 C 79.7488,407.08 81.4154,408.413 82.5,410.5C 80.2512,409.92 78.5846,408.587 77.5,406.5 Z"/></g>
<g><path style="opacity:0.004" fill="#000000" d="M 352.5,409.5 C 351.738,411.262 350.404,412.262 348.5,412.5C 349.262,410.738 350.596,409.738 352.5,409.5 Z"/></g>
<g><path style="opacity:0.004" fill="#000000" d="M 82.5,410.5 C 84.4044,410.738 85.7377,411.738 86.5,413.5C 84.5956,413.262 83.2623,412.262 82.5,410.5 Z"/></g>
<g><path style="opacity:0.004" fill="#000000" d="M 348.5,412.5 C 347.833,413.5 347.167,414.5 346.5,415.5C 345.833,415.5 345.167,415.5 344.5,415.5C 345.262,413.738 346.596,412.738 348.5,412.5 Z"/></g>
<g><path style="opacity:0.004" fill="#000000" d="M 86.5,413.5 C 88.0269,413.427 89.0269,414.094 89.5,415.5C 88.8333,415.5 88.1667,415.5 87.5,415.5C 87.1667,414.833 86.8333,414.167 86.5,413.5 Z"/></g>
</svg>
